<svg xmlns="http://www.w3.org/2000/svg" width="255" height="229" viewBox="0 0 255 229">
    <defs>
        <linearGradient id="prefix__a" x1="0%" x2="100%" y1="49.996%" y2="49.996%">
            <stop offset="3%" stop-color="#03B2FF"/>
            <stop offset="70%" stop-color="#071492"/>
        </linearGradient>
        <linearGradient id="prefix__b" x1="-.004%" x2="181.703%" y1="50.003%" y2="50.003%">
            <stop offset="3%" stop-color="#03B2FF"/>
            <stop offset="70%" stop-color="#071492"/>
        </linearGradient>
        <linearGradient id="prefix__d" x1="0%" x2="100%" y1="50.002%" y2="50.002%">
            <stop offset="3%" stop-color="#03B2FF"/>
            <stop offset="70%" stop-color="#071492"/>
        </linearGradient>
        <linearGradient id="prefix__e" x1="-.102%" x2="100.079%" y1="50.045%" y2="50.045%">
            <stop offset="3%" stop-color="#03B2FF"/>
            <stop offset="70%" stop-color="#071492"/>
        </linearGradient>
        <linearGradient id="prefix__f" x1="-.011%" x2="100.17%" y1="50.131%" y2="50.131%">
            <stop offset="3%" stop-color="#03B2FF"/>
            <stop offset="70%" stop-color="#071492"/>
        </linearGradient>
        <linearGradient id="prefix__g" x1=".08%" x2="100.262%" y1="49.995%" y2="49.995%">
            <stop offset="3%" stop-color="#03B2FF"/>
            <stop offset="70%" stop-color="#071492"/>
        </linearGradient>
        <linearGradient id="prefix__h" x1=".007%" x2="100%" y1="49.994%" y2="49.994%">
            <stop offset="3%" stop-color="#03B2FF"/>
            <stop offset="70%" stop-color="#071492"/>
        </linearGradient>
        <linearGradient id="prefix__i" x1=".01%" x2="99.986%" y1="50.008%" y2="50.008%">
            <stop offset="3%" stop-color="#03B2FF"/>
            <stop offset="70%" stop-color="#071492"/>
        </linearGradient>
        <linearGradient id="prefix__j" x1="-.003%" x2="100.036%" y1="50%" y2="50%">
            <stop offset="3%" stop-color="#03B2FF"/>
            <stop offset="70%" stop-color="#071492"/>
        </linearGradient>
        <linearGradient id="prefix__k" x1="-.002%" x2="100.036%" y1="50%" y2="50%">
            <stop offset="3%" stop-color="#03B2FF"/>
            <stop offset="70%" stop-color="#071492"/>
        </linearGradient>
        <linearGradient id="prefix__l" x1="-.028%" x2="99.995%" y1="49.906%" y2="49.906%">
            <stop offset="3%" stop-color="#03B2FF"/>
            <stop offset="70%" stop-color="#071492"/>
        </linearGradient>
        <linearGradient id="prefix__m" x1="-.001%" x2="100.013%" y1="49.973%" y2="49.973%">
            <stop offset="3%" stop-color="#03B2FF"/>
            <stop offset="70%" stop-color="#071492"/>
        </linearGradient>
        <linearGradient id="prefix__n" x1=".034%" x2="100.062%" y1="50.019%" y2="50.019%">
            <stop offset="3%" stop-color="#03B2FF"/>
            <stop offset="70%" stop-color="#071492"/>
        </linearGradient>
        <linearGradient id="prefix__p" x1="92.469%" x2="10.425%" y1="112.157%" y2="-30.818%">
            <stop offset="10%" stop-color="#071492"/>
            <stop offset="33%" stop-color="#03B2FF"/>
            <stop offset="75%" stop-color="#071492"/>
            <stop offset="93%" stop-color="#0576D6"/>
        </linearGradient>
        <linearGradient id="prefix__q" x1="-.014%" x2="99.951%" y1="49.984%" y2="49.984%">
            <stop offset="3%" stop-color="#03B2FF"/>
            <stop offset="70%" stop-color="#071492"/>
        </linearGradient>
        <radialGradient id="prefix__c" cx="45.755%" cy="59.18%" r="40.453%" fx="45.755%" fy="59.18%" gradientTransform="scale(.612 1) rotate(-15.006 .603 -.51)">
            <stop offset="0%" stop-color="#071492"/>
            <stop offset="100%" stop-color="#03B2FF" stop-opacity="0"/>
        </radialGradient>
        <radialGradient id="prefix__o" cx="50.002%" cy="50%" r="62.248%" fx="50.002%" fy="50%" gradientTransform="matrix(.4464 0 0 1 .277 0)">
            <stop offset="0%"/>
            <stop offset="82%" stop-color="#66C5FF" stop-opacity="0"/>
        </radialGradient>
    </defs>
    <g fill="none" transform="translate(.808 .545)">
        <path fill="url(#prefix__a)" d="M136.424 226.863L3.146 153.256c-1.951-1.079-3.158-3.138-3.146-5.37l.083-19.274 113.031-49.944c1.636-.964 3.658-.996 5.323-.082l135.495 57.906.099 21.4c.006.934-.482 1.801-1.281 2.28l-110.953 66.592c-1.646.988-3.692 1.026-5.373.099z"/>
        <path fill="url(#prefix__b)" d="M136.32 208.15L2.77 134.41c-1.687-.938-2.743-2.71-2.77-4.643-.026-1.934.983-3.733 2.644-4.718l110.367-65.082c1.636-.965 3.658-.996 5.323-.083L251.23 132.88c1.695.928 2.765 2.695 2.8 4.63.037 1.935-.965 3.74-2.624 4.732l-109.713 65.836c-1.651.978-3.696 1.005-5.372.072z"/>
        <ellipse cx="135.421" cy="134.026" fill="url(#prefix__c)" rx="116.119" ry="71.065"/>
        <path fill="#66C5FF" d="M216.673 136.313c0 2.601-3.713 6.197-5.978 4.932L101.49 77.928c-1.173-.639-1.923-1.85-1.973-3.187l-1.14-69.426c-.11-2.922 5.107-6.38 7.68-5.004L212.04 56.945c2.85 1.523 4.632 4.496 4.634 7.733v71.635z"/>
        <path fill="#D2F0FF" d="M214.806 137.486c0 1.205-.637 2.32-1.674 2.93-1.037.61-2.319.624-3.369.037L99.723 79.187c-1.172-.638-1.92-1.848-1.97-3.182l.984-70.835c-.05-1.352.625-2.629 1.77-3.347 1.146-.718 2.587-.768 3.78-.132l105.878 56.546c2.847 1.52 4.627 4.488 4.63 7.72l.01 71.53z"/>
        <path fill="url(#prefix__d)" d="M212.315 135.116c0 1.16-.613 2.234-1.612 2.822-.998.588-2.233.603-3.244.038L101.517 78.964c-1.127-.612-1.848-1.775-1.897-3.059l.979-66.513c-.052-1.303.597-2.535 1.7-3.227 1.104-.692 2.493-.74 3.64-.124l101.91 54.46c2.741 1.469 4.453 4.33 4.455 7.446l.011 67.169z"/>
        <path fill="#66C5FF" d="M212.315 134.487c.002 1.161-.609 2.237-1.605 2.826-.997.59-2.23.605-3.24.04L100.868 8.765c-.048-1.302.6-2.531 1.7-3.223 1.099-.691 2.482-.74 3.627-.128L207.86 59.878c2.734 1.466 4.443 4.327 4.444 7.44l.011 67.169z" opacity=".3"/>
        <path fill="#66C5FF" d="M143.837 181.796L35.27 122.782c-.995-.544-1.624-1.58-1.648-2.716-.025-1.135.557-2.198 1.527-2.786l60.688-36.481c2.147-1.291 4.817-1.344 7.013-.138l109.642 60.213c.645.357 1.052 1.032 1.067 1.77.015.74-.365 1.43-.996 1.813l-61.737 37.185c-2.14 1.286-4.797 1.344-6.99.154z"/>
        <path fill="#D2F0FF" d="M143.838 179.935L35.276 120.909c-.997-.542-1.629-1.579-1.654-2.716-.024-1.137.56-2.2 1.533-2.786l60.687-36.48c2.147-1.289 4.815-1.341 7.012-.138l109.638 60.215c.646.355 1.053 1.029 1.068 1.767.015.738-.365 1.428-.997 1.808l-61.735 37.18c-2.134 1.295-4.793 1.362-6.99.176z"/>
        <path fill="url(#prefix__e)" d="M149.401 168.046l-6.652-3.305c-1.199-.594-1.5-1.225-1.393-2.108.217-.646.535-1.255.945-1.802 0 0 2.09.722 2.7 1.032l8.098 3.701s.54 1.647-1.463 2.508l-.086.038c-.692.29-1.476.266-2.149-.064z"/>
        <path fill="#66C5FF" d="M149.378 167.418l-6.636-3.317c-1.987-.993-1.836-3.043.248-3.821 0 0 1.39-.215 2.02.097l6.727 3.274c1.955.955 1.89 2.925-.113 3.789l-.086.037c-.693.301-1.485.28-2.16-.059z"/>
        <path fill="url(#prefix__f)" d="M136.331 160.567l-6.652-3.306c-1.204-.599-1.506-1.23-1.398-2.108.215-.647.534-1.256.945-1.802 0 0 2.09.722 2.7 1.027l8.098 3.707s.54 1.642-1.463 2.504l-.092.037c-.686.293-1.468.271-2.138-.059z"/>
        <path fill="#66C5FF" d="M136.305 159.934l-6.633-3.313c-1.993-.994-1.842-3.04.242-3.824 0 0 1.389-.21 2.019.097l6.725 3.28c1.96.957 1.895 2.927-.108 3.792l-.092.038c-.693.294-1.48.269-2.153-.07z"/>
        <path fill="url(#prefix__g)" d="M64.101 121.285l-6.651-3.302c-1.2-.598-1.501-1.228-1.393-2.105.215-.646.534-1.254.944-1.8 0 0 2.09.721 2.7 1.026l8.099 3.702s.54 1.64-1.463 2.5l-.076.049c-.695.294-1.486.268-2.16-.07z"/>
        <path fill="#66C5FF" d="M64.07 121.283l-6.629-3.316c-1.985-.992-1.834-3.036.248-3.82 0 0 1.388-.208 2.017.097l6.73 3.283c1.959.955 1.889 2.924-.107 3.788l-.092.037c-.697.298-1.491.272-2.168-.07z"/>
        <path fill="url(#prefix__h)" d="M125.643 154.314L69.31 124.937c-1.225-.613-1.533-1.26-1.423-2.162.222-.66.546-1.28.961-1.84 0 0 2.127.74 2.748 1.051l8.242 3.794 49.668 26.24c-.008.336-.054.67-.137.997-.215.374-.503.702-.847.963-.423.298-.904.503-1.412.602-.505.055-1.014-.039-1.467-.268z"/>
        <path fill="#66C5FF" d="M125.642 153.698l-56.336-29.413c-2.033-1.014-1.88-3.102.247-3.902 0 0 1.418-.214 2.066.099l56.425 29.375c2 .97 1.934 2.981-.11 3.863l-.088.039c-.707.307-1.515.285-2.204-.06z"/>
        <path fill="url(#prefix__i)" d="M158.58 161.811l-94.26-50.564c-1.217-.617-1.524-1.267-1.414-2.17.218-.667.542-1.293.96-1.856 0 0 2.122.743 2.741 1.057l8.226 3.817 49.579 26.375s37.964 20.505 38.019 20.741c.253.886-.157 1.828-.977 2.242-.42.299-.898.505-1.403.606-.504.06-1.014-.025-1.47-.248z"/>
        <path fill="#66C5FF" d="M158.677 161.185l-94.358-50.593c-2.026-1.02-1.872-3.118.252-3.923 0 0 1.417-.215 2.059.1l94.418 50.548c1.993.98 1.927 3.003-.11 3.89l-.093.039c-.697.298-1.489.276-2.168-.06z"/>
        <path fill="url(#prefix__j)" d="M167.353 155.57l-55.717-29.358c-1.233-.614-2.156-2.442-2.045-3.346.04-.344.303-.622.647-.684 0 0 2.138.739 2.763 1.057l8.29 3.789 49.93 26.243c-.007.337-.055.671-.143.997-.216.374-.505.702-.851.963-.424.296-.906.5-1.415.597-.501.056-1.008-.034-1.459-.257z"/>
        <path fill="url(#prefix__k)" d="M145.582 143.727L89.23 114.34c-1.22-.608-1.528-1.254-1.418-2.157.22-.662.545-1.285.962-1.845 0 0 2.127.739 2.748 1.05l8.245 3.795 49.664 26.238c-.008.337-.056.672-.143.997-.213.377-.5.707-.847.969-.42.296-.9.5-1.407.597-.498.056-1.002-.034-1.45-.257z"/>
        <path fill="#66C5FF" d="M167.353 154.945l-56.318-29.877c-2.034-1.014-1.907-2.641.22-3.436 0 0 1.418-.22 2.061.099l56.445 29.367c2 .976 1.93 2.987-.11 3.87l-.093.037c-.708.307-1.515.285-2.205-.06z"/>
        <path fill="#66C5FF" d="M145.956 143.52l-56.727-29.776c-2.033-1.032-1.879-3.147.254-3.957 0 0 1.422-.217 2.067.1l56.417 30.03c2 .989 1.935 3.026-.11 3.92l-.094.039c-.71.305-1.118-.006-1.807-.356z"/>
        <path fill="url(#prefix__l)" d="M82.173 110.636l-11.453-5.981c-.513-.267-.333-2.175-.333-2.175l13.237-6.682c.89-.527 1.99-.562 2.912-.093l10.516 4.894s.425 2.3-.715 2.99l-11.453 6.976c-.827.502-1.859.528-2.71.07z"/>
        <path fill="#66C5FF" d="M82.178 109.403l-11.427-5.972c-.236-.123-.387-.365-.394-.63-.007-.267.131-.516.361-.651l12.913-7.6c.889-.527 1.987-.56 2.906-.087l9.67 4.918c.546.28.899.833.921 1.445.023.613-.288 1.19-.813 1.509L84.888 109.3c-.82.513-1.852.552-2.71.103z"/>
        <path fill="url(#prefix__m)" d="M186.625 143.711l-94.28-50.543c-1.224-.616-1.53-1.266-1.421-2.175.22-.664.543-1.289.96-1.85 0 0 2.123.743 2.743 1.057l8.228 3.816 49.562 26.39s37.977 20.502 38.032 20.739c.253.885-.157 1.827-.977 2.241-.42.299-.899.503-1.404.6-.498.052-.999-.044-1.443-.275z"/>
        <path fill="#66C5FF" d="M186.687 143.105l-94.345-50.59c-2.031-1.02-1.878-3.12.247-3.924 0 0 1.416-.215 2.058.1l94.417 50.546c1.998.98 1.927 3.003-.11 3.89l-.093.038c-.698.302-1.493.28-2.174-.06z"/>
        <path fill="url(#prefix__n)" d="M176.735 148.715l-56.375-29.382c-1.22-.613-1.528-1.26-1.418-2.163.22-.662.545-1.285.962-1.845 0 0 2.127.739 2.748 1.056l8.246 3.795 49.663 26.24c-.005.336-.051.67-.137.996-.215.374-.503.702-.847.963-.421.297-.9.5-1.407.597-.493.053-.99-.036-1.435-.257z"/>
        <path fill="#66C5FF" d="M176.72 148.093l-56.361-29.416c-2.034-1.014-1.874-3.107.253-3.902 0 0 1.417-.22 2.06.099l56.427 29.372c2 .975 1.934 2.987-.11 3.869l-.088.038c-.701.3-1.499.278-2.182-.06z"/>
        <path fill="url(#prefix__o)" d="M158.377 142.325c-21.668 10.545-56.893 10.545-74.682 0-16.07-9.521-9.55-23.14 11.43-30.596 19.254-6.842 46.328-6.842 63.065 0 18.24 7.456 19.75 21.075.187 30.596z"/>
        <path fill="url(#prefix__p)" d="M102.11 76.2l9.576 26.64 9.279 16.971c6.723 11.474 10.014 16.083 20.082 13.531 2.413-.614 9.773-6.793 9.773-6.793l1.097-32.483c.073-2.04-.98-3.954-2.742-4.982l-6.362-3.682c-2.553-1.476-4.712-3.546-6.295-6.035l-3.044-4.736c-.962-1.517-2.81-2.219-4.535-1.723-4.649 1.335-9.65.53-13.645-2.194l-2.193-1.504c-.598-.395-10.99 6.99-10.99 6.99z"/>
        <path fill="#66C5FF" d="M54.168 132.156l6.227-1.87"/>
        <path fill="url(#prefix__q)" d="M102.11 76.322v32.907l9.338 16.99c6.762 11.488 10.943 13.79 21.086 11.224 2.427-.615 8.94-4.488 8.94-4.488l1.104-32.522c.071-2.04-.988-3.957-2.758-4.988l-6.448-3.68c-2.566-1.479-4.736-3.552-6.326-6.043l-3.022-4.714c-.97-1.516-2.826-2.218-4.562-1.725-4.674 1.337-9.704.531-13.722-2.197l-2.207-1.5c-.276-.188-.635-.21-.932-.055-.297.153-.486.458-.49.791z"/>
        <path fill="#66C5FF" d="M108.962 89.122v20.175l5.6 10.408c4.059 7.048 6.574 8.457 12.658 6.882 1.456-.376 5.368-2.764 5.368-2.764l.652-19.937c.043-1.256-.599-2.434-1.668-3.062l-3.841-2.26c-1.543-.905-2.847-2.176-3.803-3.704l-1.814-2.891c-.58-.921-1.681-1.35-2.717-1.056-2.806.817-5.824.32-8.235-1.354l-1.326-.923c-.17-.135-.404-.154-.594-.049-.19.106-.3.316-.28.535z"/>
    </g>
</svg>
