<svg xmlns="http://www.w3.org/2000/svg" width="255" height="229" viewBox="0 0 255 229">
    <defs>
        <linearGradient id="prefix__a" x1="0%" x2="99.989%" y1="49.997%" y2="49.997%">
            <stop offset="3%" stop-color="#03B2FF"/>
            <stop offset="70%" stop-color="#071492"/>
        </linearGradient>
        <linearGradient id="prefix__b" x1=".003%" x2="181.702%" y1="50%" y2="50%">
            <stop offset="3%" stop-color="#03B2FF"/>
            <stop offset="70%" stop-color="#071492"/>
        </linearGradient>
        <linearGradient id="prefix__d" x1="0%" x2="100%" y1="49.994%" y2="49.994%">
            <stop offset="3%" stop-color="#03B2FF"/>
            <stop offset="70%" stop-color="#071492"/>
        </linearGradient>
        <linearGradient id="prefix__e" x1=".028%" x2="99.955%" y1="49.997%" y2="49.997%">
            <stop offset="3%" stop-color="#03B2FF"/>
            <stop offset="70%" stop-color="#071492"/>
        </linearGradient>
        <linearGradient id="prefix__f" x1="-.02%" x2="100.062%" y1="50.004%" y2="50.004%">
            <stop offset="3%" stop-color="#03B2FF"/>
            <stop offset="70%" stop-color="#071492"/>
        </linearGradient>
        <linearGradient id="prefix__g" x1=".015%" x2="99.811%" y1="50.008%" y2="50.008%">
            <stop offset="3%" stop-color="#03B2FF"/>
            <stop offset="70%" stop-color="#071492"/>
        </linearGradient>
        <linearGradient id="prefix__h" x1="-.032%" x2="99.962%" y1="50.008%" y2="50.008%">
            <stop offset="3%" stop-color="#03B2FF"/>
            <stop offset="70%" stop-color="#071492"/>
        </linearGradient>
        <linearGradient id="prefix__i" x1="-.002%" x2="99.993%" y1="49.981%" y2="49.981%">
            <stop offset="3%" stop-color="#03B2FF"/>
            <stop offset="70%" stop-color="#071492"/>
        </linearGradient>
        <linearGradient id="prefix__j" x1="-.004%" x2="100%" y1="50.028%" y2="50.028%">
            <stop offset="3%" stop-color="#03B2FF"/>
            <stop offset="70%" stop-color="#071492"/>
        </linearGradient>
        <linearGradient id="prefix__k" x1="-.023%" x2="99.972%" y1="50.024%" y2="50.024%">
            <stop offset="3%" stop-color="#03B2FF"/>
            <stop offset="70%" stop-color="#071492"/>
        </linearGradient>
        <linearGradient id="prefix__l" x1="-.124%" x2="99.858%" y1="49.945%" y2="49.945%">
            <stop offset="3%" stop-color="#03B2FF"/>
            <stop offset="70%" stop-color="#071492"/>
        </linearGradient>
        <linearGradient id="prefix__m" x1="-.002%" x2="99.992%" y1="50.025%" y2="50.025%">
            <stop offset="3%" stop-color="#03B2FF"/>
            <stop offset="70%" stop-color="#071492"/>
        </linearGradient>
        <linearGradient id="prefix__n" x1=".022%" x2="100.019%" y1="49.99%" y2="49.99%">
            <stop offset="3%" stop-color="#03B2FF"/>
            <stop offset="70%" stop-color="#071492"/>
        </linearGradient>
        <linearGradient id="prefix__p" x1="50.066%" x2="50.375%" y1="51.452%" y2="122.751%">
            <stop offset="3%" stop-color="#03B2FF"/>
            <stop offset="70%" stop-color="#071492"/>
        </linearGradient>
        <linearGradient id="prefix__q" x1="14.615%" x2="139.791%" y1="17.985%" y2="130.127%">
            <stop offset="28%" stop-color="#03B2FF"/>
            <stop offset="51%" stop-color="#071492"/>
        </linearGradient>
        <linearGradient id="prefix__r" x1="27.209%" x2="89.38%" y1="33.883%" y2="80.148%">
            <stop offset="31%" stop-color="#03B2FF"/>
            <stop offset="70%" stop-color="#071492"/>
        </linearGradient>
        <linearGradient id="prefix__s" x1="50.042%" x2="50.383%" y1="50.921%" y2="95.345%">
            <stop offset="3%" stop-color="#03B2FF"/>
            <stop offset="70%" stop-color="#071492"/>
        </linearGradient>
        <linearGradient id="prefix__t" x1="1.08%" x2="98.208%" y1="53.001%" y2="48.466%">
            <stop offset="3%" stop-color="#03B2FF"/>
            <stop offset="70%" stop-color="#071492"/>
        </linearGradient>
        <radialGradient id="prefix__c" cx="41.237%" cy="55.941%" r="40.494%" fx="41.237%" fy="55.941%" gradientTransform="matrix(.61126 0 0 1 .16 0)">
            <stop offset="0%" stop-color="#071492"/>
            <stop offset="100%" stop-color="#03B2FF" stop-opacity="0"/>
        </radialGradient>
        <radialGradient id="prefix__o" cx="50.001%" cy="50.165%" r="104.931%" fx="50.001%" fy="50.165%" gradientTransform="matrix(.51217 0 0 1 .244 0)">
            <stop offset="0%" stop-color="#071492"/>
            <stop offset="65%" stop-color="#03B2FF" stop-opacity="0"/>
        </radialGradient>
    </defs>
    <g fill="none" transform="translate(.763 .037)">
        <path fill="url(#prefix__a)" d="M136.458 228.136L3.144 154.633c-1.949-1.077-3.154-3.13-3.144-5.357l.081-19.23 113.092-49.903c1.635-.966 3.659-.997 5.323-.081l135.528 57.85.098 21.37c.006.932-.482 1.799-1.284 2.277l-110.993 66.484c-1.65.988-3.703 1.024-5.387.093z"/>
        <path fill="url(#prefix__b)" d="M136.384 210.006l-133.6-73.655c-1.694-.936-2.757-2.71-2.783-4.646-.027-1.936.987-3.737 2.656-4.72l110.412-64.974c1.636-.963 3.659-.994 5.323-.082l132.937 72.888c1.691.93 2.757 2.694 2.793 4.624.036 1.93-.963 3.732-2.619 4.725l-109.75 65.747c-1.644.988-3.691 1.024-5.37.093z"/>
        <ellipse cx="135.532" cy="135.973" fill="url(#prefix__c)" rx="116.081" ry="70.956"/>
        <path fill="#66C5FF" d="M220.24 135.503c0 2.58-3.703 6.153-5.96 4.9L105.405 77.47c-1.17-.633-1.918-1.838-1.967-3.167l-1.16-69.017c-.111-2.9 5.095-6.345 7.66-4.977l105.629 56.293c2.854 1.505 4.641 4.465 4.643 7.69l.029 71.21z"/>
        <path fill="#D2F0FF" d="M218.334 137.27c-.002 1.202-.64 2.313-1.678 2.923-1.039.61-2.322.626-3.376.043L102.998 79.073c-1.172-.638-1.923-1.844-1.976-3.175l.99-70.713c-.057-1.354.617-2.634 1.766-3.355 1.15-.721 2.598-.773 3.796-.135l106.12 56.463c2.867 1.51 4.662 4.478 4.663 7.713l-.023 71.4z"/>
        <path fill="url(#prefix__d)" d="M216.475 134.892c0 1.16-.614 2.232-1.616 2.82-1 .586-2.239.6-3.253.035l-106.17-58.909c-1.134-.609-1.86-1.773-1.905-3.057l.955-66.395c-.045-1.299.608-2.522 1.712-3.21 1.105-.687 2.492-.733 3.64-.121l102.17 54.35c2.749 1.464 4.466 4.32 4.467 7.43v67.057z"/>
        <path fill="#66C5FF" d="M216.475 133.64c-.001 1.16-.614 2.231-1.612 2.819-.997.587-2.231.603-3.244.041L104.79 8.153c-.051-1.302.597-2.53 1.7-3.222 1.102-.692 2.49-.74 3.638-.126L212.02 59.15c2.741 1.463 4.454 4.319 4.455 7.428v67.063z" opacity=".3"/>
        <path fill="#66C5FF" d="M147.72 181.689L38.683 122.874c-1.003-.54-1.638-1.575-1.662-2.71-.024-1.134.566-2.194 1.546-2.777l60.927-36.363c2.157-1.286 4.838-1.339 7.044-.139l110.121 60.026c.648.355 1.056 1.026 1.07 1.761.015.736-.367 1.423-1 1.802l-62 37.082c-2.148 1.273-4.813 1.324-7.009.133z"/>
        <path fill="#D2F0FF" d="M147.72 179.19L38.683 120.379c-1.003-.54-1.638-1.575-1.662-2.71-.024-1.134.566-2.194 1.546-2.777l60.927-36.367c2.157-1.287 4.838-1.34 7.044-.14l110.121 60.024c.648.355 1.056 1.027 1.07 1.762.015.735-.367 1.422-1 1.802l-62 37.08c-2.147 1.275-4.812 1.328-7.009.139z"/>
        <path fill="url(#prefix__e)" d="M153.058 167.271l-6.688-3.308c-1.21-.601-1.514-1.236-1.405-2.12.22-.646.54-1.254.952-1.801 0 0 2.099.72 2.736 1.031l8.139 3.711s.573 1.649-1.469 2.51l-.092.04c-.697.3-1.494.277-2.173-.063z"/>
        <path fill="#66C5FF" d="M153.05 167.27l-6.686-3.326c-2.007-.995-1.852-3.047.246-3.832 0 0 1.4-.21 2.036.097l6.777 3.286c1.972.961 1.91 2.934-.109 3.798l-.092.04c-.697.302-1.494.279-2.173-.063z"/>
        <path fill="url(#prefix__f)" d="M140.517 160.401l-6.695-3.315c-1.211-.6-1.516-1.235-1.407-2.119.218-.647.54-1.256.953-1.802 0 0 2.102.72 2.74 1.031l8.141 3.712s.546 1.655-1.47 2.516l-.092.034c-.696.297-1.49.277-2.17-.057z"/>
        <path fill="#66C5FF" d="M140.502 159.783l-6.685-3.34c-2.007-1-1.858-3.052.246-3.83 0 0 1.4-.216 2.036.096l6.777 3.284c1.972.955 1.903 2.926-.11 3.796l-.09.034c-.696.305-1.49.29-2.174-.04z"/>
        <path fill="url(#prefix__g)" d="M67.71 121.006l-6.679-3.31c-1.208-.595-1.506-1.228-1.403-2.111.22-.647.54-1.256.95-1.805 0 0 2.097.724 2.733 1.03l8.146 3.712s.572 1.646-1.467 2.506l-.091.04c-.702.305-1.506.283-2.189-.062z"/>
        <path fill="#66C5FF" d="M67.714 121.008l-6.685-3.326c-2.007-.995-1.852-3.047.246-3.832 0 0 1.4-.21 2.036.097l6.777 3.286c1.972.96 1.91 2.934-.109 3.798l-.092.04c-.697.301-1.494.279-2.173-.063z"/>
        <path fill="url(#prefix__h)" d="M129.148 154.148L72.97 124.673c-1.222-.616-1.528-1.26-1.418-2.165.22-.664.545-1.29.96-1.851 0 0 2.12.742 2.763 1.056l8.219 3.807 49.528 26.319c-.005.339-.052.676-.139 1.004-.213.377-.5.707-.845.969-.422.289-.9.487-1.402.58-.51.069-1.027-.016-1.488-.244z"/>
        <path fill="#66C5FF" d="M129.147 153.506l-56.182-29.487c-2.027-1.022-1.87-3.112.25-3.913 0 0 1.412-.221 2.055.098l56.298 29.452c1.992.976 1.923 2.99-.116 3.873l-.087.04c-.711.316-1.526.292-2.218-.063z"/>
        <path fill="url(#prefix__i)" d="M162.353 161.032l-94.405-50.71c-1.219-.619-1.526-1.272-1.416-2.183.219-.667.542-1.296.957-1.861 0 0 2.124.747 2.774 1.068l8.235 3.822 49.623 26.47s38.033 20.564 38.08 20.803c.258.886-.15 1.83-.97 2.247-.423.292-.904.491-1.41.583-.502.064-1.011-.019-1.468-.239z"/>
        <path fill="#66C5FF" d="M162.415 161.016L67.949 110.28c-2.032-1.022-1.876-3.129.25-3.935.688-.117 1.393-.083 2.067.1l94.553 50.694c1.997.98 1.928 3.012-.11 3.9l-.094.04c-.707.304-1.512.28-2.2-.064z"/>
        <path fill="url(#prefix__j)" d="M171.184 154.78l-55.566-29.459c-1.229-.58-2.149-2.45-2.038-3.354.04-.346.303-.624.646-.685 0 0 2.131.743 2.778 1.056l8.262 3.807 49.796 26.326c-.006.337-.052.672-.14.998-.213.378-.503.708-.85.97-.423.29-.903.488-1.409.58-.505.065-1.02-.017-1.479-.238z"/>
        <path fill="url(#prefix__k)" d="M149.226 143.525l-56.177-29.48c-1.222-.58-1.529-1.26-1.419-2.165.222-.664.547-1.288.962-1.851 0 0 2.12.743 2.762 1.056l8.218 3.807 49.529 26.324c-.006.337-.052.672-.139.998-.215.376-.502.706-.846.97-.422.287-.899.485-1.401.58-.509.07-1.027-.013-1.489-.239z"/>
        <path fill="#66C5FF" d="M171.204 154.775l-56.185-29.971c-2.028-1.023-1.9-2.649.22-3.45 0 0 1.413-.215 2.056.098l56.307 29.449c1.999.982 1.93 2.997-.11 3.88l-.086.04c-.706.308-1.51.291-2.202-.046z"/>
        <path fill="#66C5FF" d="M149.636 142.688l-56.586-29.32c-2.033-1.011-1.882-3.096.25-3.893 0 0 1.417-.214 2.062.098l56.277 29.575c1.999.97 1.935 2.974-.11 3.852l-.093.04c-.708.3-1.115-.005-1.8-.352z"/>
        <path fill="url(#prefix__l)" d="M85.917 110.328l-11.51-5.978c-.516-.27-.336-2.187-.336-2.187l13.349-6.72c.9-.525 2.007-.558 2.936-.087l10.587 4.903s.429 2.301-.714 2.998l-11.556 6.985c-.837.517-1.888.55-2.756.086z"/>
        <path fill="#66C5FF" d="M85.938 109.086L74.436 103.1c-.237-.124-.388-.366-.395-.632-.007-.266.13-.515.36-.652l13.028-7.625c.899-.524 2.006-.557 2.935-.086l9.75 4.938c.538.29.882.841.906 1.449.024.608-.276 1.183-.79 1.514l-11.548 6.987c-.834.511-1.878.546-2.744.092z"/>
        <path fill="url(#prefix__m)" d="M190.588 143.535L96.184 92.812c-1.219-.618-1.527-1.266-1.416-2.177.217-.668.54-1.297.957-1.862 0 0 2.124.747 2.768 1.063l8.24 3.823 49.623 26.464s38.033 20.57 38.08 20.809c.26.886-.148 1.833-.97 2.247-.424.292-.904.49-1.41.584-.5.07-1.011-.01-1.468-.228z"/>
        <path fill="#66C5FF" d="M190.65 142.884L96.186 92.157c-2.032-1.027-1.876-3.129.25-3.934 0 0 1.416-.222 2.061.099l94.559 50.686c1.997.987 1.927 3.012-.11 3.9l-.094.04c-.707.307-1.512.283-2.2-.064z"/>
        <path fill="url(#prefix__n)" d="M180.007 147.896l-56.214-29.474c-1.222-.615-1.523-1.265-1.419-2.171.222-.662.547-1.285.962-1.846 0 0 2.12.737 2.762 1.056l8.219 3.803 49.53 26.333c-.006.339-.053.676-.14 1.004-.212.374-.498.702-.84.964-.422.29-.902.488-1.406.58-.499.06-1.004-.026-1.454-.25z"/>
        <path fill="#66C5FF" d="M179.97 147.88l-56.18-29.49c-2.028-1.017-1.871-3.112.249-3.913 0 0 1.413-.215 2.056.098l56.296 29.45c1.993.98 1.923 2.995-.11 3.877l-.092.041c-.711.315-1.527.292-2.219-.064zM57.727 131.91L64 130.033"/>
        <path fill="url(#prefix__o)" d="M198.064 143.48c-20.466 21.95-72.849 30.275-113.047 17.216-38.079-12.348-45.924-37.913-21.375-56.153 22.569-16.756 66.28-22.38 100.607-13.39 35.982 9.408 52.458 32.329 33.815 52.327z"/>
        <path fill="url(#prefix__p)" d="M138.042 120.123l13.35-8.219 5.282 6.635c2.22 2.792 3.395 6.266 3.326 9.826-.04 2.094-1.08 4.045-2.798 5.253l-9.385 6.63c-1.403.988-3.056 1.564-4.772 1.664l-5.003-21.79z"/>
        <path fill="url(#prefix__q)" d="M95.827 104.975L97.257 101.276 90.982 105.653"/>
        <path fill="url(#prefix__r)" d="M97.257 101.276l14.424-10.225c.909-.542 1.918-.89 2.966-1.022.94-.045 1.873.182 2.689.656l-12.467 8.577c-1.274-.132-2.557-.155-3.835-.07-.887.18-3.777 2.084-3.777 2.084z"/>
        <path fill="url(#prefix__s)" d="M109.179 95.8l13.67-8.45s7.195-2.172 15.136 3c13.443 8.75 13.233 21.464 13.233 21.464l-13.39 8.217-28.65-24.231z"/>
        <path fill="url(#prefix__t)" d="M93.087 117.003l46.95 24.526c1.303.675 7.966.972 8.554-3.666.918-7.285-3.791-12.109-4.652-13.08-1.22-1.414-5.814-4.655-5.814-4.655s-4.53-22.153-20.21-25.4c-4.773-1.109-9.756.639-12.792 4.487 0 0-1.21-1.81-5.117.075-4.21 2.031-3.994 5.732-3.994 5.732s-3-1.362-4.826.692c-1.425 1.595-.704 6.075-.146 8.63.26 1.144 1.008 2.116 2.047 2.659z"/>
    </g>
</svg>
