<svg xmlns="http://www.w3.org/2000/svg" width="254" height="228" viewBox="0 0 254 228">
    <defs>
        <linearGradient id="prefix__a" x1="0%" x2="100%" y1="50.001%" y2="50.001%">
            <stop offset="3%" stop-color="#03B2FF"/>
            <stop offset="70%" stop-color="#071492"/>
        </linearGradient>
        <linearGradient id="prefix__b" x1="0%" x2="181.701%" y1="50%" y2="50%">
            <stop offset="3%" stop-color="#03B2FF"/>
            <stop offset="70%" stop-color="#071492"/>
        </linearGradient>
        <linearGradient id="prefix__d" x1=".025%" x2="100%" y1="50.007%" y2="50.007%">
            <stop offset="3%" stop-color="#03B2FF"/>
            <stop offset="70%" stop-color="#071492"/>
        </linearGradient>
        <linearGradient id="prefix__e" x1="-.009%" x2="99.977%" y1="50.042%" y2="50.042%">
            <stop offset="3%" stop-color="#03B2FF"/>
            <stop offset="70%" stop-color="#071492"/>
        </linearGradient>
        <linearGradient id="prefix__f" x1="-.194%" x2="99.792%" y1="49.975%" y2="49.975%">
            <stop offset="3%" stop-color="#03B2FF"/>
            <stop offset="70%" stop-color="#071492"/>
        </linearGradient>
        <linearGradient id="prefix__g" x1=".023%" x2="99.977%" y1="50.202%" y2="50.202%">
            <stop offset="3%" stop-color="#03B2FF"/>
            <stop offset="70%" stop-color="#071492"/>
        </linearGradient>
        <linearGradient id="prefix__h" x1="-.002%" x2="100%" y1="50.015%" y2="50.015%">
            <stop offset="3%" stop-color="#03B2FF"/>
            <stop offset="70%" stop-color="#071492"/>
        </linearGradient>
        <linearGradient id="prefix__i" x1="-.003%" x2="99.989%" y1="50%" y2="50%">
            <stop offset="3%" stop-color="#03B2FF"/>
            <stop offset="70%" stop-color="#071492"/>
        </linearGradient>
        <linearGradient id="prefix__j" x1="-.014%" x2="99.982%" y1="50.013%" y2="50.013%">
            <stop offset="3%" stop-color="#03B2FF"/>
            <stop offset="70%" stop-color="#071492"/>
        </linearGradient>
        <linearGradient id="prefix__k" x1="-.002%" x2="99.955%" y1="50%" y2="50%">
            <stop offset="3%" stop-color="#03B2FF"/>
            <stop offset="70%" stop-color="#071492"/>
        </linearGradient>
        <linearGradient id="prefix__l" x1="-.013%" x2="99.995%" y1="50.013%" y2="50.013%">
            <stop offset="3%" stop-color="#03B2FF"/>
            <stop offset="70%" stop-color="#071492"/>
        </linearGradient>
        <linearGradient id="prefix__m" x1=".003%" x2="99.992%" y1="49.999%" y2="49.999%">
            <stop offset="3%" stop-color="#03B2FF"/>
            <stop offset="70%" stop-color="#071492"/>
        </linearGradient>
        <linearGradient id="prefix__n" x1="-.002%" x2="100%" y1="50.004%" y2="50.004%">
            <stop offset="3%" stop-color="#03B2FF"/>
            <stop offset="70%" stop-color="#071492"/>
        </linearGradient>
        <linearGradient id="prefix__p" x1="0%" x2="100.009%" y1="50.003%" y2="50.003%">
            <stop offset="3%" stop-color="#03B2FF"/>
            <stop offset="70%" stop-color="#071492"/>
        </linearGradient>
        <linearGradient id="prefix__q" x1="0%" x2="100.009%" y1="49.819%" y2="49.819%">
            <stop offset="3%" stop-color="#03B2FF"/>
            <stop offset="70%" stop-color="#071492"/>
        </linearGradient>
        <linearGradient id="prefix__r" x1="-.072%" x2="99.936%" y1="49.947%" y2="49.947%">
            <stop offset="3%" stop-color="#03B2FF"/>
            <stop offset="70%" stop-color="#071492"/>
        </linearGradient>
        <linearGradient id="prefix__s" x1="0%" x2="100.01%" y1="49.958%" y2="49.958%">
            <stop offset="3%" stop-color="#03B2FF"/>
            <stop offset="70%" stop-color="#071492"/>
        </linearGradient>
        <linearGradient id="prefix__t" x1="-.072%" x2="99.923%" y1="49.993%" y2="49.993%">
            <stop offset="3%" stop-color="#03B2FF"/>
            <stop offset="70%" stop-color="#071492"/>
        </linearGradient>
        <linearGradient id="prefix__u" x1="-.072%" x2="99.923%" y1="50.013%" y2="50.013%">
            <stop offset="3%" stop-color="#03B2FF"/>
            <stop offset="70%" stop-color="#071492"/>
        </linearGradient>
        <linearGradient id="prefix__v" x1="0%" x2="100.009%" y1="49.933%" y2="49.933%">
            <stop offset="3%" stop-color="#03B2FF"/>
            <stop offset="70%" stop-color="#071492"/>
        </linearGradient>
        <linearGradient id="prefix__w" x1="-.072%" x2="99.923%" y1="49.907%" y2="49.907%">
            <stop offset="3%" stop-color="#03B2FF"/>
            <stop offset="70%" stop-color="#071492"/>
        </linearGradient>
        <linearGradient id="prefix__x" x1="-.029%" x2="99.967%" y1="50.01%" y2="50.01%">
            <stop offset="3%" stop-color="#03B2FF"/>
            <stop offset="70%" stop-color="#071492"/>
        </linearGradient>
        <linearGradient id="prefix__y" x1="-.058%" x2="100.009%" y1="50.002%" y2="50.002%">
            <stop offset="3%" stop-color="#03B2FF"/>
            <stop offset="70%" stop-color="#071492"/>
        </linearGradient>
        <linearGradient id="prefix__z" x1="-.043%" x2="99.966%" y1="49.923%" y2="49.923%">
            <stop offset="3%" stop-color="#03B2FF"/>
            <stop offset="70%" stop-color="#071492"/>
        </linearGradient>
        <linearGradient id="prefix__A" x1="-.029%" x2="99.966%" y1="49.997%" y2="49.997%">
            <stop offset="3%" stop-color="#03B2FF"/>
            <stop offset="70%" stop-color="#071492"/>
        </linearGradient>
        <linearGradient id="prefix__B" x1="0%" x2="100.009%" y1="50.028%" y2="50.028%">
            <stop offset="3%" stop-color="#03B2FF"/>
            <stop offset="70%" stop-color="#071492"/>
        </linearGradient>
        <linearGradient id="prefix__C" x1="0%" x2="100.009%" y1="50.07%" y2="50.07%">
            <stop offset="3%" stop-color="#03B2FF"/>
            <stop offset="70%" stop-color="#071492"/>
        </linearGradient>
        <linearGradient id="prefix__D" x1="0%" x2="99.995%" y1="49.936%" y2="49.936%">
            <stop offset="3%" stop-color="#03B2FF"/>
            <stop offset="70%" stop-color="#071492"/>
        </linearGradient>
        <linearGradient id="prefix__E" x1="0%" x2="100.009%" y1="50.033%" y2="50.033%">
            <stop offset="3%" stop-color="#03B2FF"/>
            <stop offset="70%" stop-color="#071492"/>
        </linearGradient>
        <radialGradient id="prefix__c" cx="50%" cy="54.657%" r="80.443%" fx="50%" fy="54.657%" gradientTransform="matrix(.61052 0 0 .62106 .195 .207)">
            <stop offset="0%" stop-color="#071492"/>
            <stop offset="100%" stop-color="#03B2FF" stop-opacity="0"/>
        </radialGradient>
        <radialGradient id="prefix__o" cx="46.588%" cy="49.029%" r="51.737%" fx="46.588%" fy="49.029%" gradientTransform="matrix(.5857 0 0 1 .193 0)">
            <stop offset="27%" stop-color="#040B4D"/>
            <stop offset="86%" stop-color="#071492" stop-opacity="0"/>
        </radialGradient>
    </defs>
    <g fill="none" transform="translate(-.002)">
        <path fill="url(#prefix__a)" d="M136.274 227.334L3.146 154.004C1.2 152.93-.006 150.88 0 148.658l.084-19.187 112.879-49.785c1.635-.96 3.656-.99 5.318-.078l135.312 57.723.1 21.323c.007.93-.481 1.795-1.281 2.271L141.61 227.25c-1.639.97-3.668 1.001-5.336.084z"/>
        <path fill="url(#prefix__b)" d="M136.15 208.634L2.784 135.15c-1.693-.931-2.756-2.7-2.782-4.63-.027-1.931.986-3.727 2.653-4.705l110.22-64.827c1.634-.96 3.653-.99 5.313-.078L250.9 133.617c1.69.926 2.756 2.685 2.793 4.61.037 1.926-.96 3.724-2.614 4.714l-109.566 65.598c-1.643.983-3.685 1.02-5.362.095z"/>
        <ellipse cx="135.407" cy="134.515" fill="url(#prefix__c)" rx="115.693" ry="70.633"/>
        <path fill="#66C5FF" d="M217.896 135.586c0 2.582-3.718 6.16-5.982 4.9L102.707 77.511c-1.171-.636-1.92-1.84-1.971-3.17L99.612 5.29c-.13-2.906 5.09-6.35 7.679-4.978l105.971 56.328c2.851 1.518 4.632 4.478 4.634 7.7v71.247z"/>
        <path fill="#D2F0FF" d="M215.302 137.339c.017 1.209-.616 2.334-1.658 2.946-1.042.612-2.333.616-3.379.012L100.536 79.23c-1.167-.636-1.913-1.84-1.964-3.17l.985-70.59c-.051-1.347.62-2.62 1.762-3.336 1.14-.717 2.577-.77 3.767-.137l105.599 56.365c2.842 1.517 4.617 4.479 4.617 7.703v71.273z"/>
        <path fill="url(#prefix__d)" d="M213.227 134.363c0 1.157-.611 2.229-1.608 2.816-.997.588-2.23.603-3.241.041L102.54 78.386c-1.127-.61-1.847-1.772-1.893-3.053l.964-66.348c-.058-1.304.588-2.538 1.691-3.233 1.104-.695 2.495-.745 3.645-.13l101.817 54.313c2.742 1.46 4.454 4.316 4.452 7.424l.011 67.004z"/>
        <path fill="#66C5FF" d="M213.227 133.848c-.001 1.157-.613 2.227-1.61 2.813-.995.586-2.226.601-3.236.04L101.688 8.462c-.054-1.302.592-2.534 1.694-3.229 1.101-.694 2.49-.745 3.64-.133l101.745 54.328c2.738 1.46 4.449 4.314 4.449 7.42l.011 67z" opacity=".3"/>
        <path fill="#66C5FF" d="M144.508 181.445L35.895 122.733c-.998-.54-1.63-1.572-1.653-2.704-.025-1.131.561-2.189 1.535-2.771L96.491 80.98c2.15-1.283 4.82-1.334 7.017-.134l109.689 59.896c.646.354 1.054 1.026 1.067 1.76.014.736-.367 1.422-1 1.8l-61.76 36.991c-2.141 1.28-4.801 1.337-6.996.151z"/>
        <path fill="#D2F0FF" d="M144.508 178.848L35.895 120.143c-.998-.54-1.63-1.572-1.653-2.704-.025-1.132.561-2.19 1.535-2.772l60.714-36.283c2.15-1.283 4.82-1.334 7.017-.133l109.689 59.882c.646.355 1.054 1.027 1.067 1.762.014.735-.367 1.421-1 1.8l-61.76 37.002c-2.141 1.28-4.801 1.338-6.996.151z"/>
        <path fill="url(#prefix__e)" d="M150.109 167.477l-6.991-3.44c-1.26-.623-1.579-1.282-1.463-2.195.227-.673.56-1.307.988-1.878 0 0 2.198.754 2.863 1.072l8.506 3.859s.578 1.702-1.538 2.604l-.093.04c-.73.307-1.56.284-2.272-.062z"/>
        <path fill="#66C5FF" d="M150.098 166.935l-6.984-3.423c-2.091-1.038-1.935-3.172.26-3.994 0 0 1.461-.222 2.126.103l7.077 3.423c2.062.993 1.993 3.047-.116 3.949l-.092.04c-.734.3-1.565.264-2.27-.098z"/>
        <path fill="url(#prefix__f)" d="M137.657 160.2l-6.99-3.438c-1.261-.619-1.58-1.277-1.464-2.197.227-.671.56-1.303.99-1.873 0 0 2.197.755 2.862 1.073l8.505 3.854s.579 1.702-1.538 2.61l-.092.04c-.73.307-1.563.282-2.273-.068z"/>
        <path fill="#66C5FF" d="M137.67 159.689l-7.007-3.453c-2.092-1.03-1.936-3.162.26-3.988 0 0 1.461-.222 2.126.097l7.076 3.418c2.063.997 1.994 3.048-.115 3.949l-.092.04c-.723.303-1.544.28-2.248-.063z"/>
        <path fill="url(#prefix__g)" d="M65.026 121.262l-6.988-3.458c-1.26-.618-1.578-1.275-1.469-2.193.228-.672.564-1.303.995-1.87 0 0 2.196.747 2.861 1.07l8.503 3.85s.578 1.7-1.537 2.6l-.093.04c-.725.32-1.558.305-2.272-.04z"/>
        <path fill="#66C5FF" d="M65.019 120.732l-6.986-3.45c-2.097-1.036-1.936-3.166.26-3.986 0 0 1.462-.222 2.126.097l7.078 3.416c2.057.997 1.988 3.046-.115 3.94l-.093.04c-.727.315-1.56.294-2.27-.057z"/>
        <path fill="url(#prefix__h)" d="M126.348 153.98l-56.425-29.474c-1.224-.61-1.532-1.26-1.42-2.167.221-.663.547-1.286.965-1.847 0 0 2.127.745 2.772 1.058l8.253 3.801 49.726 26.312c-.008.338-.055.674-.14 1.002-.216.376-.503.705-.847.968-.425.296-.906.5-1.414.6-.504.059-1.015-.029-1.47-.253z"/>
        <path fill="#66C5FF" d="M126.348 153.458l-56.43-29.49c-2.03-1.014-1.874-3.11.253-3.921 0 0 1.42-.219 2.065.095l56.52 29.462c2.002.975 1.935 2.991-.113 3.876l-.09.04c-.708.302-1.514.28-2.205-.062z"/>
        <path fill="url(#prefix__i)" d="M159.52 161.246l-94.268-50.737c-1.224-.614-1.526-1.268-1.42-2.18.22-.668.545-1.295.962-1.86 0 0 2.119.744 2.762 1.065l8.223 3.825 49.55 26.479s37.965 20.574 38.015 20.81c.26.888-.147 1.837-.967 2.254-.423.297-.903.502-1.409.603-.497.057-1-.033-1.448-.26z"/>
        <path fill="#66C5FF" d="M159.584 160.73L65.25 109.97c-2.031-1.026-1.874-3.134.246-3.946 0 0 1.415-.22 2.059.096l94.412 50.726c1.992.986 1.924 3.015-.112 3.906l-.09.04c-.7.3-1.498.278-2.181-.063z"/>
        <path fill="url(#prefix__j)" d="M167.87 155.018l-55.327-29.446c-1.219-.61-2.136-2.446-2.03-3.358.04-.345.301-.623.643-.683 0 0 2.126.739 2.769 1.058l8.228 3.8 49.57 26.311c-.005.339-.052.675-.14 1.002-.212.378-.5.707-.844.969-.421.296-.9.5-1.404.599-.503.062-1.013-.026-1.466-.252z"/>
        <path fill="url(#prefix__k)" d="M146.555 143.59l-56.4-29.471c-1.222-.616-1.53-1.26-1.419-2.167.22-.662.544-1.286.96-1.847 0 0 2.13.739 2.803 1.052l8.25 3.807 49.703 26.313c-.007.337-.056.671-.146.996-.21.378-.497.707-.84.969-.424.298-.906.502-1.414.599-.513.068-1.035-.02-1.497-.252z"/>
        <path fill="#66C5FF" d="M167.867 154.494l-56.43-29.962c-2.03-1.02-1.907-2.65.225-3.447 0 0 1.42-.218 2.066.096l56.535 29.458c1.998.98 1.93 2.998-.112 3.883l-.09.04c-.706.3-1.508.275-2.194-.068z"/>
        <path fill="#66C5FF" d="M146.992 142.873l-56.834-29.317c-2.037-1.014-1.885-3.098.253-3.9 0 0 1.424-.212 2.07.1l56.503 29.562c2.008.975 1.94 2.98-.107 3.861l-.096.039c-.692.306-1.103 0-1.79-.345z"/>
        <path fill="url(#prefix__l)" d="M82.988 110.303l-11.546-6.164c-.515-.275-.336-2.255-.336-2.255l13.344-6.926c.898-.544 2.007-.579 2.936-.092l10.588 5.054s.43 2.376-.712 3.091l-11.563 7.2c-.825.516-1.854.55-2.711.092z"/>
        <path fill="#66C5FF" d="M82.992 109.263l-11.518-6.164c-.239-.127-.391-.376-.398-.65-.007-.276.132-.533.364-.672l13.01-7.858c.896-.544 2.002-.579 2.929-.091l9.74 5.093c.553.287.91.858.933 1.492.023.633-.29 1.23-.82 1.559l-11.536 7.2c-.822.517-1.85.552-2.704.09z"/>
        <path fill="url(#prefix__m)" d="M188.04 143.067L93.786 92.33c-1.219-.614-1.526-1.268-1.42-2.18.22-.668.545-1.295.962-1.86 0 0 2.124.744 2.767 1.065l8.218 3.826 49.551 26.477s37.972 20.574 38.017 20.81c.255.89-.154 1.836-.973 2.254-.423.297-.903.503-1.409.603-.5.06-1.008-.03-1.459-.26z"/>
        <path fill="#66C5FF" d="M187.578 142.555L93.264 91.792c-2.03-1.026-1.874-3.134.252-3.945 0 0 1.415-.22 2.059.095l94.403 50.724c1.997.981 1.93 3.01-.112 3.9l-.09.04c-.704.308-1.508.29-2.198-.05z"/>
        <path fill="url(#prefix__n)" d="M177.185 148.266l-56.42-29.473c-1.223-.615-1.532-1.26-1.42-2.166.222-.663.548-1.287.966-1.848 0 0 2.126.74 2.771 1.053l8.253 3.807 49.726 26.314c-.007.337-.054.671-.14.997-.215.376-.503.705-.847.968-.423.298-.905.502-1.414.6-.506.063-1.02-.025-1.475-.252z"/>
        <path fill="#66C5FF" d="M177.185 147.74l-56.424-29.486c-2.031-1.02-1.874-3.115.252-3.921 0 0 1.42-.219 2.065.1l56.52 29.452c2.003.98 1.935 2.997-.113 3.877l-.09.039c-.708.31-1.52.287-2.21-.062zM54.993 131.399l6.225-1.558"/>
        <path fill="url(#prefix__o)" d="M162.689 147.567c-23.792 17.221-68.184 17.221-94.787 0-24.373-15.774-21.757-38.708 2.286-51.453 22.294-11.815 57.565-11.815 81.798 0 26.128 12.745 32.5 35.696 10.703 51.453z"/>
        <path fill="url(#prefix__p)" d="M119.782 124.337l-19.057-9.931c-.363-.194-.591-.57-.596-.981v-3.974l18.533-6.905c.773-.335 1.655-.306 2.404.08l17.78 7.947.19 3.19c.033.695-.328 1.35-.934 1.691l-15.68 8.844c-.819.451-1.808.466-2.64.04z"/>
        <path fill="#66C5FF" d="M119.605 122.26l-17.975-9.334c-.95-.5-1.532-1.504-1.5-2.585.032-1.08.673-2.047 1.65-2.488l16.715-7.384c.766-.335 1.64-.306 2.383.079l16.15 8.404c.904.48 1.476 1.42 1.492 2.453.015 1.031-.53 1.989-1.42 2.496l-14.877 8.32c-.812.45-1.793.465-2.618.039z"/>
        <path fill="url(#prefix__q)" d="M119.782 119.663l-19.057-9.949c-.366-.187-.597-.564-.596-.976v-3.95l18.533-6.913c.772-.337 1.654-.31 2.404.073l17.78 7.957.19 3.194c.033.696-.328 1.35-.934 1.693l-15.68 8.831c-.819.452-1.808.467-2.64.04z"/>
        <path fill="#66C5FF" d="M119.593 117.58l-17.964-9.328c-.949-.5-1.531-1.503-1.5-2.583.033-1.08.674-2.046 1.65-2.487l16.704-7.385c.764-.336 1.638-.31 2.381.073l16.162 8.41c.904.48 1.477 1.419 1.493 2.45.017 1.03-.526 1.988-1.415 2.496l-14.873 8.314c-.818.46-1.808.474-2.638.04z"/>
        <path fill="url(#prefix__r)" d="M119.238 116.027l-19.065-9.926c-.354-.195-.571-.571-.563-.976v-3.976l18.53-6.908c.774-.34 1.658-.312 2.41.073l17.782 7.952.186 3.192c.034.696-.328 1.352-.935 1.692l-15.682 8.826c-.823.463-1.823.482-2.663.05z"/>
        <path fill="#66C5FF" d="M119.607 113.432l-17.98-9.33c-.949-.5-1.53-1.505-1.497-2.586.033-1.08.676-2.046 1.654-2.486l16.707-7.386c.767-.339 1.643-.312 2.388.073l16.15 8.407c.903.48 1.475 1.42 1.49 2.451.016 1.032-.529 1.989-1.418 2.496l-14.883 8.322c-.81.449-1.788.464-2.611.04z"/>
        <path fill="url(#prefix__s)" d="M119.782 112.392l-19.057-9.94c-.363-.194-.591-.57-.596-.983V97.52l18.533-6.916c.772-.337 1.654-.31 2.404.073l17.78 7.96.19 3.194c.032.695-.33 1.349-.934 1.692l-15.68 8.829c-.819.452-1.808.467-2.64.04z"/>
        <path fill="#66C5FF" d="M119.605 109.281l-17.975-9.334c-.95-.5-1.532-1.503-1.5-2.584.032-1.08.673-2.048 1.65-2.489l16.715-7.39c.766-.334 1.64-.305 2.383.08l16.15 8.404c.904.48 1.476 1.42 1.492 2.452.015 1.032-.53 1.99-1.42 2.497l-14.877 8.313c-.81.455-1.79.474-2.618.051z"/>
        <path fill="url(#prefix__t)" d="M146.732 137.324l-19.063-9.93c-.35-.203-.564-.577-.563-.982v-3.973l18.529-6.905c.773-.338 1.657-.311 2.408.074l17.78 7.953.192 3.19c.03.694-.331 1.347-.935 1.69l-15.68 8.821c-.822.469-1.825.492-2.668.062z"/>
        <path fill="#66C5FF" d="M146.585 134.208l-17.98-9.332c-.949-.5-1.53-1.505-1.497-2.586.033-1.08.675-2.047 1.653-2.486l16.708-7.388c.767-.337 1.644-.308 2.388.078l16.149 8.403c.904.48 1.476 1.42 1.491 2.452.015 1.032-.529 1.989-1.418 2.496l-14.877 8.318c-.811.453-1.792.47-2.617.045z"/>
        <path fill="url(#prefix__u)" d="M146.732 132.65l-19.063-9.932c-.35-.202-.564-.577-.563-.981v-3.974l18.528-6.905c.775-.337 1.659-.308 2.41.078l17.779 7.949.191 3.19c.033.695-.329 1.35-.934 1.691l-15.68 8.822c-.823.469-1.825.492-2.668.062z"/>
        <path fill="#66C5FF" d="M146.599 130.057l-17.994-9.328c-.949-.5-1.53-1.505-1.497-2.586.033-1.08.675-2.047 1.653-2.487l16.705-7.39c.766-.343 1.644-.316 2.388.074l16.147 8.404c.907.48 1.481 1.422 1.496 2.455.015 1.034-.531 1.993-1.423 2.5l-14.875 8.313c-.807.447-1.78.464-2.6.045z"/>
        <path fill="url(#prefix__v)" d="M146.241 128.489l-19.057-9.943c-.363-.193-.591-.57-.597-.982v-3.95l18.534-6.912c.773-.336 1.655-.307 2.403.079l17.78 7.956.191 3.194c.033.696-.329 1.35-.934 1.693l-15.68 8.831c-.82.45-1.809.463-2.64.034z"/>
        <path fill="#66C5FF" d="M146.582 125.9l-17.974-9.33c-.95-.5-1.533-1.504-1.5-2.584.032-1.08.673-2.048 1.65-2.488l16.713-7.394c.766-.334 1.64-.306 2.383.08l16.15 8.401c.904.48 1.477 1.42 1.493 2.45.016 1.032-.527 1.99-1.416 2.498L149.2 125.85c-.81.455-1.79.474-2.617.05z"/>
        <path fill="url(#prefix__w)" d="M146.732 124.343l-19.063-9.936c-.348-.202-.562-.573-.563-.975v-3.98l18.528-6.898c.773-.343 1.66-.317 2.41.073l17.779 7.947.191 3.19c.033.695-.329 1.35-.934 1.69l-15.68 8.821c-.822.47-1.824.496-2.668.068z"/>
        <path fill="#66C5FF" d="M146.585 122.262l-17.98-9.33c-.949-.501-1.53-1.505-1.497-2.586.033-1.08.675-2.046 1.653-2.486l16.708-7.387c.766-.339 1.643-.312 2.388.073l16.149 8.407c.904.48 1.476 1.42 1.491 2.452.015 1.031-.529 1.989-1.418 2.495l-14.877 8.317c-.811.453-1.792.47-2.617.045z"/>
        <path fill="url(#prefix__x)" d="M93.324 137.332l-19.063-9.935c-.36-.195-.587-.57-.591-.98v-3.976l18.528-6.907c.773-.338 1.658-.311 2.409.074l17.78 7.955.191 3.192c.03.694-.33 1.347-.934 1.691l-15.68 8.824c-.816.458-1.805.482-2.64.062z"/>
        <path fill="#66C5FF" d="M93.148 134.205l-17.98-9.333c-.948-.5-1.53-1.506-1.497-2.586.033-1.081.676-2.047 1.654-2.487l16.707-7.383c.768-.337 1.644-.308 2.388.079l16.15 8.403c.904.48 1.476 1.421 1.49 2.453.016 1.031-.528 1.989-1.418 2.496l-14.877 8.319c-.812.45-1.792.466-2.617.039z"/>
        <path fill="url(#prefix__y)" d="M93.048 132.645l-18.823-9.93c-.345-.202-.557-.576-.555-.98v-3.974l18.266-6.903c.765-.337 1.638-.308 2.379.078l17.555 7.947.189 3.19c.032.695-.325 1.349-.922 1.69l-15.477 8.843c-.81.453-1.79.468-2.612.04z"/>
        <path fill="#66C5FF" d="M93.145 130.049l-17.977-9.327c-.948-.5-1.53-1.505-1.497-2.586.033-1.08.676-2.047 1.654-2.486l16.705-7.383c.765-.344 1.644-.317 2.388.073l16.147 8.403c.906.48 1.48 1.421 1.496 2.455.015 1.034-.532 1.993-1.424 2.499l-14.87 8.312c-.812.453-1.795.468-2.622.04z"/>
        <path fill="url(#prefix__z)" d="M93.307 128.484l-19.04-9.94c-.363-.194-.592-.57-.597-.982v-3.95l18.534-6.91c.772-.336 1.654-.307 2.403.079l17.78 7.954.19 3.194c.033.695-.328 1.35-.934 1.692l-15.68 8.83c-.824.456-1.82.468-2.656.033z"/>
        <path fill="#66C5FF" d="M93.131 125.893l-17.96-9.328c-.95-.5-1.532-1.503-1.5-2.583.032-1.08.673-2.046 1.65-2.487l16.728-7.39c.766-.335 1.64-.307 2.381.078l16.138 8.4c.904.478 1.476 1.418 1.493 2.449.016 1.03-.527 1.988-1.415 2.496l-14.872 8.315c-.817.464-1.81.483-2.643.05z"/>
        <path fill="url(#prefix__A)" d="M93.324 124.361l-19.063-9.934c-.36-.194-.585-.567-.591-.975v-3.978l18.528-6.92c.772-.343 1.659-.317 2.409.073l17.78 7.945.19 3.19c.033.695-.328 1.348-.934 1.69l-15.68 8.819c-.81.467-1.8.5-2.64.09z"/>
        <path fill="#66C5FF" d="M93.148 122.26l-17.98-9.333c-.948-.5-1.53-1.505-1.497-2.585.033-1.08.676-2.047 1.654-2.487l16.707-7.382c.767-.339 1.643-.312 2.388.073l16.15 8.408c.904.48 1.476 1.421 1.49 2.453.016 1.031-.528 1.988-1.418 2.495l-14.877 8.318c-.812.451-1.792.466-2.617.04z"/>
        <path fill="url(#prefix__B)" d="M122.382 151.878l-19.063-9.94c-.366-.187-.597-.564-.596-.976v-3.975l18.533-6.907c.773-.343 1.659-.316 2.41.074l17.779 7.95.185 3.19c.035.697-.327 1.352-.934 1.692l-15.68 8.824c-.813.459-1.8.484-2.634.068z"/>
        <path fill="#66C5FF" d="M122.2 149.27l-17.979-9.331c-.949-.5-1.53-1.505-1.497-2.585.033-1.08.676-2.047 1.654-2.487l16.707-7.387c.767-.339 1.643-.312 2.388.073l16.15 8.408c.903.48 1.475 1.42 1.49 2.452.016 1.031-.529 1.988-1.418 2.495l-14.883 8.318c-.809.45-1.787.468-2.611.045z"/>
        <path fill="url(#prefix__C)" d="M122.38 147.207l-19.066-9.934c-.361-.195-.587-.57-.591-.981v-3.975l18.53-6.917c.775-.337 1.659-.308 2.41.079l17.782 7.949.185 3.19c.035.697-.327 1.352-.934 1.692l-15.683 8.823c-.811.46-1.798.488-2.634.074z"/>
        <path fill="#66C5FF" d="M122.2 144.596l-17.979-9.332c-.949-.5-1.53-1.505-1.497-2.586.033-1.08.676-2.047 1.654-2.487l16.707-7.388c.767-.337 1.644-.308 2.388.079l16.15 8.403c.903.48 1.475 1.42 1.49 2.452.016 1.032-.529 1.989-1.418 2.496l-14.883 8.318c-.809.451-1.787.468-2.611.045z"/>
        <path fill="url(#prefix__D)" d="M121.858 143.031l-19.063-9.942c-.36-.195-.587-.571-.591-.982v-3.95l18.528-6.912c.774-.337 1.658-.308 2.409.079l17.78 7.956.191 3.194c.03.695-.33 1.35-.934 1.693l-15.68 8.83c-.82.45-1.81.463-2.64.034z"/>
        <path fill="#66C5FF" d="M122.2 140.96l-17.979-9.333c-.949-.5-1.53-1.505-1.497-2.585.033-1.08.676-2.047 1.654-2.487l16.707-7.388c.767-.336 1.644-.308 2.388.08l16.15 8.402c.903.48 1.475 1.42 1.49 2.452.016 1.031-.529 1.989-1.418 2.496l-14.877 8.317c-.81.453-1.791.47-2.617.045z"/>
        <path fill="url(#prefix__E)" d="M122.382 139.41l-19.063-9.936c-.363-.193-.591-.57-.596-.98v-3.977l18.533-6.908c.774-.337 1.659-.308 2.41.08l17.779 7.95.185 3.192c.035.697-.327 1.352-.934 1.692l-15.68 8.826c-.814.456-1.8.48-2.634.062z"/>
        <path fill="#66C5FF" d="M122.187 136.798l-17.967-9.327c-.948-.5-1.53-1.504-1.496-2.584.033-1.08.675-2.045 1.653-2.485l16.695-7.384c.765-.343 1.643-.316 2.387.074l16.137 8.397c.915.473 1.497 1.415 1.517 2.452.02 1.038-.526 2.002-1.422 2.51l-14.872 8.307c-.815.457-1.803.472-2.632.04z"/>
    </g>
</svg>
