<svg xmlns="http://www.w3.org/2000/svg" width="879" height="652" viewBox="0 0 879 652">
    <defs>
        <linearGradient id="prefix__a" x1="35.282%" x2="171.267%" y1="-17.782%" y2="118.203%">
            <stop offset="3%" stop-color="#03B2FF"/>
            <stop offset="70%" stop-color="#071492"/>
        </linearGradient>
        <linearGradient id="prefix__b" x1="0%" x2="100%" y1="50.002%" y2="50.002%">
            <stop offset="3%" stop-color="#03B2FF"/>
            <stop offset="70%" stop-color="#071492"/>
        </linearGradient>
        <linearGradient id="prefix__c" x1="50.078%" x2="49.682%" y1="34.653%" y2="73.302%">
            <stop offset="12%" stop-color="#041362" stop-opacity="0"/>
            <stop offset="58%" stop-color="#0A4294"/>
            <stop offset="88%" stop-color="#FFF"/>
        </linearGradient>
        <linearGradient id="prefix__d" x1=".004%" x2="100.001%" y1="49.998%" y2="49.998%">
            <stop offset="46%" stop-color="#030354"/>
            <stop offset="100%" stop-color="#008DE5"/>
        </linearGradient>
        <linearGradient id="prefix__e" x1="1.795%" x2="101.344%" y1="52.345%" y2="50.75%">
            <stop offset="0%" stop-color="#F67C4C"/>
            <stop offset="100%" stop-color="#DD3A35"/>
        </linearGradient>
        <linearGradient id="prefix__f" x1=".001%" x2="100.018%" y1="49.986%" y2="49.986%">
            <stop offset="0%" stop-color="#FFC091"/>
            <stop offset="100%" stop-color="#DD3A35"/>
        </linearGradient>
        <linearGradient id="prefix__g" x1="-35.889%" x2="203.353%" y1="50%" y2="50%">
            <stop offset="0%" stop-color="#912623"/>
            <stop offset="48%" stop-color="#F67C4C"/>
        </linearGradient>
        <linearGradient id="prefix__h" x1=".144%" x2="100.139%" y1="50.117%" y2="50.117%">
            <stop offset="0%" stop-color="#912623"/>
            <stop offset="48%" stop-color="#F67C4C"/>
        </linearGradient>
        <linearGradient id="prefix__i" x1=".142%" x2="100.201%" y1="-1163.588%" y2="-1163.588%">
            <stop offset="0%" stop-color="#FFC091"/>
            <stop offset="100%" stop-color="#DD3A35"/>
        </linearGradient>
        <linearGradient id="prefix__j" x1=".001%" x2="100%" y1="49.996%" y2="49.996%">
            <stop offset="3%" stop-color="#03B2FF"/>
            <stop offset="70%" stop-color="#071492"/>
        </linearGradient>
        <linearGradient id="prefix__k" x1="37.235%" x2="53.018%" y1="-70.35%" y2="-119.755%">
            <stop offset="46%" stop-color="#030354"/>
            <stop offset="100%" stop-color="#008DE5"/>
        </linearGradient>
        <linearGradient id="prefix__l" x1="-1174.926%" x2="-981.985%" y1="1341.838%" y2="1341.838%">
            <stop offset="3%" stop-color="#03B2FF"/>
            <stop offset="70%" stop-color="#071492"/>
        </linearGradient>
        <linearGradient id="prefix__m" x1=".001%" x2="100%" y1="49.988%" y2="49.988%">
            <stop offset="3%" stop-color="#03B2FF"/>
            <stop offset="70%" stop-color="#071492"/>
        </linearGradient>
        <linearGradient id="prefix__n" x1="39.332%" x2="53.028%" y1="20.116%" y2="56.672%">
            <stop offset="62%" stop-color="#030354"/>
            <stop offset="100%" stop-color="#008DE5"/>
        </linearGradient>
        <linearGradient id="prefix__o" x1="50.087%" x2="49.895%" y1="96.067%" y2="-6.498%">
            <stop offset="5%" stop-color="#310462" stop-opacity="0"/>
            <stop offset="81%" stop-color="#3A2DA1"/>
        </linearGradient>
        <linearGradient id="prefix__p" x1="534.772%" x2="534.772%" y1="-10.158%" y2="91.164%">
            <stop offset="0%" stop-color="#310462"/>
            <stop offset="100%" stop-color="#3A2DA1" stop-opacity="0"/>
        </linearGradient>
        <linearGradient id="prefix__q" x1="-.185%" x2="99.12%" y1="50%" y2="50%">
            <stop offset="0%" stop-color="#7F45DE"/>
            <stop offset="100%" stop-color="#DD3A35"/>
        </linearGradient>
        <linearGradient id="prefix__r" x1="451.527%" x2="451.527%" y1="63.037%" y2="0%">
            <stop offset="0%" stop-color="#310462" stop-opacity="0"/>
            <stop offset="100%" stop-color="#3A2DA1"/>
        </linearGradient>
        <linearGradient id="prefix__s" x1="401.653%" x2="401.653%" y1="69.019%" y2="-4.009%">
            <stop offset="0%" stop-color="#310462" stop-opacity="0"/>
            <stop offset="100%" stop-color="#3A2DA1"/>
        </linearGradient>
        <linearGradient id="prefix__t" x1=".231%" x2="99.537%" y1="7063.889%" y2="7063.889%">
            <stop offset="0%" stop-color="#7F45DE"/>
            <stop offset="100%" stop-color="#DD3A35"/>
        </linearGradient>
        <linearGradient id="prefix__u" x1=".001%" x2="100%" y1="-132.934%" y2="-132.934%">
            <stop offset="0%" stop-color="#FFC091"/>
            <stop offset="100%" stop-color="#DD3A35"/>
        </linearGradient>
        <linearGradient id="prefix__v" x1="39.332%" x2="53.028%" y1="58.794%" y2="22.273%">
            <stop offset="0%" stop-color="#FFC091"/>
            <stop offset="100%" stop-color="#DD3A35"/>
        </linearGradient>
        <linearGradient id="prefix__w" x1="-991.515%" x2="-798.788%" y1="852.235%" y2="852.235%">
            <stop offset="3%" stop-color="#03B2FF"/>
            <stop offset="70%" stop-color="#071492"/>
        </linearGradient>
        <linearGradient id="prefix__x" x1="-2169.219%" x2="-1975.313%" y1="2003.438%" y2="2003.438%">
            <stop offset="3%" stop-color="#03B2FF"/>
            <stop offset="70%" stop-color="#071492"/>
        </linearGradient>
        <linearGradient id="prefix__y" x1="49.421%" x2="49.421%" y1="31.411%" y2="100%">
            <stop offset="0%" stop-color="#F67C4C" stop-opacity="0"/>
            <stop offset="58%" stop-color="#F67C4C"/>
            <stop offset="100%" stop-color="#DD3A35"/>
        </linearGradient>
        <linearGradient id="prefix__z" x1="455.112%" x2="455.112%" y1="91.825%" y2="15.274%">
            <stop offset="0%" stop-color="#310462" stop-opacity="0"/>
            <stop offset="100%" stop-color="#3A2DA1"/>
        </linearGradient>
        <linearGradient id="prefix__A" x1="52.109%" x2="52.464%" y1="87.588%" y2="-16.218%">
            <stop offset="0%" stop-color="#310462" stop-opacity="0"/>
            <stop offset="100%" stop-color="#3A2DA1"/>
        </linearGradient>
        <linearGradient id="prefix__B" x1="-.139%" x2="99.397%" y1="10201.389%" y2="10201.389%">
            <stop offset="0%" stop-color="#7F45DE"/>
            <stop offset="100%" stop-color="#DD3A35"/>
        </linearGradient>
        <linearGradient id="prefix__C" x1="39.341%" x2="53.041%" y1="33.065%" y2="-4.515%">
            <stop offset="46%" stop-color="#030354"/>
            <stop offset="100%" stop-color="#008DE5"/>
        </linearGradient>
        <linearGradient id="prefix__D" x1=".254%" x2="192.458%" y1="50%" y2="50%">
            <stop offset="3%" stop-color="#03B2FF"/>
            <stop offset="70%" stop-color="#071492"/>
        </linearGradient>
        <linearGradient id="prefix__E" x1=".001%" x2="100%" y1="49.993%" y2="49.993%">
            <stop offset="3%" stop-color="#03B2FF"/>
            <stop offset="70%" stop-color="#071492"/>
        </linearGradient>
        <linearGradient id="prefix__F" x1="39.332%" x2="53.028%" y1="34.361%" y2="-2.194%">
            <stop offset="46%" stop-color="#030354"/>
            <stop offset="100%" stop-color="#008DE5"/>
        </linearGradient>
        <linearGradient id="prefix__G" x1=".001%" x2="100%" y1="49.985%" y2="49.985%">
            <stop offset="3%" stop-color="#03B2FF"/>
            <stop offset="70%" stop-color="#071492"/>
        </linearGradient>
        <linearGradient id="prefix__H" x1="39.79%" x2="52.78%" y1="44.263%" y2="9.367%">
            <stop offset="46%" stop-color="#030354"/>
            <stop offset="100%" stop-color="#008DE5"/>
        </linearGradient>
        <linearGradient id="prefix__I" x1=".001%" x2="100%" y1="49.993%" y2="49.993%">
            <stop offset="3%" stop-color="#03B2FF"/>
            <stop offset="70%" stop-color="#071492"/>
        </linearGradient>
        <linearGradient id="prefix__J" x1="39.79%" x2="52.78%" y1="56.919%" y2="22.058%">
            <stop offset="46%" stop-color="#030354"/>
            <stop offset="100%" stop-color="#008DE5"/>
        </linearGradient>
        <linearGradient id="prefix__K" x1=".001%" x2="100%" y1="49.992%" y2="49.992%">
            <stop offset="3%" stop-color="#03B2FF"/>
            <stop offset="70%" stop-color="#071492"/>
        </linearGradient>
        <linearGradient id="prefix__L" x1="39.576%" x2="52.915%" y1="69.475%" y2="32.985%">
            <stop offset="46%" stop-color="#030354"/>
            <stop offset="100%" stop-color="#008DE5"/>
        </linearGradient>
        <linearGradient id="prefix__M" x1=".001%" x2="100%" y1="49.988%" y2="49.988%">
            <stop offset="3%" stop-color="#03B2FF"/>
            <stop offset="70%" stop-color="#071492"/>
        </linearGradient>
        <linearGradient id="prefix__N" x1="39.649%" x2="52.874%" y1="82.284%" y2="45.808%">
            <stop offset="0%" stop-color="#FFC091"/>
            <stop offset="100%" stop-color="#DD3A35"/>
        </linearGradient>
        <linearGradient id="prefix__O" x1="39.79%" x2="52.78%" y1="83.346%" y2="48.485%">
            <stop offset="46%" stop-color="#030354"/>
            <stop offset="100%" stop-color="#008DE5"/>
        </linearGradient>
        <linearGradient id="prefix__P" x1="0%" x2="192.459%" y1="50%" y2="50%">
            <stop offset="3%" stop-color="#03B2FF"/>
            <stop offset="70%" stop-color="#071492"/>
        </linearGradient>
        <linearGradient id="prefix__Q" x1="451.527%" x2="451.527%" y1="79.176%" y2="0%">
            <stop offset="0%" stop-color="#310462" stop-opacity="0"/>
            <stop offset="100%" stop-color="#3A2DA1"/>
        </linearGradient>
        <linearGradient id="prefix__R" x1="456.547%" x2="456.547%" y1="93.111%" y2="-22.418%">
            <stop offset="0%" stop-color="#310462" stop-opacity="0"/>
            <stop offset="100%" stop-color="#3A2DA1"/>
        </linearGradient>
        <linearGradient id="prefix__S" x1="0%" x2="99.306%" y1="11913.889%" y2="11913.889%">
            <stop offset="0%" stop-color="#7F45DE"/>
            <stop offset="100%" stop-color="#DD3A35"/>
        </linearGradient>
        <linearGradient id="prefix__T" x1="49.387%" x2="49.387%" y1="22.547%" y2="101.21%">
            <stop offset="0%" stop-color="#F67C4C" stop-opacity="0"/>
            <stop offset="58%" stop-color="#F67C4C"/>
            <stop offset="100%" stop-color="#DD3A35"/>
        </linearGradient>
        <linearGradient id="prefix__U" x1="0%" x2="300.194%" y1="50%" y2="50%">
            <stop offset="4%"/>
            <stop offset="31%" stop-color="#041362" stop-opacity="0"/>
        </linearGradient>
        <linearGradient id="prefix__V" x1="50.1%" x2="49.897%" y1="-66.328%" y2="167.4%">
            <stop offset="25%" stop-color="#0056AA" stop-opacity="0"/>
            <stop offset="58%" stop-color="#2FABF5"/>
            <stop offset="74%" stop-color="#1B42AB"/>
        </linearGradient>
        <linearGradient id="prefix__W" x1="50.32%" x2="49.78%" y1="-122.853%" y2="184.255%">
            <stop offset="41%" stop-color="#0056AA" stop-opacity="0"/>
            <stop offset="58%" stop-color="#2FABF5"/>
            <stop offset="73%" stop-color="#1B42AB"/>
        </linearGradient>
        <linearGradient id="prefix__X" x1="50.506%" x2="49.666%" y1="-87.125%" y2="174.161%">
            <stop offset="32%" stop-color="#0056AA" stop-opacity="0"/>
            <stop offset="58%" stop-color="#2FABF5"/>
            <stop offset="88%" stop-color="#1B42AB"/>
        </linearGradient>
        <linearGradient id="prefix__Y" x1="-74.836%" x2="157.324%" y1="50.01%" y2="50.01%">
            <stop offset="12%" stop-color="#F67C4C" stop-opacity="0"/>
            <stop offset="58%" stop-color="#F67C4C"/>
            <stop offset="80%" stop-color="#9C2925"/>
        </linearGradient>
        <linearGradient id="prefix__Z" x1="3.746%" x2="101.549%" y1="47.956%" y2="59.395%">
            <stop offset="12%" stop-color="#F67C4C" stop-opacity="0"/>
            <stop offset="58%" stop-color="#F67C4C"/>
            <stop offset="88%" stop-color="#9C2925"/>
        </linearGradient>
        <linearGradient id="prefix__aa" x1="-.301%" x2="99.699%" y1="49.988%" y2="49.988%">
            <stop offset="12%" stop-color="#F67C4C" stop-opacity="0"/>
            <stop offset="58%" stop-color="#F67C4C"/>
            <stop offset="88%" stop-color="#9C2925"/>
        </linearGradient>
        <linearGradient id="prefix__ab" x1=".301%" x2="100.301%" y1="925.638%" y2="925.638%">
            <stop offset="12%" stop-color="#F67C4C" stop-opacity="0"/>
            <stop offset="58%" stop-color="#F67C4C"/>
            <stop offset="88%" stop-color="#DD3A35"/>
        </linearGradient>
        <linearGradient id="prefix__ac" x1="3.588%" x2="101.39%" y1="47.93%" y2="59.369%">
            <stop offset="12%" stop-color="#F67C4C" stop-opacity="0"/>
            <stop offset="58%" stop-color="#F67C4C"/>
            <stop offset="88%" stop-color="#DD3A35"/>
        </linearGradient>
        <linearGradient id="prefix__ad" x1="-75.211%" x2="156.901%" y1="820.476%" y2="820.476%">
            <stop offset="12%" stop-color="#F67C4C" stop-opacity="0"/>
            <stop offset="58%" stop-color="#F67C4C"/>
            <stop offset="80%" stop-color="#9C2925"/>
        </linearGradient>
        <linearGradient id="prefix__ae" x1="0%" x2="100%" y1="50.017%" y2="50.017%">
            <stop offset="0%" stop-color="#FFC091"/>
            <stop offset="100%" stop-color="#DD3A35"/>
        </linearGradient>
        <linearGradient id="prefix__af" x1="22.401%" x2="120.441%" y1="46.324%" y2="56.567%">
            <stop offset="0%" stop-color="#D64C21"/>
            <stop offset="45%" stop-color="#F67C4C" stop-opacity="0"/>
        </linearGradient>
        <linearGradient id="prefix__ag" x1="11.09%" x2="115.366%" y1="72.966%" y2="20.268%">
            <stop offset="0%" stop-color="#FFC091"/>
            <stop offset="100%" stop-color="#DD3A35"/>
        </linearGradient>
        <linearGradient id="prefix__ah" x1="61.818%" x2="-32.539%" y1="35.735%" y2="143.232%">
            <stop offset="18%" stop-color="#DDE3E9"/>
            <stop offset="40%" stop-color="#888C8F"/>
        </linearGradient>
        <linearGradient id="prefix__ai" x1="40.645%" x2="71.424%" y1="38.423%" y2="70.865%">
            <stop offset="27%" stop-color="#DDE3E9" stop-opacity="0"/>
            <stop offset="59%" stop-color="#888C8F"/>
        </linearGradient>
        <linearGradient id="prefix__aj" x1="51.075%" x2="48.28%" y1="-70.038%" y2="355.423%">
            <stop offset="12%" stop-color="#0056AA" stop-opacity="0"/>
            <stop offset="44%" stop-color="#2FABF5"/>
            <stop offset="88%" stop-color="#1B42AB"/>
        </linearGradient>
        <linearGradient id="prefix__ak" x1="-128.573%" x2="289.631%" y1="73.924%" y2="16.187%">
            <stop offset="12%" stop-color="#412762"/>
            <stop offset="53%" stop-color="#B261FF"/>
        </linearGradient>
        <linearGradient id="prefix__al" x1="-.254%" x2="100%" y1="49.743%" y2="49.743%">
            <stop offset="12%" stop-color="#412762"/>
            <stop offset="53%" stop-color="#B261FF"/>
        </linearGradient>
        <linearGradient id="prefix__am" x1="44.158%" x2="66.774%" y1="-24.192%" y2="249.654%">
            <stop offset="12%" stop-color="#0056AA" stop-opacity="0"/>
            <stop offset="58%" stop-color="#2FABF5"/>
            <stop offset="88%" stop-color="#1B42AB"/>
        </linearGradient>
        <linearGradient id="prefix__an" x1="-7.401%" x2="98.751%" y1="84.59%" y2="18.638%">
            <stop offset="12%" stop-color="#412762"/>
            <stop offset="53%" stop-color="#B261FF"/>
        </linearGradient>
        <linearGradient id="prefix__ao" x1="-15.634%" x2="84.197%" y1="136.796%" y2="13.917%">
            <stop offset="12%" stop-color="#041362" stop-opacity="0"/>
            <stop offset="58%" stop-color="#0A4294"/>
            <stop offset="88%" stop-color="#FFF"/>
        </linearGradient>
        <linearGradient id="prefix__ap" x1="0%" x2="100%" y1="50.007%" y2="50.007%">
            <stop offset="0%" stop-color="#FFC091"/>
            <stop offset="100%" stop-color="#DD3A35"/>
        </linearGradient>
        <linearGradient id="prefix__aq" x1="0%" x2="100.046%" y1="49.955%" y2="49.955%">
            <stop offset="0%" stop-color="#FFC091"/>
            <stop offset="100%" stop-color="#DD3A35"/>
        </linearGradient>
        <linearGradient id="prefix__ar" x1="-6.165%" x2="125.411%" y1="48.818%" y2="52.063%">
            <stop offset="13%" stop-color="#1F28CF" stop-opacity="0"/>
            <stop offset="80%" stop-color="#030354"/>
        </linearGradient>
        <linearGradient id="prefix__as" x1="21.037%" x2="228.732%" y1="34.741%" y2="140.44%">
            <stop offset="0%" stop-color="#FFF"/>
            <stop offset="97%"/>
        </linearGradient>
        <linearGradient id="prefix__at" x1="40.924%" x2="62.692%" y1="56.831%" y2="41.467%">
            <stop offset="34%" stop-color="#FFF" stop-opacity="0"/>
            <stop offset="47%"/>
        </linearGradient>
    </defs>
    <g fill="none" fill-rule="evenodd" transform="translate(0 -4)">
        <path fill="#251BA8" fill-rule="nonzero" stroke="#FFF" d="M375.323 258.034l-239.64 81.713c-7.084 2.426-14.907 1.288-20.998-3.056-6.092-4.344-9.7-11.357-9.685-18.824V79.983c-.009-10.89 7.585-20.317 18.253-22.66l239.64-51.797c6.866-1.485 14.037.213 19.5 4.617 5.462 4.405 8.627 11.04 8.607 18.044v207.967c.017 9.889-6.288 18.689-15.677 21.88h0z" opacity=".5"/>
        <circle cx="223" cy="243" r="4" fill="url(#prefix__a)" fill-rule="nonzero"/>
        <path stroke="#3E97CE" stroke-width="2" d="M450.385 607.973L95.334 453.503c-17.697-7.702-15.916-33.26 2.56-38.618l333.57-95.093c12.122-3.436 24.92-3.705 37.175-.781l393.673 95.65c19.144 4.689 21.37 31.029 3.34 38.842l-357.39 154.47c-18.46 8.036-39.417 8.036-57.877 0h0z"/>
        <path stroke="#FFF" stroke-width="2" d="M438.385 648.961L83.334 494.55c-17.697-7.704-15.916-33.272 2.56-38.631l333.57-95.126c12.122-3.438 24.92-3.707 37.175-.781l393.673 95.684c19.144 4.689 21.37 31.038 3.34 38.854L496.372 649.073c-18.526 7.941-39.491 7.9-57.988-.112z"/>
        <path fill="url(#prefix__b)" fill-rule="nonzero" d="M434.203 567.959L81.117 414.054c-6.154-2.681-10.13-8.779-10.117-15.513v-41.964c.034-3.297 2.345-6.128 5.559-6.808l338.745-69.977c12.108-3.436 24.89-3.705 37.131-.781l402.114 59.263c6.58.945 11.463 6.608 11.451 13.28v39.844c.001 7.99-4.713 15.22-12.007 18.415l-361.98 158.258c-18.465 7.944-39.375 7.904-57.81-.112z"/>
        <path fill="#B0E1FF" fill-rule="nonzero" d="M438.385 524.972L83.334 370.84c-17.697-7.684-15.916-33.188 2.56-38.533l333.57-81.52c12.122-3.43 24.92-3.698 37.175-.78l393.673 82.077c19.144 4.678 21.37 30.96 3.34 38.756l-357.39 154.243c-18.487 7.928-39.42 7.887-57.877-.111z"/>
        <path fill="#66C5FF" fill-rule="nonzero" d="M435.385 523.883L80.334 368.55c-17.697-7.744-15.916-33.445 2.56-38.833l333.57-79.91c12.122-3.456 24.92-3.726 37.175-.786l393.673 80.472c19.144 4.714 21.37 31.2 3.34 39.057l-357.39 155.444c-18.475 8.045-39.432 8.005-57.877-.112z"/>
        <path fill="url(#prefix__c)" fill-rule="nonzero" d="M870 358.583L496.803 524.501c-15.662 7.093-33.585 7.334-49.433.666L99 373.122V0l362.175 147.162L870 1.332v357.251z" opacity=".35"/>
        <path fill="#1F28CF" d="M510.891 368L493 455 500.419 455 513.441 418.081 532 368z"/>
        <path fill="#2B44FF" d="M512 364c4.587 16.799 13.388 44.938 15.133 47.992 1.178 2.044 13.186 10.713 36.026 26.008l3.841-6.77c-19.248-15.902-29.029-24.214-29.344-24.936-.471-1.14-.318-24.743-.526-42.294H512z"/>
        <path fill="#191847" d="M573.414 437.85l-.616-.494-2.746 4.385L560.231 453l-1.231-.998c2.542-4.956 4.18-10.296 4.842-15.786l5.424-6.216 6.734 4.922-2.586 2.927zM499.238 458v-.754l-4.906.754H480v-1.54c5.235-1.282 10.21-3.468 14.706-6.46h7.92l.374 7.978-3.762.022z"/>
        <path fill="url(#prefix__d)" fill-rule="nonzero" d="M425.164 452.15l45.325 10.999c11.29-10.91 7.645-23.667-8.978-31.455-19.013-8.925-50.393-8.925-72.605 0-23.913 9.647-30.836 26.857-12.446 38.668 13.868 8.925 36.97 11.63 58.038 8.204l-9.334-26.417z" opacity=".59"/>
        <path fill="url(#prefix__e)" fill-rule="nonzero" d="M429.201 451.963l37.398 7.366c2.662-2.458 4.516-5.689 5.309-9.255.073-.37.103-.747.088-1.124L471.29 427s-9.292 7.377-11.858 6.207c-17.156-7.376-45.35-4.768-64.751 3.868-7.433 3.374-21.68-.54-21.68-.54l.62 17.992c.159 5.351 2.538 10.384 6.548 13.854 1.446 1.256 2.976 2.41 4.579 3.452 12.565 7.466 34.29 8.906 52.905 5.217l-3.318-22.04-5.133-3.047z"/>
        <path fill="url(#prefix__f)" fill-rule="nonzero" d="M425.804 430.706l40.436 9.932c10-9.932 6.756-21.52-8-28.602-16.968-8.048-44.97-8.048-64.782 0-21.335 8.737-27.557 24.464-11.112 35.224 12.356 8.048 32.969 10.565 51.725 7.438l-8.267-23.992z"/>
        <path fill="url(#prefix__g)" fill-rule="nonzero" d="M470 458L435.756 449.963 428 428 470 438.093z"/>
        <path fill="url(#prefix__h)" fill-rule="nonzero" d="M476.373 473.945c-8.078 3.396-16.615 5.605-25.34 6.557L441 454v17.076c.02.385.081.767.184 1.139l9.02 23.212c.417 1.068 1.525 1.71 2.672 1.548 4.423-.728 15.388-2.732 23.313-6.637 5.99-3.005 12.348-9.927 12.348-9.927l.46-15.664c.093.09-2.58 4.827-12.624 9.198z"/>
        <path fill="url(#prefix__i)" fill-rule="nonzero" d="M450.024 481.792l-8.933-23.06c-.186-.448-.083-.953.267-1.309.35-.356.887-.503 1.393-.38l44.8 9.798c.711.188 1.25.72 1.405 1.382.154.662-.102 1.348-.666 1.786-4.31 3.168-9.092 5.757-14.2 7.687-7.108 2.372-14.438 4.139-21.9 5.279-.94.145-1.858-.355-2.166-1.183z"/>
        <path fill="url(#prefix__j)" fill-rule="nonzero" d="M665.981 547.14l-51.53-22.318c-.902-.366-1.48-1.252-1.45-2.221v-6.107c.025-.463.337-.86.78-1l49.412-10.103c1.785-.48 3.662-.519 5.465-.111l58.669 8.55c.954.122 1.67.93 1.673 1.887v5.774c0 1.165-.704 2.216-1.785 2.664l-52.757 22.873c-2.676 1.256-5.768 1.297-8.477.111z"/>
        <path fill="#B0E1FF" fill-rule="nonzero" d="M666.568 542.15l-51.766-22.383c-1.153-.491-1.872-1.652-1.797-2.901.075-1.249.929-2.316 2.132-2.666l48.642-13.808c1.786-.482 3.663-.52 5.467-.111l57.456 13.919c1.263.304 2.187 1.384 2.289 2.677.101 1.293-.642 2.505-1.843 3.002l-52.1 22.381c-2.741 1.024-5.767.984-8.48-.11z"/>
        <path fill="url(#prefix__k)" fill-rule="nonzero" d="M666.568 542.144l-51.766-22.525c-1.153-.495-1.872-1.664-1.797-2.92.075-1.257.929-2.331 2.132-2.684l48.642-20.62c1.786-.485 3.663-.524 5.467-.113l57.456 20.733c1.263.306 2.187 1.394 2.289 2.695.101 1.302-.642 2.52-1.843 3.02l-52.1 22.526c-2.741 1.03-5.767.99-8.48-.112z"/>
        <circle cx="78" cy="244" r="15" fill="url(#prefix__l)" fill-rule="nonzero"/>
        <path fill="url(#prefix__m)" fill-rule="nonzero" d="M52.981 395.18l-51.53-22.317c-.902-.366-1.48-1.252-1.45-2.221v-6.107c.025-.462.337-.86.78-1l49.412-10.103c1.777-.536 3.668-.574 5.465-.111l58.669 8.55c.954.122 1.67.93 1.673 1.887v5.774c0 1.165-.704 2.216-1.785 2.664L61.458 395.07c-2.689 1.202-5.757 1.242-8.477.11z"/>
        <path fill="#B0E1FF" fill-rule="nonzero" d="M53.568 391.068L1.802 368.729c-1.153-.49-1.872-1.65-1.797-2.896.075-1.246.929-2.311 2.132-2.66l48.642-13.782c1.786-.48 3.663-.519 5.467-.11l57.456 13.891c1.263.304 2.187 1.382 2.289 2.673.101 1.29-.642 2.5-1.843 2.995l-52.1 22.34c-2.72 1.131-5.79 1.09-8.48-.112z"/>
        <path fill="url(#prefix__n)" fill-rule="nonzero" d="M53.568 391.068L1.802 368.729c-1.153-.49-1.872-1.65-1.797-2.896.075-1.246.929-2.311 2.132-2.66l48.642-13.782c1.786-.48 3.663-.519 5.467-.11l57.456 13.891c1.263.304 2.187 1.382 2.289 2.673.101 1.29-.642 2.5-1.843 2.995l-52.212 22.34c-2.682 1.131-5.717 1.09-8.368-.112z"/>
        <path fill="url(#prefix__o)" fill-rule="nonzero" d="M629 311L616 309.551 616 137.564 629 135z"/>
        <path fill="url(#prefix__p)" fill-rule="nonzero" d="M617 298.107L604 299 604 133.228 617 132z"/>
        <path fill="url(#prefix__q)" fill-rule="nonzero" d="M615.713 134l10.755-1.444c.294 0 .532-.25.532-.556 0-.307-.238-.556-.532-.556l-9.37-1.444h-.107l-12.459 1.222c-.294 0-.532.249-.532.556 0 .307.238.555.532.555L615.606 134h.107z"/>
        <path fill="url(#prefix__r)" fill-rule="nonzero" d="M684 338L671 336.551 671 164.564 684 162z"/>
        <path fill="url(#prefix__s)" fill-rule="nonzero" d="M672 327.107L659 328 659 162.228 672 161z"/>
        <path fill="url(#prefix__t)" fill-rule="nonzero" d="M670.713 167l10.755-1.444c.294 0 .532-.25.532-.556 0-.307-.238-.556-.532-.556l-9.37-1.444h-.107l-12.459 1.222c-.294 0-.532.249-.532.556 0 .307.238.555.532.555L670.606 167h.107z"/>
        <path fill="url(#prefix__u)" fill-rule="nonzero" d="M56.981 365.167l-51.53-22.332c-.902-.367-1.48-1.253-1.45-2.223v-6.11c.025-.463.337-.862.78-1l49.412-10.11c1.785-.482 3.662-.52 5.465-.112l58.669 8.555c.954.123 1.67.93 1.673 1.889v5.777c0 1.167-.704 2.218-1.785 2.667l-52.868 22.999c-2.677 1.11-5.689 1.11-8.366 0z"/>
        <path fill="#B0E1FF" fill-rule="nonzero" d="M57.568 359.069L5.802 336.752c-1.153-.49-1.872-1.648-1.797-2.894.075-1.245.929-2.309 2.132-2.658l48.642-13.768c1.778-.536 3.67-.574 5.467-.111l57.456 13.879c1.263.303 2.187 1.38 2.289 2.67.101 1.29-.642 2.497-1.843 2.993l-52.1 22.317c-2.72 1.13-5.79 1.09-8.48-.111z"/>
        <path fill="url(#prefix__v)" fill-rule="nonzero" d="M57.568 355.069L5.802 332.752c-1.153-.49-1.872-1.648-1.797-2.894.075-1.245.929-2.309 2.132-2.658l48.642-13.768c1.778-.536 3.67-.574 5.467-.111l57.456 13.879c1.263.303 2.187 1.38 2.289 2.67.101 1.29-.642 2.497-1.843 2.993l-52.1 22.317c-2.72 1.13-5.79 1.09-8.48-.111z"/>
        <circle cx="57" cy="325" r="15" fill="url(#prefix__w)" fill-rule="nonzero"/>
        <ellipse cx="97" cy="317.5" fill="url(#prefix__x)" fill-rule="nonzero" rx="7" ry="7.5"/>
        <path fill="url(#prefix__y)" fill-rule="nonzero" d="M120 334.477l-55.541 25.272c-.786.335-1.674.335-2.459 0L4 335.256V150l53.753 17.368L120 157.125v177.352z" opacity=".66"/>
        <path fill="url(#prefix__z)" fill-rule="nonzero" d="M574 276L561 274.551 561 102.564 574 100z"/>
        <path fill="url(#prefix__A)" fill-rule="nonzero" d="M562 265.995L549 267 549 101.116 562 100z"/>
        <path fill="url(#prefix__B)" fill-rule="nonzero" d="M562.687 104.944l10.78-1.444c.294 0 .533-.249.533-.556 0-.306-.239-.555-.534-.555L564.128 101h-.107l-12.487 1.222c-.295 0-.534.249-.534.556 0 .307.239.555.534.555l11.1 1.667.053-.056z"/>
        <path fill="url(#prefix__C)" fill-rule="nonzero" d="M689.778 407.08l-55.83-24.441c-1.261-.55-2.04-1.845-1.94-3.228.1-1.382 1.055-2.55 2.382-2.91l52.403-15.066c1.912-.54 3.928-.578 5.86-.112l61.91 15.178c1.329.343 2.3 1.493 2.424 2.872.124 1.379-.626 2.687-1.871 3.266l-56.162 24.44c-2.938 1.228-6.239 1.228-9.176 0z" opacity=".59"/>
        <circle cx="725.5" cy="111.5" r="12.5" fill="url(#prefix__D)" fill-rule="nonzero"/>
        <path fill="url(#prefix__E)" fill-rule="nonzero" d="M682.981 401.18l-51.53-22.34c-.902-.366-1.48-1.252-1.45-2.222v-6.113c.025-.463.337-.862.78-1l49.412-10.114c1.785-.48 3.662-.519 5.465-.11l58.669 8.557c.954.123 1.67.93 1.673 1.89v5.779c0 1.166-.704 2.218-1.785 2.667l-52.757 22.895c-2.689 1.201-5.757 1.242-8.477.111z"/>
        <path fill="#B0E1FF" fill-rule="nonzero" d="M683.568 395.082l-51.766-22.346c-1.153-.49-1.872-1.65-1.797-2.897.075-1.247.929-2.312 2.132-2.662l48.642-13.786c1.786-.48 3.663-.519 5.467-.11l57.456 13.896c1.263.304 2.187 1.383 2.289 2.674.101 1.29-.642 2.5-1.843 2.996l-52.1 22.235c-2.694 1.224-5.787 1.224-8.48 0z"/>
        <path fill="url(#prefix__F)" fill-rule="nonzero" d="M683.568 394.068l-51.766-22.339c-1.153-.49-1.872-1.65-1.797-2.896.075-1.246.929-2.311 2.132-2.66l48.642-13.782c1.786-.48 3.663-.519 5.467-.11l57.456 13.891c1.263.304 2.187 1.382 2.289 2.673.101 1.29-.642 2.5-1.843 2.995l-52.1 22.34c-2.72 1.131-5.79 1.09-8.48-.112z"/>
        <path fill="url(#prefix__G)" fill-rule="nonzero" d="M683.004 383.117l-51.543-20.702c-.908-.381-1.49-1.303-1.46-2.313v-6.245c.026-.482.339-.897.786-1.041l49.41-10.409c1.759-.5 3.611-.54 5.39-.116l58.729 8.79c.96.128 1.68.969 1.684 1.966v6.014c0 1.214-.709 2.31-1.797 2.776l-52.777 21.396c-2.72 1.061-5.73 1.02-8.422-.116z"/>
        <path fill="#B0E1FF" fill-rule="nonzero" d="M683.656 377.135l-51.84-20.769c-1.161-.509-1.886-1.712-1.81-3.006.075-1.294.935-2.4 2.148-2.762l48.691-14.192c1.762-.499 3.617-.539 5.398-.115l57.462 14.307c1.258.296 2.183 1.395 2.286 2.715.102 1.32-.64 2.555-1.836 3.053l-52.065 20.769c-2.699 1.153-5.735 1.153-8.434 0z"/>
        <path fill="url(#prefix__H)" fill-rule="nonzero" d="M683.656 377.135l-51.84-20.769c-1.161-.509-1.886-1.712-1.81-3.006.075-1.294.935-2.4 2.148-2.762l48.691-14.192c1.762-.499 3.617-.539 5.398-.115l57.462 14.307c1.258.296 2.183 1.395 2.286 2.715.102 1.32-.64 2.555-1.836 3.053l-52.065 20.769c-2.699 1.153-5.735 1.153-8.434 0z"/>
        <path fill="url(#prefix__I)" fill-rule="nonzero" d="M683.055 366.102l-51.593-20.695c-.909-.38-1.491-1.303-1.46-2.312v-6.243c.025-.481.338-.896.786-1.04l49.457-10.405c1.76-.5 3.615-.54 5.395-.116l58.674 8.902c.962.128 1.683.968 1.686 1.966v6.011c0 1.214-.71 2.308-1.798 2.775l-52.83 21.388c-2.707.963-5.664.88-8.317-.231z"/>
        <path fill="#B0E1FF" fill-rule="nonzero" d="M683.656 357.092l-51.84-20.747c-1.161-.508-1.886-1.71-1.81-3.003.075-1.293.935-2.397 2.148-2.76l48.691-14.176c1.762-.499 3.617-.539 5.398-.116l57.462 14.292c1.258.297 2.183 1.395 2.286 2.713.102 1.318-.64 2.553-1.836 3.05l-52.065 20.747c-2.687 1.21-5.746 1.21-8.434 0z"/>
        <path fill="url(#prefix__J)" fill-rule="nonzero" d="M683.656 357.092l-51.84-20.747c-1.161-.508-1.886-1.71-1.81-3.003.075-1.293.935-2.397 2.148-2.76l48.691-14.176c1.762-.499 3.617-.539 5.398-.116l57.462 14.292c1.258.297 2.183 1.395 2.286 2.713.102 1.318-.64 2.553-1.836 3.05l-52.065 20.747c-2.687 1.21-5.746 1.21-8.434 0z"/>
        <path fill="url(#prefix__K)" fill-rule="nonzero" d="M683.004 344.037L631.46 322.3c-.908-.38-1.49-1.297-1.46-2.3v-6.21c.026-.48.339-.893.786-1.036l49.41-10.35c1.759-.498 3.611-.537 5.39-.115l58.729 8.74c.96.127 1.68.963 1.684 1.955v5.98c0 1.208-.709 2.296-1.797 2.76l-52.777 22.427c-2.7 1.17-5.754 1.128-8.422-.115z"/>
        <path fill="#B0E1FF" fill-rule="nonzero" d="M683.656 341.054l-51.84-21.8c-1.161-.507-1.886-1.703-1.81-2.99.075-1.287.935-2.387 2.148-2.747l48.691-14.113c1.762-.496 3.617-.536 5.398-.115l57.462 14.228c1.258.295 2.183 1.387 2.286 2.7.102 1.312-.64 2.541-1.836 3.037l-52.065 21.8c-2.675 1.261-5.758 1.261-8.434 0z"/>
        <path fill="url(#prefix__L)" fill-rule="nonzero" d="M683.656 341.054l-51.84-21.8c-1.161-.507-1.886-1.703-1.81-2.99.075-1.287.935-2.387 2.148-2.747l48.691-14.113c1.762-.496 3.617-.536 5.398-.115l57.462 14.228c1.258.295 2.183 1.387 2.286 2.7.102 1.312-.64 2.541-1.836 3.037l-52.065 21.8c-2.675 1.261-5.758 1.261-8.434 0z"/>
        <path fill="url(#prefix__M)" fill-rule="nonzero" d="M683.055 324.123l-51.593-20.647c-.909-.38-1.491-1.3-1.46-2.307v-6.344c.025-.48.338-.894.786-1.038l49.457-10.381c1.76-.499 3.615-.539 5.395-.115l58.674 8.881c.962.127 1.683.966 1.686 1.96v5.999c0 1.21-.71 2.303-1.798 2.768l-52.83 21.339c-2.684 1.054-5.66 1.013-8.317-.115z"/>
        <path fill="#B0E1FF" fill-rule="nonzero" d="M683.656 317.135l-51.84-20.769c-1.161-.509-1.886-1.712-1.81-3.006.075-1.294.935-2.4 2.148-2.762l48.691-14.192c1.762-.499 3.617-.539 5.398-.115l57.462 14.307c1.258.296 2.183 1.395 2.286 2.715.102 1.32-.64 2.555-1.836 3.053l-52.065 20.769c-2.699 1.153-5.735 1.153-8.434 0z"/>
        <path fill="url(#prefix__N)" fill-rule="nonzero" d="M684.428 317.422l-36.18-15.082c-.798-.367-1.293-1.204-1.245-2.103.049-.899.63-1.674 1.464-1.948l33.994-10.017c1.252-.32 2.557-.358 3.825-.112l40.115 10.016c.875.213 1.517.981 1.592 1.904.074.922-.435 1.789-1.264 2.148l-36.398 15.081c-1.867.88-4.006.921-5.903.113z"/>
        <path fill="url(#prefix__O)" fill-rule="nonzero" d="M743.705 289.626l-57.462-14.293c-1.774-.48-3.645-.44-5.398.116l-48.691 14.177c-1.213.362-2.073 1.467-2.149 2.76-.075 1.292.65 2.494 1.812 3.003l51.84 20.747c2.698 1.152 5.734 1.152 8.433 0l52.065-20.747c1.196-.498 1.938-1.732 1.836-3.05-.103-1.32-1.028-2.417-2.286-2.713zm-15.293 6.339l-37.446 14.292c-1.948.807-4.125.807-6.073 0l-37.22-14.292c-.822-.377-1.331-1.233-1.282-2.154.05-.92.65-1.714 1.506-1.995l34.972-10.259c1.289-.327 2.631-.367 3.936-.115l41.27 10.258c.877.28 1.5 1.077 1.575 2.016.074.938-.416 1.829-1.238 2.249z"/>
        <circle cx="361.5" cy="595.5" r="27.5" fill="url(#prefix__P)" fill-rule="nonzero"/>
        <path fill="url(#prefix__Q)" fill-rule="nonzero" d="M521 241L508 239.551 508 67.564 521 65z"/>
        <path fill="url(#prefix__R)" fill-rule="nonzero" d="M507 229.107L494 230 494 64.228 507 63z"/>
        <path fill="url(#prefix__S)" fill-rule="nonzero" d="M507.713 69l10.755-1.444c.294 0 .532-.25.532-.556 0-.307-.238-.556-.532-.556L509.098 65h-.107l-12.459 1.222c-.294 0-.532.249-.532.556 0 .307.238.555.532.555L507.606 69h.107z"/>
        <path fill="url(#prefix__T)" fill-rule="nonzero" d="M728.528 292.598c-.08 1.898-1.272 3.558-3.017 4.203l-37.665 14.014c-.557.247-1.188.247-1.745 0l-37.753-13.666c-1.4-.503-2.339-1.852-2.348-3.371V161l38.181 12.688 44.216-7.485.603 114.685-.472 11.71z" opacity=".66"/>
        <path fill="#251BA8" fill-rule="nonzero" stroke="#FFF" d="M410.323 266.061l-239.64 81.686c-7.084 2.426-14.907 1.288-20.998-3.055-6.092-4.343-9.7-11.353-9.685-18.817V87.958c-.009-10.886 7.585-20.31 18.253-22.653l239.64-51.78c6.866-1.484 14.037.214 19.5 4.617 5.462 4.402 8.627 11.036 8.607 18.037v207.898c-.024 9.898-6.305 18.707-15.677 21.984z" opacity=".6"/>
        <path fill="#B28B67" d="M531.303 331.947h-9.985l1.689-12.83c-2.703 1.742-5.341 2.58-6.587 2.263-3.167-.86-3.41-13.091-.992-17.91 2.417-4.82 14.778-6.914 15.432 2.635.12 3.206-.959 6.33-2.998 8.678l3.441 17.164z"/>
        <path fill="#191847" d="M519.582 307.532c-4.52.078-5.052-.76-5.052-3.579 1.93-.992 4.038-1.567 6.193-1.688 1.623-.453 3.348-.322 4.89.369 2.074.604 4.486 1.744 5.258 4.182 2.265 4.184 1.025 9.457-2.847 12.112-.76-.929-1.423-1.834-2.02-2.696.743-.752.972-1.893.58-2.887-.393-.995-1.33-1.648-2.373-1.653-.105-.01-.21-.01-.315 0-.153 5.137-.49 8.522-1.01 10.154-.816 2.528-5.574 3.154-7.226 3.154-1.651 0-1.336-1.834-1.336-2.796 0-.592 1.706.18 1.706-.816 0-.995-2.173-1.6-2.608-2.237-.434-.637-.717-1.811.098-1.811 1.086 0 3.26 1.655 5.79 1.655 1.681 0 2.724-2.822 3.13-8.466-.698-1.226-1.68-2.256-2.858-2.997z"/>
        <path fill="#251BA8" fill-rule="nonzero" stroke="#FFF" d="M453.322 285.034l-239.64 81.713c-7.083 2.426-14.906 1.288-20.997-3.056-6.092-4.344-9.7-11.357-9.685-18.824V106.983c-.009-10.89 7.585-20.317 18.253-22.66l239.64-51.797c6.865-1.485 14.036.213 19.5 4.617 5.462 4.405 8.627 11.04 8.607 18.044v207.967c.048 9.898-6.27 18.715-15.678 21.88z" opacity=".9"/>
        <path fill="#B28B67" d="M502.65 367.887l-13.074 5.244c-3.718 4.201-5.785 5.953-6.202 5.255-.658-1.079.77-1.974.446-2.751-.323-.777-2.81-.702-5.164-.518-2.354.183-1.673-.842-1.116-1.338 2.816-1.553 5.837-2.73 8.98-3.496l13.196-9.377 2.934 6.981zm68.256 14.265c.792 1.08 5.756 3.798 9.114 5.276 1.35.594 1.037 1.695.635 2.04-3.346 2.848-6.213.647-9.67-.248-3.793-.982-2.69 3.431-5.69 2.697.525-1.996 1.885-5.783.536-7.877-.603-.942-5.135-9.527-13.598-25.756l7.295-1.284c6.477 15.344 10.27 23.728 11.378 25.152z"/>
        <path fill="#F2F2F2" d="M522.44 325l4.56 1.917c-.194 5.046.502 18.913-1.55 22.995-6.135 12.162-19.6 17.725-33.931 25.088l-3.42-7.163 1.14-.87c-.54-.216-.959-.669-1.14-1.235-.332-1.027.203-2.136 1.196-2.482 1.825-.682 3.763-.978 5.701-.87 12.599-11.021 21.081-23.924 27.443-37.38z"/>
        <path fill="#191847" d="M527.983 324.293c-2.924.482-4.966.376-6.136-.293 0 12.397-4.254 25.475-10.57 43.344-.405 1.173-.448 5.341.435 5.529 7.125 1.503 16.888 1.503 29.288 0-1.574-21.12-5.158-35.783-13.017-48.58z"/>
        <path fill="#F2F2F2" d="M561.095 418c-17.004-6.776-34.453 1.708-46.679-1.02-6.668-33.969 12.448-73.76 11.114-91.98h4.69c16.212 9.937 27.89 25.636 35.032 47.099.868.16 1.707.447 2.49.854.755.388-.3 2.728-1.2 3.238.322 1.109.622 2.163.922 3.26l-7.78 2.285c-5.26-13.855-11.207-23.603-17.838-29.244.067 4.957-1.356 9.98-.522 15.138.1.61.21 1.22.355 1.84.814.118 1.45.762 1.556 1.575l.222 1.21c.107.615-.102 1.243-.555 1.674 4.89 14.317 17.56 30.386 18.193 44.071z"/>
        <path fill="url(#prefix__U)" fill-opacity=".1" d="M534 332.035L530.68 336.323 534 340.17 524 356 532.184 340.137 528.796 336.323 532.544 331.475 530.68 325z"/>
        <path fill="#61AFF7" d="M526.14 359.646c-.004-.663.343-1.264.878-1.52.536-.255 1.153-.116 1.563.353.41.469.532 1.175.308 1.787-.224.612-.748 1.008-1.329 1.004-.782-.006-1.415-.73-1.42-1.624zm-1.785 9.36c-.004-.663.342-1.262.876-1.519.534-.256 1.15-.12 1.562.348.41.466.535 1.17.314 1.783-.22.612-.743 1.011-1.322 1.011-.786 0-1.425-.725-1.43-1.624zm-.355 9.36c0-.904.64-1.636 1.43-1.636.79 0 1.43.732 1.43 1.635s-.64 1.635-1.43 1.635c-.79 0-1.43-.732-1.43-1.635z" opacity=".35"/>
        <path fill="#FFF" fill-rule="nonzero" d="M397.606 150.025c-5.278-.479-9.606 5.874-9.606 14.265 0 8.391 4.328 15.464 9.606 15.703 5.277.24 9.394-6.113 9.394-14.264 0-8.152-4.222-15.224-9.394-15.704zm0 27.81c-4.54-.239-8.234-6.352-8.234-13.545 0-7.192 3.695-12.706 8.234-12.227 4.538.48 8.022 6.473 8.022 13.546 0 7.072-3.59 12.466-8.022 12.227z"/>
        <path fill="#6B99D1" fill-rule="nonzero" d="M501.776 328.806l-27.225-15.128c-1.926-.904-4.176-.904-6.102 0l-27.225 15.128c-.736.263-1.224.939-1.224 1.694s.488 1.43 1.224 1.694l27.225 15.128c1.926.904 4.176.904 6.102 0l27.225-15.128c.736-.263 1.224-.939 1.224-1.694s-.488-1.43-1.224-1.694z" opacity=".15"/>
        <path fill="#DCEEFF" fill-rule="nonzero" d="M501.768 292.806l-27.221-15.128c-1.926-.904-4.176-.904-6.102 0l-27.221 15.128c-.736.263-1.224.939-1.224 1.694s.488 1.43 1.224 1.694l27.221 15.128c1.926.904 4.176.904 6.102 0l27.221-15.128c1.643-.904 1.643-2.371 0-3.388z"/>
        <path fill="#FFF" fill-rule="nonzero" d="M471.5 278.13c.858-.015 1.705.18 2.464.564l27.225 15.129c.389 0 .704.303.704.677 0 .374-.315.678-.704.678l-27.225 15.128c-1.55.753-3.379.753-4.928 0l-27.225-15.128c-.389 0-.704-.304-.704-.678 0-.374.315-.677.704-.677l27.225-15.129c.759-.385 1.606-.579 2.464-.564zm0-1.13c-1.06-.016-2.107.217-3.051.678l-27.225 15.129c-.736.263-1.224.938-1.224 1.693 0 .755.488 1.43 1.224 1.694l27.225 15.128c1.926.904 4.176.904 6.102 0l27.225-15.128c.736-.263 1.224-.939 1.224-1.694s-.488-1.43-1.224-1.693l-27.225-15.129c-.949-.45-1.993-.681-3.051-.677z"/>
        <path fill="#A5CBFA" fill-rule="nonzero" d="M499 320.863c-.067.736-.54 1.374-1.227 1.658l-25.873 14.81c-.888.478-1.89.707-2.9.664v-25.863c1.008.03 2.007-.2 2.9-.664l25.873-14.81c.698-.272 1.175-.917 1.227-1.658v25.863z"/>
        <path fill="#C8E2FF" fill-rule="nonzero" d="M442 320.863c.067.736.54 1.374 1.227 1.658l25.873 14.81c.888.478 1.89.707 2.9.664v-25.863c-1.008.03-2.007-.2-2.9-.664l-25.873-14.81c-.698-.272-1.175-.917-1.227-1.658v25.863z"/>
        <path fill="url(#prefix__V)" fill-rule="nonzero" d="M235 332.798L205 347 205 118.878 235 111z"/>
        <path fill="url(#prefix__W)" fill-rule="nonzero" d="M282 311.555L252.108 326 252 218.95 282 211z"/>
        <path fill="url(#prefix__X)" fill-rule="nonzero" d="M324 290.975L294 302 294 246.988 324 239z"/>
        <path fill="#FFF" fill-rule="nonzero" d="M395 90L323 109.963 323 120 395 98.922zM366 113L323 124.68 323 135 366 122.072zM396 121L324 140.473 324 147 396 126.439zM396 136L324 155.473 324 162 396 141.331z" opacity=".6"/>
        <path fill="url(#prefix__Y)" fill-rule="nonzero" d="M335.662 165.012c-6.37-.327-11.662 6.305-11.662 15.002 0 8.697 5.291 15.764 11.662 15.981 6.37.217 11.338-6.632 11.338-15.003 0-8.37-4.967-15.546-11.338-15.98zm0 26.09c-4.427-.108-7.99-5-7.99-10.98 0-5.979 3.563-10.544 7.99-10.327 4.427.217 7.775 5.11 7.775 10.98s-3.456 10.437-7.775 10.328z"/>
        <path fill="#FFF" fill-rule="nonzero" d="M368.394 161.002c-4.78-.115-8.498 5.53-8.392 12.441.106 6.912 4.143 12.557 8.817 12.557 4.673 0 8.285-5.645 8.179-12.442-.107-6.796-3.93-12.441-8.604-12.556zm.425 23.5c-4.143 0-7.648-4.838-7.755-10.944-.106-6.105 3.187-10.943 7.33-10.828 4.142.115 7.435 4.953 7.541 10.944.107 5.99-3.08 10.713-7.116 10.828z"/>
        <path fill="url(#prefix__Z)" fill-rule="nonzero" d="M360.66 175.026c-.216-1.361-.216-2.748 0-4.11.864-5.841 5.078-9.844 9.4-8.979 3.673.758 6.266 4.868 6.375 9.736l3.565-.757c-.216-6.815-3.89-12.656-9.184-13.738-6.266-1.298-12.425 4.651-13.613 13.197-.27 1.865-.27 3.76 0 5.625l3.457-.974z"/>
        <path fill="url(#prefix__aa)" fill-rule="nonzero" d="M397.947 147.016c-.993-.06-1.989.05-2.947.327l.105 5.018c.843-.45 1.793-.64 2.737-.545 4.21.218 7.58 5.127 7.58 11.018 0 5.892-3.37 10.474-7.58 10.364-.8-.012-1.589-.198-2.316-.545l.106 5.018c.752.223 1.532.334 2.315.328 6.106.109 11.053-6.655 11.053-15.055 0-8.4-4.947-15.492-11.053-15.928z"/>
        <path fill="url(#prefix__ab)" fill-rule="nonzero" d="M398.947 147.016c-.993-.06-1.989.05-2.947.327l.105 5.018c.843-.45 1.793-.64 2.737-.545 4.21.218 7.58 5.127 7.58 11.018 0 5.892-3.37 10.474-7.58 10.364-.8-.012-1.589-.198-2.316-.545l.106 5.018c.752.223 1.532.334 2.315.328 6.106.109 11.053-6.655 11.053-15.055 0-8.4-4.842-15.601-11.053-15.928z"/>
        <path fill="url(#prefix__ac)" fill-rule="nonzero" d="M365.66 175.026c-.216-1.361-.216-2.748 0-4.11.864-5.841 5.078-9.844 9.4-8.979 3.673.758 6.266 4.868 6.375 9.736l3.565-.757c-.216-6.815-3.89-12.656-9.184-13.738-6.266-1.298-12.425 4.651-13.613 13.197-.27 1.865-.27 3.76 0 5.625l3.457-.974z"/>
        <path fill="url(#prefix__ad)" fill-rule="nonzero" d="M347.662 167.012c-6.37-.327-11.662 6.305-11.662 15.002 0 8.697 5.291 15.764 11.662 15.981 6.37.217 11.338-6.632 11.338-15.003 0-8.37-5.075-15.654-11.338-15.98zm-.108 26.09c-4.427-.108-7.99-5-7.99-10.98 0-5.979 3.563-10.544 7.99-10.327 4.427.217 7.775 5.11 7.775 10.98s-3.456 10.437-7.775 10.328z"/>
        <path fill="#FFF" fill-rule="nonzero" d="M408 90L336 109.963 336 120 408 98.922zM380 113L337 124.68 337 135 380 122.072zM409 121L337 140.473 337 147 409 126.439z"/>
        <path fill="#D8B59C" d="M668.373 456.738c3.764-1.952 9.774 1.042 9.624 4.07-.449 9.048-11.086 51.342-11.662 54.026-.575 2.684-5.41 3.171-5.526-.244-.184-5.434-.103-24.208 1.151-32.835.507-3.57 1.037-6.964 1.543-9.98-4.873 7.629-12.372 18.533-22.495 32.713L636 502.004c4.605-12.568 8.331-21.42 11.179-26.559 4.835-8.794 9.325-16.312 11.19-18.951 2.935-4.148 7.61-2.45 10.004.244z"/>
        <path fill="#1F28CF" d="M638 494.438l20.078-40.093c4.664-6.464 16.424 2.083 14.763 5.875-3.786 8.614-22.227 36.222-23.354 38.78L638 494.438z"/>
        <path fill="#E4E4E4" d="M636.669 500.15c-.824.58-1.554 1.292-2.163 2.108-.582 1.014-1.085 2.074-1.506 3.169L653.475 519c1.666-1.467 1.967-2.65.904-3.549-1.049-.91-1.93-1.67-2.61-2.304l-6.814-10.693c-.061-.098-.159-.167-.27-.19-.11-.025-.227-.002-.321.064l-1.561 1.152c-1.074-.095-2.118-.417-3.067-.945-.733-.59-1.347-1.321-1.807-2.155-.267-.396-.793-.499-1.182-.23h-.078zM661.795 512.116c-.407.837-.676 1.737-.794 2.662-.01 1.065.063 2.129.216 3.182L683.65 519c.67-1.914.381-2.974-.866-3.193-1.247-.218-2.289-.405-3.093-.561l-10.205-5.2c-.094-.05-.204-.06-.305-.026-.102.033-.185.106-.231.203l-.742 1.612c-.902.426-1.881.66-2.877.686-.85-.113-1.67-.396-2.412-.832-.38-.177-.83-.027-1.03.343 0 0-.093.063-.093.084z"/>
        <path fill="#EAC6AC" d="M294 335L317.544 375.102 335.189 409 339 409 309.422 335z"/>
        <path fill="#E4E4E4" d="M333.539 410.471c-.293.516-.475 1.063-.539 1.62.028.641.123 1.28.287 1.909h18.491c.47-1.17.195-1.807-.837-1.9-1.032-.093-1.891-.178-2.568-.254l-8.575-2.825c-.161-.054-.351 0-.424.119l-.55.992c-.71.28-1.491.447-2.293.492-.701-.043-1.383-.19-2.006-.432-.158-.055-.34-.06-.503-.016-.163.044-.296.136-.369.253l-.114.042z"/>
        <path fill="url(#prefix__ae)" d="M330.298 404l7.702-2.212c-3.374-9.585-7.515-20.103-12.424-31.553-4.909-11.451-10.172-22.53-15.79-33.235H288c5.788 12.657 12.425 24.95 19.87 36.807 6.672 10.578 14.169 20.67 22.428 30.193z"/>
        <path fill="url(#prefix__af)" d="M330.298 405l7.702-2.214c-3.374-9.593-7.515-20.12-12.424-31.58-4.909-11.46-10.172-22.528-15.79-33.206H288c5.79 12.666 12.427 24.97 19.87 36.837 6.677 10.566 14.174 20.648 22.428 30.163z"/>
        <path fill="#EAC6AC" d="M294.364 338.022c-2.243 13.786-6.562 31.392-6.977 31.934-.269.37-10.065 3.61-29.387 9.722l.83 3.322c23.039-3.278 35.179-5.824 36.42-7.64 1.862-2.713 11.15-24.172 14.75-37.36l-15.636.022z"/>
        <path fill="url(#prefix__ag)" d="M265 376.952l1.413 5.406c16.715 1.483 26.953.397 30.714-3.259C300.89 375.443 305.18 361.744 310 338h-19.287c-3.044 19.443-4.748 29.568-5.11 30.377-.363.808-7.23 3.666-20.603 8.575z"/>
        <path fill="#E4E4E4" d="M258.07 380.192c-.481-.18-.979-.233-1.472-.16-.544.179-1.079.424-1.598.734l2.054 18.188c1.06.195 1.569-.23 1.532-1.263-.037-1.034-.06-1.906-.066-2.595l1.472-9.117c.016-.085.008-.177-.021-.253-.03-.076-.078-.13-.133-.149l-.913-.31c-.32-.647-.55-1.39-.678-2.182-.044-.705.006-1.416.147-2.09.056-.348-.078-.701-.301-.792l-.023-.011z"/>
        <path fill="#EAC6AC" d="M298.784 291.143c-1.902-2.19-2.815-5.017-2.538-7.854 1.118-8.432 13.29-5.914 15.435-1.521 2.146 4.393 1.24 15.225-1.9 15.825-1.24.236-3.822-.643-6.404-2.336l1.017 11.464-9.902-.525 4.292-15.053z"/>
        <path fill="#191847" d="M305.428 275.131c-1.299-.426-2.661-.646-4.033-.653.523-1.05.76-2.21.69-3.372-.149-1.097-.478-2.165-.975-3.162-.172-.48-.431-.926-.768-1.317-.367-.367-.828-.636-1.337-.78-.514-.134-1.051-.162-1.578-.084-.23 0-.438.126-.669.168-.23.042-.34-.095-.504-.242-.415-.346-.925-.569-1.468-.643-.575-.087-1.162-.05-1.721.105-.556.142-1.066.417-1.48.801-.19.178-.35.385-.471.612 0 .094 0 .147-.153.179-.154.031-.198 0-.296.052-.943.276-1.732.902-2.192 1.74-.329.756-.49 1.571-.472 2.391.14 1.663.689 3.27 1.6 4.69.774.887 1.81 1.527 2.97 1.834-.774.81-1.374 1.758-1.764 2.792-.466 1.106-.782 2.264-.942 3.446-.187 1.146-.187 2.312 0 3.457.148 1.014.722 1.924 1.589 2.519.412.263.848.49 1.304.674.437.206.892.375 1.36.506.893.306 1.888.156 2.64-.4.283-.244.533-.52.746-.822.077-.106.12-.18 0-.285-.1-.13-.218-.248-.35-.348-.656-.6-1.048-1.418-1.097-2.287-.16-.972.325-1.939 1.217-2.423 1.161-.433 2.378.2 3.364.78.443-1.44 1.493-2.637 2.894-3.3 1.567-.653 3.288-.653 4.943-1.2.434-.12.832-.337 1.162-.633.154-.137.274-.307.35-.495.043-.234-.025-.474-.186-.653-1.137-1.531-2.636-2.78-4.373-3.647z"/>
        <path fill="#EAC6AC" d="M320.742 328.778l10.517 8.743c2.595.826 5.061 1.995 7.332 3.476.44.464.959 1.36-1.003 1.08-1.963-.282-4.057-.497-4.41.14-.353.636.827 1.51.21 2.363-.405.569-2.037-1.04-4.896-4.825l-10.66-5.202 2.91-5.775zM273.093 325l6.174.885c-6.615 14.076-10.168 21.52-10.66 22.333-1.103 1.824.198 5.008.683 6.692-2.503.713-1.698-3.076-4.862-2.159-2.888.853-5.27 2.807-8.136.486-.255-.27-.352-.65-.256-1.007.096-.356.372-.64.73-.752 2.79-1.36 6.868-3.843 7.508-4.75.874-1.23 3.814-8.473 8.82-21.728z"/>
        <path fill="#C5CFD6" d="M297.642 302.299l3.784-1.299c5.126 13.399 12.782 26.354 25.574 37.303L323.837 344c-11.243-6.927-21.876-12.294-26.173-22.674-1.418-3.52-.142-14.903-.022-19.027z"/>
        <path fill="url(#prefix__ah)" d="M297.66 302.31l3.783-1.31c5.133 13.395 12.784 26.358 25.557 37.305L323.84 344c-11.226-6.914-21.863-12.29-26.157-22.668-1.46-3.485-.142-14.853-.022-19.022z"/>
        <path fill="#323337" d="M285 339.103c10.707 1.196 19.134 1.196 25.28 0 .765-.148.884-1.507.528-2.42-5.504-14.288-9.274-26.759-9.274-36.683-1.012.54-2.779.62-5.3.24-6.775 10.244-9.898 21.961-11.234 38.863z"/>
        <path fill="#DDE3E9" d="M297.561 298h2.934c.683 4.108 2.843 59.784 9.505 78h-36.04c.784-16.694 6.942-36.729 13.19-53.503-5.524 5.157-10.335 13.906-14.432 26.248L266 346.972c5.016-22.121 15.335-38.365 30.957-48.732l.1-.24h.504z"/>
        <path fill="url(#prefix__ai)" d="M285.495 323.015c-5.352 5.105-10.014 13.766-13.985 25.985l-6.51-1.756c4.86-21.9 14.86-37.981 30-48.244 0-.08-15.559 40.62-9.505 24.015z"/>
        <path fill="#2B44FF" d="M678.987 464.955c-.53 11.342-7.116 37.555-7.237 40.045l-11.552-.52c2.78-23.54 3.928-35.442 3.443-35.708-.718-.42-30.374 1.55-39.233 1.107-12.754-.598-17.652-8.908-17.399-23.879l25.276 1.25c5.12.786 31.72 7.47 41.605 9.793 4.226.952 5.24 4.791 5.097 7.912z"/>
        <path fill="url(#prefix__aj)" fill-rule="nonzero" d="M374 278.808L344 290 344 268.192 374 260z"/>
        <path fill="#D8B59C" d="M613.315 386.852c-2.554-3.025-3.907-7.038-3.76-11.156.785-12.255 16.344-9.556 19.372-3.38 3.03 6.175 2.67 21.893-1.242 22.992-1.558.442-4.88-.633-8.27-2.878l2.125 16.483H609l4.315-22.061z"/>
        <g>
            <path fill="url(#prefix__ak)" d="M28.788 6.384c.231-.666 1.87-2.722-1.038-4.689-.52-.344-1.385 0-2.135-.222-.553-.166-.75-.922-1.396-1.044-.646-.122-1.396.478-2.146.422-.461 0-1.154-.722-1.661-.767-.866-.066-1.639.723-2.481.767-.485 0-1.05-.722-1.535-.767-1.118.06-2.223.258-3.288.59-.958.155-1.396 2.033-2.1 2.477-2.216 1.4-3.946 1.8-5.77 3.233-1.392 1.167-2.563 2.558-3.461 4.111-.889 1.112-1.43 5.145-.912 7.712.3 1.51 1.085 5.644 2.862 7.244 2.411 2.222 7.338 2.844 7.777 2.556 2.02-1.356 6.554-8.89 9.773-11.5 3.298-2.757 5.871-6.225 7.511-10.123z" transform="translate(602 359) translate(0 .882)"/>
            <path fill="url(#prefix__al)" fill-opacity=".2" d="M12.473 23.144c1.454-3.1 3.323-7.077 5.02-11.11C18.7 9.07 19.987 5.321 21.357.788h1.65c-2.593 7.111-4.543 12.078-5.85 14.9-2.1 4.544-3.612 7.989-4.823 10.3 3.111-4.399 5.925-8.986 8.423-13.733 1.735-3.52 3.216-7.15 4.43-10.867l1.535.622c-1.744 4.412-3.736 8.73-5.965 12.933-4.558 7.945-8.92 12.745-10.454 14.1-.254.234-.346.29-.289.167-.095.143-.2.28-.311.411-1.546 1.69 2.388-7.778 5.296-17.644.877-3.037 1.75-6.893 2.62-11.567l1.638-.167c-1.8 7.334-3.2 12.47-4.2 15.412-1.05 2.9-1.87 5.422-2.585 7.488z" transform="translate(602 359)"/>
        </g>
        <path fill="url(#prefix__am)" fill-rule="nonzero" d="M421 263.692L391 275 391 253.192 421 245z"/>
        <path fill="#D8B59C" d="M649.252 437l15.658 9.567c3.602.627 7.098 1.725 10.395 3.265.685.522 1.538 1.61-1.123 1.6-2.66-.011-5.478.087-5.78.99-.304.904 1.38 1.84.729 3.07-.434.827-2.907-.987-7.42-5.442l-15.165-4.909 2.706-8.141zm-57.09 4.3l9.742-.632c-4.632 19.242-7.146 29.458-7.543 30.648-.898 2.667 1.684 6.465 2.818 8.511-3.087 1.6-3.12-3.526-7.005-1.447-3.536 1.904-6.106 5.093-10.517 2.851-.55-.272-1.202-1.404.112-2.416 3.255-2.514 7.913-6.857 8.486-8.217.778-1.85 2.08-11.617 3.906-29.299z"/>
        <path fill="url(#prefix__an)" d="M615 395.996l4.066-.996c16.206 12.106 24.269 36.995 43.934 49.09l-4.1 5.91c-32.756-1.695-42.95-32.036-43.9-54.004z"/>
        <path fill="#DDE3E9" d="M603 450l34.883-2.611c1.591-.114 1.098-2.486.823-3.684-3.61-13.684-15.022-27.984-16.371-47.816L612.152 395c-7.363 14.551-9.075 31.862-9.152 55z"/>
        <path fill="#B261FF" d="M599.473 409.82c-1.632-.357-3.04-1.328-3.897-2.69-4.383-6.378-3.259-10.132.812-11.614 4.07-1.482 7.955.746 14.566.307.331-.027.665-.027.997 0h3.34c11.852 30.006 16.02 50.274 12.501 60.805l-28.992 1.954c-1.207 3.367-2.616 6.666-4.221 9.88l-7.898.538c-2.474-22.746 1.79-42.472 12.792-59.18z"/>
        <path fill="url(#prefix__ao)" fill-opacity=".1" d="M603.292 440c1.22 7.54 2.79 12.953 4.708 16.238l-9 .762c1.382-4.816 2.813-10.483 4.292-17z"/>
        <path fill="#B28B67" d="M797.213 257.476H786.85l1.751-11.94c-2.793 1.625-5.541 2.405-6.827 2.084-3.236-.801-3.536-12.207-1.03-16.708 2.504-4.5 15.36-6.413 16.015 2.459.113 2.992-1.007 5.905-3.115 8.103l3.57 16.002z"/>
        <path fill="#191847" d="M785.387 230.966l.852-2.69 5.099-.448v-.449c-5.885 0-9.99-.218-12.338-.896.11-2.104 2.184-4.483 7.643-4.483 6.081 0 9.357 3.736 9.357 8.046 0 3.943-2.424 8.759-4.258 8.954-.48-.115-.885-.713-1.289-1.552.85-.495 1.351-1.462 1.289-2.482-.03-1.248-.999-2.242-2.184-2.242-.414.004-.818.14-1.157.39-.699-1.286-1.66-2.263-3.014-2.148zM466.459 232.208l.685-.108c4.052-.66 7.882 2.026 8.558 6.002l1.195 7c.627 3.67-1.66 7.215-5.308 8.227v.054L461.693 255c-1.813-1.216-1.901-10.983-1.492-15.477-.048-3.623 2.614-6.734 6.258-7.315z"/>
        <path fill="#B28B67" d="M476.128 260.028l-8.282 1.333-.245-9.837c-2.012 1.658-4.102 2.643-5.175 2.557-2.694-.228-4.47-9.35-3.13-13.282 1.342-3.932 11.39-7.172 13.133-.097.512 2.384.02 4.868-1.364 6.9l5.063 12.426z"/>
        <path fill="#191847" d="M470.385 248.887c.708-.094 1.309-.576 1.567-1.255.258-.68.13-1.45-.33-2.005-.462-.557-1.184-.81-1.883-.663-.439.071-.84.296-1.134.636-3.105-1.296-6.336-1.157-7.605-3.888.86-2.598 3.158-4.42 5.837-4.628 2.698-.463 5.225.991 7.583 4.362v.278c.363.243.737.52 1.133.798 1.542 9.443 6.37 4.629 7.447 14.754L472.8 259c-1.338-.949-2.268-5.786-2.596-10.079l.18-.034z"/>
        <path fill="#997659" d="M781.533 291L763 372 767.781 372 779.921 334.898 798 291z"/>
        <path fill="#B28B67" d="M784 289c4.324 15.202 9.695 40.669 11.35 43.44 1.104 1.84 13.562 9.693 37.373 23.56l3.277-3.49c-20.193-16.132-30.433-24.531-30.718-25.197-.45-.987-3.232-22.382-3.378-38.268L784 289z"/>
        <path fill="#E4E4E4" d="M837.983 354.027c-.36-.108-.733.118-.835.504-.15.769-.445 1.497-.866 2.14-.591.649-1.302 1.16-2.086 1.5l-1.42-.482c-.087-.03-.182-.02-.262.03-.08.048-.136.131-.155.228l-2.681 10.08c-.376.65-.856 1.467-1.44 2.43-.584.964-.094 1.826 1.482 2.543L842 357.32c-.569-.748-1.19-1.448-1.857-2.095-.637-.489-1.34-.867-2.087-1.12l-.073-.078zM772.357 373.426c-.184-.24-.633-.346-1.017-.239-.725.246-1.52.396-2.338.44-.946-.043-1.866-.213-2.701-.5l-.643-.985c-.041-.059-.117-.105-.212-.127-.095-.022-.2-.02-.291.008l-9.95 2.828-2.98.254c-1.17.09-1.52.746-.971 1.895h21.407c.19-.63.303-1.269.339-1.91-.073-.559-.29-1.106-.643-1.62v-.044z"/>
        <path fill="url(#prefix__ap)" d="M799 292L779.3 292 763 367.612 784.993 370z"/>
        <path fill="url(#prefix__aq)" d="M806.534 324.028c-.398-.926-1.163-11.268-2.296-31.028H781c2.112 22.47 4.483 36.243 7.115 41.32 2.632 5.075 11.897 15.969 27.794 32.68L831 349.844c-15.913-16.3-24.069-24.905-24.466-25.816z"/>
        <path fill="#B28B67" d="M771.369 271.096l-11.078-10.377c-5.827-1.64-8.495-2.844-8.001-3.609.751-1.183 2.312-.177 2.937-.875.624-.698-.567-3.089-1.793-5.325-1.225-2.236.081-2.035.833-1.716 2.809 2.03 5.33 4.447 7.493 7.183l15.24 8.495-5.631 6.224zM752.752 279c-2.432-1.899-5.172-3.345-8.094-4.271-4.752-1.35-6.683-2.367-9.008-5.42-1.237-1.62-2.312-4.886-1.156-5.916.798-.722 5.435 2.816 7.343 3.207 1.908.39.15-4.213 1.156-3.74 1.31 0 2.436 1.843 3.376 5.526l6.695 3.763-.312 6.851z"/>
        <path fill="#2026A2" d="M779.693 272.995c-5.983.174-12.826-3.858-17.693-8.718l2.772-6.277c5.552 3.646 12.014 5.611 18.628 5.667 1.543 1.543 2.02 3.877 1.21 5.916-.81 2.04-2.75 3.385-4.917 3.412z"/>
        <path fill="url(#prefix__ar)" d="M779.693 272.995c-5.983.174-12.826-3.858-17.693-8.718l2.772-6.277c5.552 3.646 12.014 5.611 18.628 5.667 1.543 1.543 2.02 3.877 1.21 5.916-.81 2.04-2.75 3.385-4.917 3.412z"/>
        <path fill="#1F28CF" d="M783.042 248h11.892c1.308 0 10.154 16.428 10.154 27.096 0 9.741 9.376 15.927 4.513 31.155-7.74-1.473-30.768 6.01-34.705-2.073-1.839-4.007-2.615-8.393-2.257-12.763-7.898-.163-17.454-2.683-28.613-8.323-.248-2.749 1.257-7.352 4.513-13.81 13.02 4.487 22.295 6.062 27.823 4.724 2.72-8.88 6.025-17.857 6.68-26.006z"/>
        <path fill="#B28B67" d="M415 343.63c9.173-21.626 15.163-34.487 17.968-38.582 1.86-2.692 10.039 0 7.572 5.81-1.081 2.426-4.327 8.776-8.362 15.92-2.343 4.172-6.844 10.58-13.5 19.222L415 343.63z"/>
        <path fill="#2F3676" d="M416 335c1.381-1.931 12.372-27.567 16.98-34.063 2.037-2.856 15.417 1.17 12.643 7.327L432.663 342 416 335z"/>
        <path fill="#B28B67" d="M460.532 339c-1.136-1.044-14.668-12.811-23.946-21.533-3.718-3.5 3.707-10 7.435-6.123 1.265 1.3 2.583 2.69 3.943 4.134 4.736 5.033 13.425 17.189 15.815 20.8 1.51 2.278-1.661 4.2-3.247 2.722z"/>
        <path fill="#E4E4E4" d="M464.094 335.14c-.156-.115-.351-.162-.542-.13-.19.03-.361.136-.473.294-.418.671-.966 1.25-1.611 1.702-.82.4-1.715.624-2.626.658l-1.272-.986c-.165-.117-.393-.08-.514.082l-6.139 8.51c-.595.481-1.365 1.068-2.334 1.772-.968.704-.712 1.69.63 2.958L467 339.67c-.32-.92-.71-1.815-1.167-2.675-.484-.697-1.075-1.31-1.75-1.82l.01-.035zM417.433 343.433c-.073-.117-.206-.208-.37-.251-.164-.044-.344-.037-.501.018-.627.24-1.312.388-2.016.434-.815-.046-1.608-.215-2.33-.496l-.557-.993c-.076-.123-.273-.179-.441-.124l-8.588 2.823c-.682.078-1.543.163-2.572.256-1.029.093-1.312.729-.83 1.9h18.478c.162-.63.26-1.267.294-1.908-.066-.561-.254-1.111-.556-1.628 0 0-.01-.016-.01-.031z"/>
        <path fill="#5C63AB" d="M450.48 315.458l12.357 16.528L447.755 342c-10.858-19.386-16.288-29.114-16.288-29.182-.586-1.62-1.194-6.547 2.03-8.224 17.953-8.353 28.145-12.884 30.578-13.594h18.459c1.726 12.246-1.195 17.865-11.195 19.7-3.504.65-10.424 1.85-20.761 3.602-.391.083-.424.469-.098 1.156z"/>
        <path fill="#997659" d="M451.617 285.58l-10.455-4.199c-4.538.448-6.729.34-6.573-.324.222-1.008 1.568-.762 1.824-1.411.256-.65-1.212-2.004-2.658-3.213s-.478-1.444.133-1.433c2.508.65 4.914 1.644 7.152 2.956l12.901 1.757-2.324 5.866zm52.418 24.414c.467.952 3.948 3.873 6.362 5.541.967.672.567 1.523.2 1.747-2.98 1.858-4.938-.336-7.519-1.545-2.813-1.321-2.58 2.418-4.815 1.41.69-1.556 2.29-4.478 1.534-6.336-.348-.836-4.46-10.164-12.334-27.986h7.196c5.606 16.792 8.73 25.848 9.376 27.169z"/>
        <path fill="url(#prefix__as)" d="M474.763 272.024c-2.947 17.28-17.338 23.668-33.763 21.602l2.312-16.291c17.558 2.705 25.43-5.289 26.85-17.964L476 259c-.01 4.369-.424 8.727-1.237 13.024z"/>
        <path fill="#C5CFD6" d="M479.026 256h.57c12.946 11.795 21.414 28.462 25.404 50h-17.705c-.102-4.069-.308-8.068-.65-11.906H463c2.467-11.17 7.265-20.863 7.265-36.065l8.75-2.017.01-.012z"/>
        <path fill="url(#prefix__at)" fill-opacity=".1" d="M486 295h-5c1.381-5.053 1.754-12.386 1.119-22 1.999 7.196 3.298 14.563 3.881 22z"/>
    </g>
</svg>
