<svg xmlns="http://www.w3.org/2000/svg" width="824" height="651" viewBox="0 0 824 651">
    <defs>
        <linearGradient id="prefix__a" x1="1.874%" x2="101.833%" y1="50.068%" y2="50.068%">
            <stop offset="0%" stop-color="#5761D7"/>
            <stop offset="17.79%" stop-color="#5C66D9"/>
            <stop offset="38.76%" stop-color="#6A73DF"/>
            <stop offset="61.34%" stop-color="#8289E8"/>
            <stop offset="84.9%" stop-color="#A3A7F5"/>
            <stop offset="100%" stop-color="#BCBEFF"/>
        </linearGradient>
        <linearGradient id="prefix__b" x1="33.586%" x2="132.066%" y1="50.003%" y2="50.003%">
            <stop offset="0%" stop-color="#8F7EFF"/>
            <stop offset="25.86%" stop-color="#5552FF"/>
            <stop offset="63.99%" stop-color="#6B68FB"/>
            <stop offset="100%" stop-color="#ECE9FD"/>
        </linearGradient>
        <linearGradient id="prefix__c" x1="99.36%" x2=".038%" y1="49.967%" y2="49.967%">
            <stop offset="0%" stop-color="#769DFF"/>
            <stop offset="10.55%" stop-color="#7C9EFF"/>
            <stop offset="21.97%" stop-color="#6998FF"/>
            <stop offset="34.557%" stop-color="#6EC5FF"/>
            <stop offset="45.87%" stop-color="#1C3F72"/>
            <stop offset="58.24%" stop-color="#162561"/>
            <stop offset="71.05%" stop-color="#121355"/>
            <stop offset="84.58%" stop-color="#10084E"/>
            <stop offset="100%" stop-color="#0F054C"/>
        </linearGradient>
        <linearGradient id="prefix__d" x1="99.988%" x2="-.071%" y1="49.967%" y2="49.967%">
            <stop offset="0%" stop-color="#6B94E1"/>
            <stop offset="14.168%" stop-color="#535FBA"/>
            <stop offset="26.805%" stop-color="#3E4498"/>
            <stop offset="40.7%" stop-color="#2D3E7C"/>
            <stop offset="54.26%" stop-color="#202567"/>
            <stop offset="68.29%" stop-color="#161358"/>
            <stop offset="83.1%" stop-color="#11084F"/>
            <stop offset="100%" stop-color="#0F054C"/>
        </linearGradient>
        <linearGradient id="prefix__e" x1="90.293%" x2="10.897%" y1="36.485%" y2="54.179%">
            <stop offset="0%" stop-color="#BCBEFF"/>
            <stop offset="22.71%" stop-color="#AAADF8"/>
            <stop offset="68.02%" stop-color="#7C83E5"/>
            <stop offset="100%" stop-color="#5761D7"/>
        </linearGradient>
        <linearGradient id="prefix__f" x1="88.485%" x2="12.822%" y1="46.282%" y2="61.317%">
            <stop offset="24.21%" stop-color="#5761D7"/>
            <stop offset="39.23%" stop-color="#7A82E5"/>
            <stop offset="54.63%" stop-color="#979CF0"/>
            <stop offset="70%" stop-color="#ACAFF8"/>
            <stop offset="85.19%" stop-color="#B8BAFD"/>
            <stop offset="100%" stop-color="#BCBEFF"/>
        </linearGradient>
        <linearGradient id="prefix__g" x1="100.005%" x2=".033%" y1="49.842%" y2="49.842%">
            <stop offset="0%" stop-color="#E9E9FD"/>
            <stop offset="36.01%" stop-color="#D3D2F9"/>
            <stop offset="70.62%" stop-color="#C5C4F7"/>
            <stop offset="100%" stop-color="#C0BFF6"/>
        </linearGradient>
        <linearGradient id="prefix__h" x1="99.876%" x2="-.036%" y1="49.99%" y2="49.99%">
            <stop offset="0%" stop-color="#E9E9FD"/>
            <stop offset="36.01%" stop-color="#D3D2F9"/>
            <stop offset="70.62%" stop-color="#C5C4F7"/>
            <stop offset="100%" stop-color="#C0BFF6"/>
        </linearGradient>
        <linearGradient id="prefix__i" x1="49.95%" x2="49.95%" y1="-.068%" y2="99.737%">
            <stop offset="0%" stop-color="#0F054C" stop-opacity="0"/>
            <stop offset="14.078%" stop-color="#10084E" stop-opacity="0"/>
            <stop offset="30.506%" stop-color="#121355" stop-opacity="0"/>
            <stop offset="48.715%" stop-color="#1C3F72"/>
            <stop offset="61.698%" stop-color="#2F66DF"/>
            <stop offset="78.642%" stop-color="#2335DC" stop-opacity=".678"/>
            <stop offset="100%" stop-color="#4C77F6"/>
        </linearGradient>
        <linearGradient id="prefix__j" x1="90.288%" x2="10.737%" y1="36.422%" y2="54.167%">
            <stop offset="0%" stop-color="#BCBEFF"/>
            <stop offset="22.71%" stop-color="#AAADF8"/>
            <stop offset="68.02%" stop-color="#7C83E5"/>
            <stop offset="100%" stop-color="#5761D7"/>
        </linearGradient>
        <linearGradient id="prefix__k" x1="100.02%" x2=".048%" y1="50.07%" y2="50.07%">
            <stop offset="0%" stop-color="#E9E9FD"/>
            <stop offset="36.01%" stop-color="#D3D2F9"/>
            <stop offset="70.62%" stop-color="#C5C4F7"/>
            <stop offset="100%" stop-color="#C0BFF6"/>
        </linearGradient>
        <linearGradient id="prefix__l" x1="0%" x2="100%" y1="49.994%" y2="49.994%">
            <stop offset="3%" stop-color="#03B2FF"/>
            <stop offset="70%" stop-color="#071492"/>
        </linearGradient>
        <linearGradient id="prefix__m" x1=".028%" x2="99.955%" y1="49.997%" y2="49.997%">
            <stop offset="3%" stop-color="#03B2FF"/>
            <stop offset="70%" stop-color="#071492"/>
        </linearGradient>
        <linearGradient id="prefix__n" x1="-.02%" x2="100.062%" y1="50.004%" y2="50.004%">
            <stop offset="3%" stop-color="#03B2FF"/>
            <stop offset="70%" stop-color="#071492"/>
        </linearGradient>
        <linearGradient id="prefix__o" x1=".015%" x2="99.811%" y1="50.008%" y2="50.008%">
            <stop offset="3%" stop-color="#03B2FF"/>
            <stop offset="70%" stop-color="#071492"/>
        </linearGradient>
        <linearGradient id="prefix__p" x1="-.032%" x2="99.962%" y1="50.008%" y2="50.008%">
            <stop offset="3%" stop-color="#03B2FF"/>
            <stop offset="70%" stop-color="#071492"/>
        </linearGradient>
        <linearGradient id="prefix__q" x1="-.002%" x2="99.993%" y1="49.981%" y2="49.981%">
            <stop offset="3%" stop-color="#03B2FF"/>
            <stop offset="70%" stop-color="#071492"/>
        </linearGradient>
        <linearGradient id="prefix__r" x1="-.004%" x2="100%" y1="50.028%" y2="50.028%">
            <stop offset="3%" stop-color="#03B2FF"/>
            <stop offset="70%" stop-color="#071492"/>
        </linearGradient>
        <linearGradient id="prefix__s" x1="-.023%" x2="99.972%" y1="50.024%" y2="50.024%">
            <stop offset="3%" stop-color="#03B2FF"/>
            <stop offset="70%" stop-color="#071492"/>
        </linearGradient>
        <linearGradient id="prefix__t" x1="-.124%" x2="99.858%" y1="49.945%" y2="49.945%">
            <stop offset="3%" stop-color="#03B2FF"/>
            <stop offset="70%" stop-color="#071492"/>
        </linearGradient>
        <linearGradient id="prefix__u" x1="-.002%" x2="99.992%" y1="50.025%" y2="50.025%">
            <stop offset="3%" stop-color="#03B2FF"/>
            <stop offset="70%" stop-color="#071492"/>
        </linearGradient>
        <linearGradient id="prefix__v" x1=".022%" x2="100.019%" y1="49.99%" y2="49.99%">
            <stop offset="3%" stop-color="#03B2FF"/>
            <stop offset="70%" stop-color="#071492"/>
        </linearGradient>
        <linearGradient id="prefix__w" x1="99.909%" x2=".166%" y1="50.006%" y2="50.006%">
            <stop offset="0%" stop-color="#BCBEFF"/>
            <stop offset="15.1%" stop-color="#A3A7F5"/>
            <stop offset="38.66%" stop-color="#8289E8"/>
            <stop offset="61.24%" stop-color="#6A73DF"/>
            <stop offset="82.21%" stop-color="#5C66D9"/>
            <stop offset="100%" stop-color="#5761D7"/>
        </linearGradient>
        <linearGradient id="prefix__y" x1="100.013%" x2=".063%" y1="49.895%" y2="49.895%">
            <stop offset="0%" stop-color="#C0BFF6"/>
            <stop offset="29.38%" stop-color="#C5C4F7"/>
            <stop offset="63.99%" stop-color="#D3D2F9"/>
            <stop offset="100%" stop-color="#E9E9FD"/>
        </linearGradient>
        <linearGradient id="prefix__z" x1="100.013%" x2="-.035%" y1="49.941%" y2="49.941%">
            <stop offset="0%" stop-color="#C0BFF6"/>
            <stop offset="29.38%" stop-color="#C5C4F7"/>
            <stop offset="63.99%" stop-color="#D3D2F9"/>
            <stop offset="100%" stop-color="#E9E9FD"/>
        </linearGradient>
        <linearGradient id="prefix__A" x1="49.95%" x2="49.95%" y1="-.068%" y2="99.737%">
            <stop offset="0%" stop-color="#0F054C" stop-opacity="0"/>
            <stop offset="14.078%" stop-color="#10084E" stop-opacity="0"/>
            <stop offset="30.506%" stop-color="#121355" stop-opacity="0"/>
            <stop offset="48.715%" stop-color="#231C72"/>
            <stop offset="63.838%" stop-color="#2F59DF"/>
            <stop offset="79.363%" stop-color="#2423DC"/>
            <stop offset="100%" stop-color="#4C60F6"/>
        </linearGradient>
        <linearGradient id="prefix__B" x1="88.836%" x2="-81.929%" y1="28.164%" y2="102.801%">
            <stop offset="0%" stop-color="#42E8E0"/>
            <stop offset="10.55%" stop-color="#37B6BF"/>
            <stop offset="21.97%" stop-color="#2C87A1"/>
            <stop offset="33.8%" stop-color="#235F87"/>
            <stop offset="45.87%" stop-color="#1C3F72"/>
            <stop offset="58.24%" stop-color="#162561"/>
            <stop offset="71.05%" stop-color="#121355"/>
            <stop offset="84.58%" stop-color="#10084E"/>
            <stop offset="100%" stop-color="#0F054C"/>
        </linearGradient>
        <radialGradient id="prefix__x" cx="4.964%" cy="77.669%" r="116.168%" fx="4.964%" fy="77.669%" gradientTransform="matrix(-1 0 0 -.89651 .1 1.473)">
            <stop offset="0%" stop-color="#424BE8"/>
            <stop offset="11.677%" stop-color="#3F6EDC"/>
            <stop offset="25.267%" stop-color="#4231AE"/>
            <stop offset="43.103%" stop-color="#3B258B"/>
            <stop offset="60.62%" stop-color="#1B3C70"/>
            <stop offset="76.62%" stop-color="#151E5C"/>
            <stop offset="90.28%" stop-color="#100C50"/>
            <stop offset="100%" stop-color="#0F054C"/>
        </radialGradient>
    </defs>
    <g fill="none">
        <path fill="#42E8E0" d="M197.557 539l.443-.67L4.208 425.41c-2.215-1.342-3.544-2.907-3.544-4.92 0-1.788 1.33-3.577 3.544-4.919l34.107-19.9-.443-.671-34.107 19.9C1.33 416.243 0 418.256 0 420.268c0 2.013 1.329 4.025 3.765 5.367L197.557 539zM444.936 564.118L310.547 486.68c-1.105-.662-1.547-1.544-1.547-2.427 0-1.103.884-2.206 2.21-3.088L536.444 351.22c2.652-1.544 6.41-1.544 8.62-.44l134.389 77.436c1.105.662 1.547 1.545 1.547 2.427 0 1.103-.884 2.206-2.21 3.089L453.556 563.676c-1.326.883-3.094 1.324-4.863 1.324-1.326 0-2.652-.441-3.757-.882zM678.569 433.29c1.105-.662 1.768-1.545 1.768-2.427 0-.662-.442-1.324-1.326-1.765l-134.389-77.437c-1.99-1.104-5.526-1.104-7.957.44L311.43 482.048c-1.105.662-1.768 1.545-1.768 2.427 0 .662.442 1.324 1.326 1.765l134.389 77.437c1.99 1.103 5.526 1.103 7.957-.441L678.57 433.291z"/>
        <g>
            <path fill="url(#prefix__a)" d="M.091 133.898l12.346-1.765L226.947 8.157c2.425-1.324 6.173-1.544 8.378-.441l127.647 73.68 7.937-1.103V90.66c0 .882-.661 1.985-1.984 2.647L144.273 223.24c-2.425 1.323-6.172 1.544-8.377.44L1.855 146.252c-.882-.661-1.323-1.323-1.323-2.205v-10.148H.09z" transform="translate(311 328)"/>
            <path fill="url(#prefix__b)" d="M368.704 83.16L144.053 213.093c-2.425 1.324-6.173 1.544-8.378.441l-134.04-77.43c-2.205-1.324-1.764-3.309.66-4.853L226.948 1.318c2.425-1.323 6.173-1.544 8.378-.441l134.04 77.43c1.985 1.324 1.764 3.53-.66 4.853z" transform="translate(311 328)"/>
            <path fill="#24126A" d="M349.304 85.808L148.462 201.843c-2.204 1.323-5.511 1.323-7.495.22L21.035 132.795c-1.984-1.103-1.764-3.088.44-4.191L222.318 12.569c2.205-1.324 5.512-1.324 7.496-.22l119.932 69.267c1.984 1.103 1.763 2.868-.441 4.192z" opacity=".3" transform="translate(311 328)"/>
            <path fill="#FFF" d="M1.414 134.78l134.041 77.43c2.205 1.324 5.952 1.104 8.378-.44l224.65-129.933c1.103-.662 1.765-1.324 1.985-2.206.441 1.103-.22 2.426-1.984 3.309L143.833 212.872c-2.426 1.324-6.173 1.545-8.378.442L1.414 135.884C.31 135.221-.13 134.118.09 133.235c.22.662.661 1.103 1.323 1.544z" transform="translate(311 328)"/>
        </g>
        <path fill="#42E8E0" d="M457.138 345l.44-.657-71.258-40.927 187.164-107.461c5.278-3.064 11.876-3.064 17.154 0l60.922 35.018.44-.657-60.922-35.018c-5.498-3.064-12.316-3.064-17.814 0L385 303.416l.44.219L457.138 345z"/>
        <g fill="#42E8E0">
            <path d="M35.548 512.3l46.71-26.191c10.191-5.694 19.25-18.505 22.364-31.6l40.482-167.68c2.548-11.102 8.493-20.496 15.287-26.76l-6.228-19.073c-1.981-5.979-5.662-9.11-11.04-9.11h-.567c-11.323.57-27.176 14.803-31.989 34.731l-40.482 167.68c-3.114 13.38-12.456 26.19-22.93 32.169L.726 492.656l-.566-.854 46.71-26.19c10.192-5.694 19.25-18.505 22.365-31.6l40.482-167.68c4.812-20.497 20.949-35.016 32.838-35.3 5.945-.285 10.475 3.131 12.74 9.679l5.944 18.79c5.38-4.84 11.607-7.687 16.703-7.972 5.945-.285 10.474 3.131 12.739 9.68l5.945 18.504.85-.57c9.624-5.409 18.117-17.65 21.514-29.892 5.379-19.643 20.666-32.738 31.707-33.592 5.661-.57 10.19 2.277 12.739 7.401l9.059 19.074c4.812-3.7 9.625-5.978 13.871-6.263 5.662-.57 10.191 2.278 12.74 7.402l3.963 8.825 4.246-2.562c10.191-5.978 19.25-19.074 22.081-32.17l40.2-181.058c4.529-20.213 20.665-35.301 32.555-36.155 5.945-.285 10.474 2.847 12.739 9.11l6.794 19.073c5.096-4.555 10.758-7.117 15.57-7.401 5.945-.285 10.475 2.846 12.74 9.11l58.6 160.846 26.327-15.088h.283l36.236 21.067-33.688 19.643c-5.379 3.131-10.758 3.985-15.287 2.562-3.397-1.139-6.228-3.986-7.644-8.256l-6.51-18.22-5.946 3.416c-5.378 3.132-10.757 3.986-15.287 2.563-3.397-1.14-6.228-3.986-7.643-8.256L421.402 30.614c-7.077 6.263-13.022 15.942-15.57 27.33l-40.2 181.059c-3.113 13.38-12.172 26.76-22.646 32.739l-9.626 5.693c-5.378 3.132-10.474 3.986-14.72 2.562-3.397-1.138-5.945-3.416-7.36-6.832l-8.777-18.79-4.53 2.563c-5.378 3.131-10.473 3.986-14.72 2.562-3.397-1.139-5.945-3.416-7.36-6.832l-3.964-8.256c-7.077 5.693-13.588 14.803-16.702 26.19-3.397 12.527-12.456 24.768-22.081 30.462l-8.493 4.84c-5.662 3.131-11.04 3.985-15.287 2.562-3.68-1.424-6.228-4.27-7.643-8.825l-5.945-17.936-6.511 3.701c-5.662 3.132-11.041 3.986-15.287 2.563-3.68-1.424-6.228-4.27-7.644-8.826l-5.662-17.365c-6.51 6.263-12.173 15.373-14.72 25.906L105.47 455.363c-3.114 13.38-12.456 26.19-22.93 32.17l-46.71 26.19-.283-1.423zm226.756-288.955c-2.264-5.124-6.228-7.402-11.606-6.832-10.758.854-25.479 13.665-30.857 33.023-3.398 12.526-12.457 24.768-22.082 30.461l-1.132.57 5.945 18.22c1.415 3.985 3.68 6.832 7.077 8.255 3.963 1.708 9.342.854 14.721-2.277l8.493-4.84c9.625-5.409 18.118-17.65 21.515-29.892 3.114-11.672 9.908-21.066 16.985-27.045l-9.059-19.643zm-72.754 37.863c-1.982-5.978-5.945-9.11-11.607-9.11-5.096.285-11.04 3.132-16.42 7.971l5.662 17.936c1.416 3.985 3.68 6.832 7.078 8.255 3.963 1.709 9.342.854 14.72-2.277l6.795-3.986-6.228-18.789zM414.042 9.548c-2.265-5.98-6.228-8.826-11.89-8.257-11.324.854-27.177 15.373-31.707 35.301l-40.482 181.06c-3.114 13.38-12.173 26.76-22.647 32.738l-4.53 2.562 8.776 18.79c1.416 3.131 3.964 5.409 7.078 6.263 3.963 1.138 8.775.284 13.871-2.563l9.625-5.693c10.192-5.979 19.25-19.074 22.081-32.17l40.2-181.059c2.547-11.672 9.058-21.351 16.136-27.899l-6.511-19.074zM297.69 243.841c-2.265-5.124-6.511-7.401-11.607-6.832-4.246.285-8.776 2.562-13.588 5.978l3.963 8.54c1.415 3.132 3.963 5.41 7.077 6.264 3.964 1.139 8.776.285 13.872-2.562l4.53-2.562-4.247-8.826zm237.514-67.754l-26.044 15.088 6.794 18.504c1.415 3.701 3.68 6.548 7.077 7.687 3.963 1.423 9.059.57 14.438-2.562l32.555-18.79-34.82-19.927zM449.428 30.045c-2.265-5.979-6.228-8.826-11.89-8.256-4.812.284-10.191 3.131-15.287 7.401l58.317 160.278c1.416 3.7 3.68 6.547 7.078 7.686 3.963 1.424 9.059.57 14.437-2.562l6.228-3.416-58.883-161.131z"/>
            <path d="M444.049 22.927L444.616 22.358 408.946 1.576 408.38 2.43z"/>
            <path d="M275.851 207.309L275.851 207.309 275.75 248.98 275.75 248.98z" transform="rotate(-60.025 275.8 228.145)"/>
            <path d="M166.258 221.594L166.258 221.594 166.153 264.965 166.153 264.965z" transform="rotate(-60.163 166.206 243.28)"/>
            <path d="M35.548 512.3l46.71-26.191c10.191-5.694 19.25-18.505 22.364-31.6l40.482-167.68c2.548-11.102 8.493-20.496 15.287-26.76l-6.228-19.073c-1.981-5.979-5.662-9.11-11.04-9.11h-.567c-11.323.57-27.176 14.803-31.989 34.731l-40.482 167.68c-3.114 13.38-12.456 26.19-22.93 32.169L.726 492.656l-.566-.854 46.71-26.19c10.192-5.694 19.25-18.505 22.365-31.6l40.482-167.68c4.812-20.497 20.949-35.016 32.838-35.3 5.945-.285 10.475 3.131 12.74 9.679l5.944 18.79c5.38-4.84 11.607-7.687 16.703-7.972 5.945-.285 10.474 3.131 12.739 9.68l5.945 18.504.85-.57c9.624-5.409 18.117-17.65 21.514-29.892 5.379-19.643 20.666-32.738 31.707-33.592 5.661-.57 10.19 2.277 12.739 7.401l9.059 19.074c4.812-3.7 9.625-5.978 13.871-6.263 5.662-.57 10.191 2.278 12.74 7.402l3.963 8.825 4.246-2.562c10.191-5.978 19.25-19.074 22.081-32.17l40.2-181.058c4.529-20.213 20.665-35.301 32.555-36.155 5.945-.285 10.474 2.847 12.739 9.11l6.794 19.073c5.096-4.555 10.758-7.117 15.57-7.401 5.945-.285 10.475 2.846 12.74 9.11l58.6 160.846 26.327-15.088h.283l36.236 21.067-33.688 19.643c-5.379 3.131-10.758 3.985-15.287 2.562-3.397-1.139-6.228-3.986-7.644-8.256l-6.51-18.22-5.946 3.416c-5.378 3.132-10.757 3.986-15.287 2.563-3.397-1.14-6.228-3.986-7.643-8.256L421.402 30.614c-7.077 6.263-13.022 15.942-15.57 27.33l-40.2 181.059c-3.113 13.38-12.172 26.76-22.646 32.739l-9.626 5.693c-5.378 3.132-10.474 3.986-14.72 2.562-3.397-1.138-5.945-3.416-7.36-6.832l-8.777-18.79-4.53 2.563c-5.378 3.131-10.473 3.986-14.72 2.562-3.397-1.139-5.945-3.416-7.36-6.832l-3.964-8.256c-7.077 5.693-13.588 14.803-16.702 26.19-3.397 12.527-12.456 24.768-22.081 30.462l-8.493 4.84c-5.662 3.131-11.04 3.985-15.287 2.562-3.68-1.424-6.228-4.27-7.643-8.825l-5.945-17.936-6.511 3.701c-5.662 3.132-11.041 3.986-15.287 2.563-3.68-1.424-6.228-4.27-7.644-8.826l-5.662-17.365c-6.51 6.263-12.173 15.373-14.72 25.906L105.47 455.363c-3.114 13.38-12.456 26.19-22.93 32.17l-46.71 26.19-.283-1.423zm226.756-288.955c-2.264-5.124-6.228-7.402-11.606-6.832-10.758.854-25.479 13.665-30.857 33.023-3.398 12.526-12.457 24.768-22.082 30.461l-1.132.57 5.945 18.22c1.415 3.985 3.68 6.832 7.077 8.255 3.963 1.708 9.342.854 14.721-2.277l8.493-4.84c9.625-5.409 18.118-17.65 21.515-29.892 3.114-11.672 9.908-21.066 16.985-27.045l-9.059-19.643zm-72.754 37.863c-1.982-5.978-5.945-9.11-11.607-9.11-5.096.285-11.04 3.132-16.42 7.971l5.662 17.936c1.416 3.985 3.68 6.832 7.078 8.255 3.963 1.709 9.342.854 14.72-2.277l6.795-3.986-6.228-18.789zM414.042 9.548c-2.265-5.98-6.228-8.826-11.89-8.257-11.324.854-27.177 15.373-31.707 35.301l-40.482 181.06c-3.114 13.38-12.173 26.76-22.647 32.738l-4.53 2.562 8.776 18.79c1.416 3.131 3.964 5.409 7.078 6.263 3.963 1.138 8.775.284 13.871-2.563l9.625-5.693c10.192-5.979 19.25-19.074 22.081-32.17l40.2-181.059c2.547-11.672 9.058-21.351 16.136-27.899l-6.511-19.074zM297.69 243.841c-2.265-5.124-6.511-7.401-11.607-6.832-4.246.285-8.776 2.562-13.588 5.978l3.963 8.54c1.415 3.132 3.963 5.41 7.077 6.264 3.964 1.139 8.776.285 13.872-2.562l4.53-2.562-4.247-8.826zm237.514-67.754l-26.044 15.088 6.794 18.504c1.415 3.701 3.68 6.548 7.077 7.687 3.963 1.423 9.059.57 14.438-2.562l32.555-18.79-34.82-19.927zM449.428 30.045c-2.265-5.979-6.228-8.826-11.89-8.256-4.812.284-10.191 3.131-15.287 7.401l58.317 160.278c1.416 3.7 3.68 6.547 7.078 7.686 3.963 1.424 9.059.57 14.437-2.562l6.228-3.416-58.883-161.131z"/>
        </g>
        <path fill="url(#prefix__c)" d="M534.659 175.385L501.56 194.73c-9.901 5.69-18.67 3.698-22.065-5.406L414.148 9.528c-7.355-20.483-37.907-1.991-44.413 27.026l-40.17 180.935c-2.83 13.37-12.164 26.457-22.348 32.431l-9.619 5.69c-9.335 5.405-17.822 3.983-21.5-3.983l-13.295-28.448c-8.204-17.639-35.927-1.138-43.282 26.172-3.394 12.518-12.164 24.466-21.782 30.156l-8.487 4.836c-10.184 5.975-19.236 3.414-22.348-5.974l-12.73-37.837c-6.79-21.336-37.624-3.414-44.413 25.604L69.308 433.984c-3.112 13.087-12.447 26.173-22.631 31.863L0 492.02l534.659-316.635z" opacity=".5"/>
        <path fill="url(#prefix__d)" d="M570.303 195.674l-33.133 19.345c-9.912 5.69-18.69 3.699-22.089-5.405L449.665 29.817c-7.363-20.483-37.948-1.991-44.46 27.027L364.99 237.778c-2.831 13.371-12.177 26.458-22.371 32.432l-9.629 5.69c-9.345 5.405-17.84 3.982-21.522-3.983l-13.31-28.449c-8.212-17.638-35.965-1.138-43.328 26.173-3.398 12.517-12.177 24.466-21.805 30.156l-8.496 4.836c-10.195 5.974-19.257 3.414-22.372-5.974l-12.177-37.553c-6.796-21.336-37.664-3.414-44.46 25.604l-40.496 167.564c-3.115 13.086-12.46 26.173-22.655 31.862L35.644 512.31l534.659-316.635z" opacity=".5"/>
        <path fill="#42B1E7" d="M657.954 365.77l-43.958-25.417c-2.664-1.561-3.996-3.568-3.996-5.797 0-2.23 1.332-4.237 3.996-5.797l43.958-25.418c5.328-3.121 13.764-3.121 19.092 0l43.958 25.418c2.664 1.56 3.996 3.567 3.996 5.797 0 2.23-1.332 4.236-3.996 5.797l-43.958 25.417c-2.664 1.561-5.994 2.23-9.546 2.23-3.33 0-6.882-.892-9.546-2.23zm62.606-26.31c2.442-1.337 3.774-3.12 3.774-5.127 0-2.007-1.332-3.79-3.552-5.128l-43.958-25.418c-5.106-2.898-13.32-2.898-18.204 0l-43.958 25.418c-2.442 1.337-3.774 3.121-3.774 5.128 0 2.006 1.332 3.79 3.552 5.128l43.958 25.418c5.106 2.898 13.32 2.898 18.204 0l43.958-25.418z"/>
        <g>
            <g>
                <path fill="#42E8E0" d="M49.918 95.4L5.794 70.33c-2.228-1.32-3.565-3.078-3.565-5.058 0-1.979 1.337-3.738 3.565-5.057l44.124-25.07c4.68-2.639 12.034-2.639 16.714 0l44.125 25.07c2.228 1.319 3.565 3.078 3.565 5.057 0 1.98-1.337 3.739-3.565 5.058L66.632 95.4c-2.228 1.319-5.348 1.979-8.245 1.979-3.12-.22-6.24-.88-8.469-1.98zm60.17-25.95c2.006-1.099 3.12-2.638 3.12-4.397 0-1.54-1.114-3.08-3.12-4.399L65.964 35.585c-4.457-2.419-11.366-2.419-15.823 0L6.24 60.875c-2.006 1.099-3.12 2.638-3.12 4.397 0 1.54 1.114 3.08 3.12 4.399L50.364 94.74c4.457 2.419 11.366 2.419 15.823 0l43.901-25.29z" transform="translate(166 368) translate(0 122.742)"/>
                <path fill="#4272E8" d="M.891 55.597V40.643l2.675-1.54c.891 4.619 6.24 7.697 10.92 8.357L46.13 65.712l13.817 4.838 43.901-22.43-1.114-.66c3.788-1.76 5.794-5.718 7.8-9.236l2.897 1.76 1.783.439v15.174c0 1.979-1.337 3.958-3.789 5.277l-44.124 25.07c-5.126 2.858-13.594 2.858-18.72 0L4.457 60.874C2.006 59.335.669 57.576.669 55.597c.222.22.222 0 .222 0z" opacity=".4" transform="translate(166 368) translate(0 122.742)"/>
                <path fill="url(#prefix__e)" d="M.891 42.402v-9.896l2.675-1.539c.891 4.618 6.24 7.697 10.92 8.357L46.13 57.576l13.817 4.838 43.901-22.43-1.114-.66c3.788-1.76 5.794-5.718 7.8-9.237l2.897 1.76 1.783.44v10.115c0 1.98-1.337 3.959-3.789 5.278L67.301 72.75c-5.126 2.858-13.594 2.858-18.72 0L4.457 47.68C2.006 46.14.669 44.38.669 42.402c.222.22.222 0 .222 0z" transform="translate(166 368) translate(0 122.742)"/>
                <path fill="#0F054C" d="M14.708 39.324l31.645 18.252 12.034 4.178v13.414c-3.343 0-6.686-.66-9.36-2.199L4.903 47.9c-2.452-1.538-3.789-3.298-3.789-5.277V32.506l2.452-1.319h.222c.669 4.398 6.24 7.477 10.92 8.137z" opacity=".3" transform="translate(166 368) translate(0 122.742)"/>
                <path fill="url(#prefix__f)" d="M102.957 39.543l-41.673-23.75c-1.56-.879-4.234-.879-6.017 0l-41.005 23.31.446.22c-4.68-.66-10.251-3.738-10.92-8.356l46.13-25.29L63.29 2.16l10.92 6.378 36.77 21.55c-2.228 3.739-4.234 7.697-8.022 9.456z" transform="translate(166 368) translate(0 122.742)"/>
                <path fill="#0F054C" d="M58.164 3.479l4.903-1.32 10.92 6.378 36.77 21.55c-2.006 3.519-4.012 7.477-7.8 9.237l-41.673-23.75c-.892-.44-2.006-.66-2.897-.66V3.479h-.223z" opacity=".3" transform="translate(166 368) translate(0 122.742)"/>
                <path fill="url(#prefix__g)" d="M48.804 62.853L4.68 37.784c-5.126-2.859-5.126-7.697 0-10.555l44.124-25.07c5.126-2.858 13.594-2.858 18.72 0l44.124 25.07c5.126 2.858 5.126 7.696 0 10.775l-44.124 25.07c-5.126 2.858-13.594 2.858-18.72-.22zM11.143 30.747c-1.56.88-1.56 2.42 0 3.519l44.124 25.069c1.56.88 4.234.88 6.017 0l44.124-25.07c1.56-.879 1.56-2.418 0-3.518L61.284 5.677c-1.56-.879-4.234-.879-6.017 0l-44.124 25.07z" transform="translate(166 368) translate(0 122.742)"/>
                <g fill="#FFF">
                    <path d="M10.349 25.943L54.473.874c1.56-.88 4.234-.88 6.017 0l44.125 25.07c1.114.66 1.56 1.539 1.114 2.418-.223-.44-.446-.88-1.114-1.1L60.49 2.195c-1.56-.88-4.234-.88-6.017 0L10.35 27.263c-.446.22-.892.66-1.114 1.1-.446-.88 0-1.76 1.114-2.42z" transform="translate(166 368) translate(0 122.742) translate(.794 4.804)"/>
                    <path d="M3.886 32.98l44.125 25.07c5.125 2.858 13.593 2.858 18.719 0l44.124-25.07c2.229-1.319 3.566-3.078 3.789-4.618.223 2.2-.892 4.399-3.789 5.938L66.73 59.37c-5.126 2.858-13.594 2.858-18.72 0L3.887 34.3C.99 32.76-.348 30.56.098 28.362c.223 1.76 1.56 3.299 3.788 4.618z" transform="translate(166 368) translate(0 122.742) translate(.794 4.804)"/>
                </g>
                <path fill="url(#prefix__h)" d="M50.141 62.194L6.017 37.124c-4.457-2.638-4.457-6.597 0-9.236L50.141 2.82C54.598.18 61.952.18 66.41 2.82l44.125 25.07c4.457 2.638 4.457 6.597 0 9.235l-44.125 25.07c-4.68 2.639-11.81 2.639-16.268 0zM9.805 30.087c-2.228 1.32-2.228 3.519 0 4.838l44.125 25.07c2.228 1.32 6.24 1.32 8.468 0l44.124-25.07c2.229-1.319 2.229-3.518 0-4.838L62.398 5.018c-2.228-1.32-6.24-1.32-8.468 0L9.805 30.088z" transform="translate(166 368) translate(0 122.742)"/>
                <path fill="#42E8E0" d="M55.267 5.678c1.56-.88 4.234-.88 6.017 0l44.124 25.07c1.56.879 1.56 2.418 0 3.518L61.284 59.335c-1.56.88-4.234.88-6.017 0l-44.124-25.07c-1.56-.879-1.56-2.418 0-3.518l44.124-25.07z" opacity=".4" transform="translate(166 368) translate(0 122.742)"/>
            </g>
            <path fill="url(#prefix__i)" d="M9.805 155.248V.214h96.717v155.034c0 .66-.445 1.32-1.337 1.76l-44.124 25.069c-1.56.88-4.234.88-6.017 0l-43.901-25.07c-.892-.44-1.338-1.1-1.338-1.759z" opacity=".5" transform="translate(166 368)"/>
        </g>
        <g>
            <path fill="#42E8E0" d="M49.295 95.924L5.12 70.9c-2.231-1.317-3.57-3.073-3.57-5.048 0-1.976 1.339-3.732 3.57-5.049L49.295 35.78c4.685-2.635 12.047-2.635 16.732 0l44.174 25.023c2.231 1.317 3.57 3.073 3.57 5.049 0 1.975-1.339 3.731-3.57 5.048L65.804 95.924c-2.23 1.317-5.354 1.976-8.255 1.976-2.9 0-6.023-.659-8.254-1.976zm60.46-25.682c2.008-1.098 3.124-2.634 3.124-4.39 0-1.537-1.116-3.073-3.124-4.39L65.581 36.438c-4.462-2.415-11.601-2.415-15.84 0L5.567 61.462c-2.008 1.097-3.124 2.634-3.124 4.39 0 1.536 1.116 3.073 3.124 4.39L49.74 95.266c4.462 2.414 11.378 2.414 15.84 0l44.174-25.024z" transform="translate(609 173)"/>
            <path fill="#424FE8" d="M.212 56.194V41.267l2.678-1.536c.669 4.61 6.247 7.682 10.932 8.34l31.68 18.22 13.832 4.829 43.951-22.39-1.115-.658c3.792-1.756 5.8-5.707 7.808-9.22l2.9 1.757 1.785.439v15.146c0 1.975-1.338 3.95-3.792 5.268L66.92 86.705c-5.132 2.854-13.61 2.854-18.74 0L4.004 61.68C1.551 60.145.212 58.39.212 56.413v-.22z" opacity=".4" transform="translate(609 173)"/>
            <path fill="url(#prefix__j)" d="M.212 43.023v-9.878L2.89 31.61c.669 4.61 6.247 7.683 10.932 8.341l31.68 18.22 13.832 4.828 43.951-22.39-1.115-.658c3.792-1.756 5.8-5.707 7.808-9.22l2.9 1.757 1.785.439v10.097c0 1.976-1.338 3.951-3.792 5.268L66.92 73.535c-5.132 2.853-13.61 2.853-18.74 0L4.004 48.51C1.551 46.974.212 45.218.212 43.243v-.22z" transform="translate(609 173)"/>
            <path fill="#0F054C" d="M14.045 39.95l31.68 18.22 12.048 4.17v13.39c-3.347 0-6.693-.659-9.37-2.195L4.227 48.51C1.774 46.974.436 45.218.436 43.243V33.145l2.454-1.317h.223c.67 4.61 6.247 7.464 10.932 8.122z" opacity=".3" transform="translate(609 173)"/>
            <path fill="url(#prefix__k)" d="M48.18 63.657L4.004 38.414c-5.131-2.854-5.131-7.683 0-10.756L48.18 2.634c5.132-2.854 13.61-2.854 18.74 0l44.175 25.024c5.131 2.853 5.131 7.682 0 10.756L66.92 63.437c-5.132 3.073-13.61 3.073-18.74.22z" transform="translate(609 173)"/>
            <path fill="#FFF" d="M4.005 38.414L48.18 63.437c5.132 2.854 13.61 2.854 18.74 0l44.175-25.023c2.23-1.317 3.57-3.074 3.792-4.61.224 2.195-.892 4.39-3.792 5.927L66.92 64.754c-5.132 2.854-13.61 2.854-18.74 0L4.004 39.731c-2.9-1.537-4.239-3.732-3.793-5.927.224 1.756 1.562 3.293 3.793 4.61z" transform="translate(609 173)"/>
        </g>
        <path fill="#42B2E8" d="M392.852 651c3.759 0 7.297-.889 10.17-2.444l175.777-102c2.874-1.556 4.201-3.778 4.201-6 0-2.223-1.548-4.445-4.2-6L541.653 513l-.442.667 37.145 21.555c2.432 1.556 3.98 3.334 3.98 5.334 0 2-1.327 4-3.98 5.333l-175.776 102c-5.307 3.111-14.15 3.111-19.457 0l-128.682-74.445-.442.667 128.681 74.445c2.875 1.555 6.412 2.444 10.171 2.444z"/>
        <path fill="#48A4E1" d="M737.807 316.785l-43.621-25.25c-2.644-1.55-4.186-3.765-4.186-5.98 0-2.215 1.542-4.43 4.186-5.98l43.62-25.25c5.288-3.1 13.88-3.1 19.387 0l43.621 25.25c2.644 1.55 4.186 3.765 4.186 5.98 0 2.215-1.542 4.43-4.186 5.98l-43.62 25.25c-2.644 1.55-6.17 2.215-9.694 2.215-3.525 0-7.05-.664-9.693-2.215zm62.126-26.578c2.203-1.33 3.525-2.88 3.525-4.652 0-1.772-1.322-3.322-3.525-4.65l-43.62-25.25c-4.847-2.88-12.779-2.88-17.846 0l-43.4 25.028c-2.203 1.329-3.525 2.879-3.525 4.65 0 1.773 1.322 3.323 3.525 4.652l43.62 25.25c4.847 2.88 12.779 2.88 17.846 0l43.4-25.028zM592.807 617.753l-43.621-25.237c-2.644-1.55-4.186-3.764-4.186-5.977 0-2.214 1.542-4.428 4.186-5.978l43.62-25.237c5.288-3.099 13.88-3.099 19.387 0l43.621 25.237c2.644 1.55 4.186 3.764 4.186 5.978 0 2.213-1.542 4.427-4.186 5.977l-43.62 25.237c-2.644 1.55-6.17 2.213-9.694 2.213-3.525.222-7.05-.664-9.693-2.213zm62.126-26.566c2.203-1.328 3.525-2.877 3.525-4.648s-1.322-3.321-3.525-4.65l-43.62-25.236c-4.847-2.878-12.779-2.878-17.846 0l-43.62 25.237c-2.203 1.328-3.525 2.878-3.525 4.649 0 1.77 1.322 3.32 3.525 4.648l43.62 25.237c4.847 2.878 12.778 2.878 17.845 0l43.62-25.237z"/>
        <g>
            <path fill="#66C5FF" d="M345.946 211.694c0 4.033-5.816 9.614-9.362 7.657L165.57 121.03c-1.839-.99-3.014-2.871-3.09-4.948L160.655 8.258c-.173-4.53 8.004-9.913 12.033-7.775L338.608 88.43c4.484 2.352 7.29 6.976 7.293 12.015l.045 111.25z" transform="matrix(-1 0 0 1 695.584 227.753)"/>
            <path fill="#D2F0FF" d="M342.953 214.456c-.003 1.877-1.005 3.614-2.636 4.566-1.631.952-3.648.978-5.303.068l-173.228-95.554c-1.841-.998-3.02-2.882-3.104-4.962L160.239 8.1c-.09-2.114.968-4.115 2.773-5.241 1.805-1.127 4.08-1.207 5.962-.211l166.69 88.212c4.504 2.359 7.323 6.996 7.326 12.05l-.037 111.546z" transform="matrix(-1 0 0 1 695.584 227.753)"/>
            <path fill="url(#prefix__l)" d="M340.033 210.741c0 1.811-.965 3.487-2.538 4.404-1.573.917-3.517.938-5.11.055l-166.77-92.032c-1.78-.95-2.92-2.77-2.99-4.776l1.5-103.73c-.071-2.027.954-3.939 2.688-5.012 1.735-1.074 3.915-1.147 5.718-.19L333.017 94.37c4.317 2.287 7.014 6.748 7.016 11.606v104.764z" transform="matrix(-1 0 0 1 695.584 227.753)"/>
            <path fill="#66C5FF" d="M340.033 208.786c-.002 1.81-.964 3.484-2.531 4.402-1.568.918-3.506.943-5.096.065L164.6 12.737c-.08-2.033.938-3.953 2.67-5.034 1.731-1.08 3.911-1.155 5.714-.197L333.035 92.41c4.306 2.287 6.996 6.748 6.998 11.605v104.772z" opacity=".3" transform="matrix(-1 0 0 1 695.584 227.753)"/>
            <path fill="#66C5FF" d="M232.035 283.85L60.762 191.966c-1.576-.844-2.573-2.46-2.61-4.233-.038-1.773.889-3.43 2.427-4.339l95.704-56.81c3.388-2.01 7.599-2.092 11.065-.217l172.974 93.778c1.018.554 1.659 1.603 1.681 2.752.023 1.148-.576 2.222-1.57 2.815l-97.388 57.932c-3.375 1.99-7.561 2.069-11.01.208z" transform="matrix(-1 0 0 1 695.584 227.753)"/>
            <path fill="#D2F0FF" d="M232.035 279.948L60.762 188.066c-1.576-.845-2.573-2.461-2.61-4.234-.038-1.772.889-3.429 2.427-4.338l95.704-56.817c3.388-2.01 7.599-2.093 11.065-.217l172.974 93.774c1.018.554 1.659 1.604 1.681 2.752.023 1.149-.576 2.222-1.57 2.815l-97.388 57.93c-3.373 1.993-7.56 2.075-11.01.217z" transform="matrix(-1 0 0 1 695.584 227.753)"/>
            <path fill="url(#prefix__m)" d="M240.419 261.327l-10.505-5.17c-1.901-.938-2.379-1.93-2.208-3.31.345-1.01.85-1.96 1.496-2.815 0 0 3.297 1.124 4.297 1.61l12.785 5.799s.9 2.576-2.306 3.921l-.145.062c-1.096.47-2.348.434-3.414-.097z" transform="matrix(-1 0 0 1 695.584 227.753)"/>
            <path fill="#66C5FF" d="M240.406 261.325l-10.502-5.196c-3.152-1.555-2.909-4.761.388-5.987 0 0 2.197-.329 3.197.15l10.645 5.135c3.099 1.501 3 4.584-.17 5.934l-.145.062c-1.096.47-2.347.435-3.413-.098z" transform="matrix(-1 0 0 1 695.584 227.753)"/>
            <path fill="url(#prefix__n)" d="M220.72 250.594l-10.516-5.18c-1.903-.938-2.381-1.93-2.21-3.31.342-1.012.847-1.962 1.498-2.816 0 0 3.3 1.125 4.302 1.612l12.789 5.798s.857 2.585-2.31 3.93l-.143.054c-1.095.465-2.342.432-3.41-.088z" transform="matrix(-1 0 0 1 695.584 227.753)"/>
            <path fill="#66C5FF" d="M220.697 249.628l-10.501-5.22c-3.153-1.562-2.918-4.767.387-5.983 0 0 2.197-.337 3.197.151l10.646 5.13c3.098 1.492 2.99 4.572-.172 5.93l-.144.054c-1.091.477-2.34.454-3.413-.062z" transform="matrix(-1 0 0 1 695.584 227.753)"/>
            <path fill="url(#prefix__o)" d="M106.358 189.046l-10.492-5.171c-1.898-.929-2.366-1.919-2.204-3.298.345-1.01.849-1.962 1.494-2.82 0 0 3.293 1.132 4.291 1.609l12.795 5.8s.9 2.572-2.303 3.915l-.144.062c-1.102.478-2.365.442-3.437-.097z" transform="matrix(-1 0 0 1 695.584 227.753)"/>
            <path fill="#66C5FF" d="M106.364 189.05l-10.501-5.196c-3.153-1.555-2.91-4.761.387-5.987 0 0 2.197-.329 3.197.15l10.645 5.135c3.099 1.501 3 4.584-.17 5.934l-.145.062c-1.095.471-2.347.435-3.413-.098z" transform="matrix(-1 0 0 1 695.584 227.753)"/>
            <path fill="url(#prefix__p)" d="M202.862 240.825l-88.242-46.05c-1.92-.961-2.402-1.968-2.229-3.382.347-1.038.857-2.014 1.51-2.892 0 0 3.33 1.16 4.34 1.65l12.908 5.948 77.799 41.117c-.01.53-.083 1.056-.219 1.569-.334.59-.786 1.105-1.328 1.514-.662.452-1.412.76-2.201.906-.8.108-1.614-.025-2.338-.38z" transform="matrix(-1 0 0 1 695.584 227.753)"/>
            <path fill="#66C5FF" d="M202.86 239.82l-88.248-46.067c-3.185-1.596-2.939-4.861.39-6.113 0 0 2.22-.345 3.23.154l88.43 46.013c3.13 1.524 3.021 4.671-.181 6.05l-.137.063c-1.117.493-2.397.456-3.484-.1z" transform="matrix(-1 0 0 1 695.584 227.753)"/>
            <path fill="url(#prefix__q)" d="M255.02 251.579l-148.29-79.224c-1.914-.967-2.397-1.988-2.224-3.41.344-1.043.852-2.025 1.505-2.908 0 0 3.336 1.167 4.357 1.668l12.934 5.972 77.946 41.353s59.743 32.127 59.816 32.501c.405 1.384-.235 2.86-1.523 3.51-.665.457-1.42.768-2.215.912-.788.1-1.589-.03-2.306-.374z" transform="matrix(-1 0 0 1 695.584 227.753)"/>
            <path fill="#66C5FF" d="M255.117 251.553l-148.384-79.262c-3.193-1.596-2.947-4.888.392-6.147 1.08-.184 2.189-.13 3.247.155l148.52 79.199c3.138 1.532 3.029 4.706-.173 6.092l-.145.064c-1.112.475-2.375.438-3.457-.1z" transform="matrix(-1 0 0 1 695.584 227.753)"/>
            <path fill="url(#prefix__r)" d="M268.892 241.813l-87.283-46.025c-1.93-.907-3.375-3.826-3.2-5.24.063-.54.475-.975 1.014-1.07 0 0 3.348 1.16 4.363 1.65l12.979 5.948 78.218 41.128c-.009.527-.083 1.05-.22 1.56-.335.59-.79 1.105-1.335 1.514-.665.454-1.419.763-2.213.906-.795.103-1.602-.027-2.323-.371z" transform="matrix(-1 0 0 1 695.584 227.753)"/>
            <path fill="url(#prefix__s)" d="M234.401 224.229l-88.242-46.058c-1.92-.907-2.401-1.967-2.229-3.382.35-1.037.859-2.012 1.51-2.892 0 0 3.33 1.16 4.34 1.65l12.909 5.948 77.798 41.125c-.009.527-.082 1.05-.218 1.56-.338.587-.79 1.102-1.329 1.514-.663.45-1.412.759-2.201.906-.8.11-1.613-.02-2.338-.371z" transform="matrix(-1 0 0 1 695.584 227.753)"/>
            <path fill="#66C5FF" d="M268.923 241.804l-88.255-46.824c-3.184-1.597-2.984-4.138.346-5.39 0 0 2.22-.336 3.23.154l88.446 46.007c3.14 1.534 3.03 4.683-.173 6.062l-.136.064c-1.108.48-2.371.453-3.458-.073z" transform="matrix(-1 0 0 1 695.584 227.753)"/>
            <path fill="#66C5FF" d="M235.044 222.92l-88.883-45.807c-3.194-1.579-2.957-4.836.392-6.081 0 0 2.226-.334 3.239.153l88.4 46.204c3.138 1.516 3.037 4.647-.174 6.018l-.146.064c-1.113.469-1.752-.01-2.828-.55z" transform="matrix(-1 0 0 1 695.584 227.753)"/>
            <path fill="url(#prefix__t)" d="M134.955 172.365l-18.078-9.34c-.81-.423-.528-3.416-.528-3.416l20.967-10.5c1.414-.82 3.153-.87 4.613-.135l16.629 7.66s.674 3.595-1.122 4.683l-18.15 10.913c-1.315.807-2.967.859-4.33.135z" transform="matrix(-1 0 0 1 695.584 227.753)"/>
            <path fill="#66C5FF" d="M134.99 170.424l-18.067-9.35c-.373-.195-.61-.572-.622-.987-.01-.416.206-.805.567-1.018l20.463-11.913c1.412-.82 3.15-.87 4.61-.135l15.315 7.714c.846.454 1.386 1.315 1.424 2.264.037.95-.434 1.848-1.242 2.366l-18.14 10.915c-1.308.8-2.948.854-4.309.144z" transform="matrix(-1 0 0 1 695.584 227.753)"/>
            <path fill="url(#prefix__u)" d="M299.37 224.244L151.084 145c-1.914-.967-2.398-1.979-2.224-3.401.34-1.045.849-2.027 1.504-2.91 0 0 3.336 1.168 4.348 1.66l12.943 5.973 77.945 41.346s59.742 32.135 59.815 32.509c.41 1.384-.232 2.863-1.522 3.51-.667.456-1.421.767-2.215.912-.787.11-1.589-.014-2.306-.355z" transform="matrix(-1 0 0 1 695.584 227.753)"/>
            <path fill="#66C5FF" d="M299.469 223.227l-148.384-79.25c-3.193-1.606-2.946-4.889.392-6.147 0 0 2.225-.347 3.238.155l148.53 79.186c3.138 1.541 3.028 4.706-.173 6.092l-.146.064c-1.111.479-2.376.442-3.457-.1z" transform="matrix(-1 0 0 1 695.584 227.753)"/>
            <path fill="url(#prefix__v)" d="M282.75 231.056L194.45 185.01c-1.92-.961-2.392-1.977-2.229-3.392.349-1.035.858-2.008 1.51-2.884 0 0 3.33 1.152 4.34 1.65l12.91 5.941 77.8 41.14c-.01.53-.083 1.056-.219 1.568-.334.585-.782 1.097-1.319 1.506-.665.453-1.418.762-2.21.907-.784.094-1.577-.042-2.284-.39z" transform="matrix(-1 0 0 1 695.584 227.753)"/>
            <path fill="#66C5FF" d="M282.693 231.03l-88.248-46.071c-3.184-1.588-2.938-4.862.392-6.113 0 0 2.22-.336 3.23.154l88.429 46.008c3.13 1.533 3.02 4.68-.173 6.059l-.146.063c-1.117.493-2.397.456-3.484-.1zM90.675 206.081l9.856-2.93" transform="matrix(-1 0 0 1 695.584 227.753)"/>
        </g>
        <path fill="#42B1E7" d="M670.974 538c2.208 0 4.195-.447 6.182-1.566l57.844-34-.442-.67-57.844 33.775c-3.532 2.014-7.948 2.014-11.48 0L582.442 487l-.442.671 82.792 48.54c1.987 1.118 4.195 1.789 6.182 1.789z"/>
        <g opacity=".4" transform="translate(170 166)">
            <circle cx="7.286" cy="7.286" r="7.071" fill="#425AE8"/>
            <circle cx="7.286" cy="7.286" r="3" fill="#4742E8"/>
        </g>
        <g opacity=".4" transform="translate(281 39)">
            <circle cx="7.714" cy="7.714" r="7.071" fill="#4275E8"/>
            <circle cx="7.714" cy="7.714" r="3" fill="#427CE8"/>
        </g>
        <g opacity=".4" transform="translate(72 189)">
            <circle cx="7.714" cy="7.5" r="7.071" fill="#4267E8"/>
            <circle cx="7.527" cy="7.688" r="2.813" fill="#4251E8"/>
        </g>
        <path fill="#42AFE6" d="M732.794 504.095c-10.233-5.788-15.794-13.58-15.794-22.04 0-8.236 5.561-16.028 15.794-22.039 20.688-12.021 54.501-12.021 75.412 0 10.233 5.788 15.794 13.58 15.794 22.04 0 8.237-5.561 16.028-15.794 22.04C797.75 510.105 784.18 513 770.61 513c-13.792 0-27.362-3.117-37.817-8.905zm.445-43.411c-9.788 5.788-15.35 13.357-15.35 21.372 0 8.014 5.34 15.583 15.35 21.371 20.466 11.8 54.056 11.8 74.522 0 9.788-5.788 15.35-13.357 15.35-21.371 0-8.015-5.34-15.584-15.35-21.372-10.233-6.01-23.803-8.905-37.372-8.905-13.347 0-26.917 2.894-37.15 8.905z"/>
        <g transform="translate(715 299)">
            <g transform="translate(2.176 .407)">
                <g>
                    <path fill="#5351AF" d="M73.64 34.43c-11.532-6.844-30.246-6.844-41.778 0-1.959 1.103-3.482 2.207-4.788 3.531-6.528-6.622-5.004-15.23 4.788-20.97 11.532-6.843 30.246-6.843 41.779 0 9.792 5.74 11.315 14.348 4.787 20.97-1.306-1.324-2.829-2.428-4.787-3.532z" transform="translate(0 125.82)"/>
                    <path fill="url(#prefix__w)" d="M8.143 29.352c2.176-1.986 4.57-3.973 7.616-5.518 4.57-2.649 9.792-4.856 15.45-6.18-10.88 6.842-10.445 17.658 1.088 24.28 11.75 6.843 30.899 6.843 42.65 0 11.097-6.401 11.75-16.776 1.958-23.619 4.57 1.325 8.921 3.312 12.838 5.519 3.047 1.766 5.44 3.532 7.616 5.518h7.834v16.114c0 7.947-5.223 15.672-15.45 21.632-20.454 11.92-53.747 11.92-74.201 0C5.314 61.138.092 53.192.092 45.466V29.352h8.051z" transform="translate(0 125.82)"/>
                    <path fill="#0F054C" d="M15.542 23.834c4.57-2.649 9.792-4.856 15.45-6.18-10.88 6.842-10.446 17.658 1.087 24.28 5.658 3.311 13.056 5.077 20.672 5.077V76.15c-13.491 0-26.765-3.09-36.992-9.05C5.532 61.138.31 53.191.31 45.465V29.352h7.834c1.958-1.986 4.57-3.752 7.399-5.518z" opacity=".3" transform="translate(0 125.82)"/>
                    <path fill="url(#prefix__x)" d="M15.542 23.834c4.57-2.649 9.792-4.856 15.45-6.18-10.88 6.842-10.446 17.658 1.087 24.28 5.658 3.311 13.056 5.077 20.672 5.077V76.15c-13.491 0-26.765-3.09-36.992-9.05C5.532 61.138.31 53.191.31 45.465V29.352h7.834c1.958-1.986 4.57-3.752 7.399-5.518z" opacity=".5" transform="translate(0 125.82)"/>
                    <path fill="url(#prefix__y)" d="M15.542 52.53c20.454 11.92 53.747 11.92 74.201 0 20.455-11.92 20.455-31.345 0-43.485-20.454-11.92-53.747-11.92-74.201 0-20.455 11.92-20.455 31.344 0 43.485zm16.102-34.215c11.75-6.842 30.9-6.842 42.65 0 11.75 6.843 11.75 18.1 0 24.944-11.75 6.843-30.9 6.843-42.65 0s-11.75-18.1 0-24.944z" transform="translate(0 125.82)"/>
                    <g fill="#FFF">
                        <path d="M15.349 39.727c20.454 11.92 53.747 11.92 74.201 0 9.792-5.74 15.015-13.244 15.232-20.97.436 8.167-4.787 16.334-15.232 22.515-20.454 11.92-53.747 11.92-74.201 0C4.686 35.092-.32 26.924.117 18.757c.217 7.726 5.44 15.23 15.232 20.97zM31.451 5.513c11.75-6.843 30.9-6.843 42.65 0 6.31 3.752 9.139 8.608 8.704 13.244-.435-4.194-3.264-8.388-8.704-11.7-11.75-6.842-30.9-6.842-42.65 0-5.44 3.312-8.486 7.506-8.704 11.7-.435-4.636 2.611-9.492 8.704-13.244z" transform="translate(0 125.82) translate(.193 11.037)"/>
                    </g>
                    <path fill="url(#prefix__z)" d="M17.935 49.44c19.149 11.257 50.048 11.257 68.98 0 19.148-11.258 19.148-29.359 0-40.395-19.15-11.258-50.049-11.258-68.98 0-18.931 11.036-18.931 29.137 0 40.394zm13.927-32.228c11.315-6.622 29.81-6.622 41.126 0 11.315 6.622 11.315 17.438 0 24.06s-29.811 6.622-41.126 0c-11.316-6.622-11.316-17.438 0-24.06z" transform="translate(0 125.82)"/>
                </g>
                <ellipse cx="52.534" cy="154.952" fill="#42E8E0" opacity=".4" rx="29.158" ry="16.997"/>
                <path fill="url(#prefix__A)" d="M23.375 154.731V.656h58.317v154.296c0 4.415-2.829 8.83-8.486 12.14-11.316 6.622-29.812 6.622-41.127 0-6.093-3.31-8.921-7.946-8.704-12.361z" opacity=".5"/>
            </g>
            <g fill="#4290E8">
                <path d="M.207 82.997c0 .883.87 1.766 1.74 1.766s1.741-.883 1.741-1.766-.87-1.766-1.74-1.766c-.871 0-1.741.883-1.741 1.766zM30.67 2.207c0 .883.871 1.766 1.741 1.766.87 0 1.741-.883 1.741-1.766s-.87-1.766-1.74-1.766-1.741.883-1.741 1.766zM27.19 62.69c0 1.545 1.087 2.648 2.61 2.648s2.611-1.103 2.611-2.649c0-1.545-1.088-2.648-2.61-2.648-1.524 0-2.612 1.103-2.612 2.648z" opacity=".4" transform="translate(32.96 10.334)"/>
                <path d="M31.976 107.058c0 1.103.87 1.765 1.741 1.765 1.088 0 1.74-.883 1.74-1.765 0-1.104-.87-1.766-1.74-1.766s-1.74.883-1.74 1.766zM6.082 32.67c0 1.544 1.305 2.869 2.829 2.869 1.523 0 2.828-1.325 2.828-2.87 0-1.545-1.305-2.87-2.828-2.87-1.524 0-2.83 1.325-2.83 2.87zM8.258 41.72c0 1.103.87 1.986 1.958 1.986s1.959-.883 1.959-1.987c0-1.103-.87-1.986-1.959-1.986-1.088.22-1.958.883-1.958 1.986z" opacity=".8" transform="translate(32.96 10.334)"/>
            </g>
            <path fill="#4290E8" d="M14.889 112.536c0 1.545 1.305 2.87 2.829 2.87 1.523 0 2.828-1.325 2.828-2.87 0-1.546-1.305-2.87-2.828-2.87-1.524 0-2.83 1.324-2.83 2.87zM13.583 104.589c0 1.104.87 2.207 2.176 2.207 1.088 0 2.176-.883 2.176-2.207 0-1.104-.87-2.207-2.176-2.207-1.305.22-2.176 1.103-2.176 2.207z" opacity=".8"/>
            <ellipse cx="9.884" cy="103.706" fill="#4290E8" opacity=".8" rx="1.306" ry="1.324"/>
            <path fill="#4290E8" d="M3.356 100.836c-.435.221-.435.883-.218 1.325.218.441.87.441 1.306.22.435-.22.435-.882.217-1.324-.435-.22-.87-.441-1.305-.22zM.745 97.084c-.653.441-.653 1.104-.436 1.766.436.662 1.088.662 1.741.441.653-.441.653-1.103.435-1.766-.435-.662-1.305-.883-1.74-.441zM3.138 94.214c-.653.442-.87 1.325-.435 2.208.435.662 1.306.883 2.176.441.653-.441.87-1.324.435-2.207-.653-.662-1.523-.883-2.176-.442z" opacity=".8"/>
            <ellipse cx="91.919" cy="36.602" fill="#425FE8" opacity=".8" rx="2.829" ry="2.87"/>
            <ellipse cx="100.406" cy="37.264" fill="#425FE8" opacity=".8" rx="1.958" ry="1.987"/>
            <path fill="#425FE8" d="M97.36 43.003c0 .883.652 1.766 1.74 1.766.87 0 1.74-.662 1.74-1.766 0-1.103-.652-1.766-1.74-1.766s-1.74.883-1.74 1.766z" opacity=".8"/>
            <ellipse cx="100.406" cy="46.977" fill="#425FE8" opacity=".8" rx="1.088" ry="1.104"/>
            <path fill="#425FE8" d="M105.41 46.977c-.435.22-.652.662-.652 1.103.217.442.652.662 1.088.662.435-.22.652-.662.652-1.103-.217-.442-.652-.662-1.088-.662z" opacity=".8"/>
            <path fill="#4290E8" d="M14.889 41.458c0 1.545 1.305 2.87 2.829 2.87 1.523 0 2.828-1.325 2.828-2.87 0-1.545-1.305-2.87-2.828-2.87-1.524 0-2.83 1.325-2.83 2.87z" opacity=".8"/>
            <path fill="#425FE8" d="M12.93 33.953c0 1.104.87 1.987 1.959 1.987 1.088 0 1.958-.883 1.958-1.987s-.87-1.987-1.958-1.987c-1.088-.22-1.959.663-1.959 1.987z" opacity=".8"/>
            <ellipse cx="9.231" cy="31.304" fill="#425FE8" opacity=".8" rx="1.523" ry="1.545"/>
            <ellipse cx="4.661" cy="31.746" fill="#425FE8" opacity=".8" rx="1.088" ry="1.104"/>
            <path fill="#42E8E0" d="M1.833 28.655c0 .221.217.442.435.442.217 0 .435-.22.435-.442 0-.22-.218-.441-.435-.441-.218 0-.435.22-.435.441z" opacity=".8"/>
        </g>
        <g fill="#FFF">
            <path d="M89.212 9.641L100.818 3.068 100.38.438 88.775 7.012zM79.359 15.338L85.271 12.051 84.614 9.422 78.921 12.708zM86.804 17.967L91.84 15.119 91.402 12.489 86.366 15.338zM78.702 22.569L84.395 19.282 83.957 16.653 78.264 19.939zM70.162 34.401L92.935 21.254 92.497 18.625 69.724 31.771zM88.994 30.457L93.811 27.608 93.373 24.979 88.556 27.827zM80.673 35.277L86.585 31.771 86.147 29.142 80.235 32.429zM82.424 40.974L94.906 33.743 94.468 31.114 81.986 38.345zM74.103 45.794L80.016 42.508 79.578 39.878 73.666 43.165zM65.783 50.615L71.476 47.328 71.038 44.699 65.345 47.985zM52.206 58.503L63.155 52.149 62.717 49.519 51.768 55.874zM60.965 67.267L66.658 63.981 66.22 61.351 60.527 64.638zM47.389 75.155L58.338 68.801 57.9 66.172 46.951 72.307zM91.183 49.738L97.095 46.452 96.657 43.603 90.745 47.109zM82.862 54.559L88.556 51.272 88.118 48.424 82.424 51.93zM69.286 62.447L80.235 56.093 79.797 53.463 68.848 59.598zM51.549 65.734L57.462 62.447 57.024 59.818 51.111 63.104zM43.229 70.554L48.922 67.267 48.484 64.638 42.791 67.925zM29.652 78.442L40.601 72.088 40.163 69.458 29.214 75.813zM93.373 62.228L99.066 58.941 98.628 56.093 92.935 59.598zM79.797 70.116L90.745 63.762 90.307 61.132 79.359 67.267zM52.863 44.48L58.775 40.974 58.338 38.345 52.425 41.631zM61.622 39.44L67.534 35.934 66.877 33.305 61.184 36.592zM39.506 52.149L50.236 45.794 49.798 43.165 39.068 49.519zM90.745 43.165L96.001 40.097 95.563 37.468 90.307 40.536zM75.417 51.93L88.118 44.699 87.461 42.069 74.979 49.3zM59.87 60.913L72.571 53.682 72.133 51.053 59.432 58.284zM31.404 56.75L36.659 53.902 36.221 51.053 30.966 54.121zM16.076 65.734L28.557 58.503 28.119 55.874 15.419 63.104zM.529 74.717L13.229 67.267 12.792 64.638.091 72.088zM85.271 60.037L97.971 52.587 97.533 49.958 84.833 57.407zM78.702 63.762L82.643 61.57 82.205 58.941 78.264 61.132zM71.914 67.706L75.855 65.514 75.417 62.885 71.476 65.076zM59.651 74.936L69.286 69.239 68.848 66.61 59.213 72.088zM45.856 62.228L49.579 60.037 49.141 57.407 45.418 59.598zM33.375 69.458L43.01 63.762 42.572 61.132 32.937 66.61z" transform="rotate(3 -4430.333 8136.584)"/>
            <path d="M30.747 70.773L40.382 65.295 39.944 62.666 30.309 68.144zM106.292 61.57L110.015 59.379 109.577 56.75 105.854 58.941zM93.811 68.801L103.446 63.323 103.008 60.694 93.373 66.172zM81.33 76.032L90.745 70.554 90.307 67.925 80.892 73.402z" transform="rotate(3 -4430.333 8136.584)"/>
        </g>
        <g fill="#42E8E0" transform="translate(211 391)">
            <path d="M34.576 25.766c0-.88-.849-1.762-1.697-1.762-.849 0-1.697.881-1.697 1.762s.848 1.762 1.697 1.762c.848 0 1.697-.66 1.697-1.762zM4.879 106.589c0-.881-.849-1.762-1.697-1.762-.849 0-1.697.88-1.697 1.762 0 .88.848 1.761 1.697 1.761.848 0 1.697-.88 1.697-1.761z" opacity=".4"/>
            <ellipse cx="5.727" cy="46.247" opacity=".4" rx="2.545" ry="2.643"/>
            <ellipse cx="1.909" cy="1.762" opacity=".8" rx="1.697" ry="1.762"/>
            <path d="M28.848 76.198c0-1.542-1.272-2.863-2.757-2.863s-2.758 1.321-2.758 2.863c0 1.541 1.273 2.863 2.758 2.863s2.757-1.322 2.757-2.863z" opacity=".8"/>
            <ellipse cx="24.818" cy="66.948" opacity=".8" rx="1.909" ry="1.982"/>
        </g>
        <g>
            <path fill="#42E8E0" d="M5.358 62.249c-1.099-.446-1.758-1.56-1.978-3.12L.084 38.633c-.44-2.673.88-6.015 3.077-7.13L56.12.534c1.098-.668 2.197-.668 3.076-.222 1.099.445 1.758 1.56 1.978 3.119l3.296 20.497c.44 2.674-.879 6.016-3.077 7.13l-52.96 30.97c-.659.445-1.318.445-1.977.445-.22 0-.66 0-1.099-.223zM56.56 1.202L3.6 32.17C1.622 33.285.524 36.18.963 38.409L4.26 58.907c.22 1.114.66 2.005 1.539 2.228.659.223 1.538.223 2.197-.223l52.96-30.97c1.978-1.113 3.076-4.01 2.637-6.237L60.296 3.207c-.22-1.114-.66-2.005-1.539-2.228-.22-.223-.659-.223-.879-.223-.22 0-.659.223-1.318.446zM11.227 97.39c-1.099-.446-1.758-1.56-1.978-3.12L5.953 73.772c-.44-2.673.879-6.015 3.076-7.13l52.96-30.968c1.099-.669 2.198-.669 3.077-.223 1.098.446 1.758 1.56 1.977 3.12l3.297 20.497c.44 2.673-.88 6.015-3.077 7.13l-52.96 30.968c-.659.446-1.318.446-1.977.446-.44 0-.88 0-1.1-.223zm51.202-61.048l-52.96 30.97c-1.978 1.113-3.077 4.01-2.637 6.238l3.296 20.497c.22 1.114.66 2.005 1.538 2.228.66.223 1.539.223 2.198-.223l52.96-30.969c1.977-1.114 3.076-4.01 2.637-6.238l-3.297-20.498c-.22-1.114-.659-2.005-1.538-2.228-.22-.222-.66-.222-.879-.222-.44 0-.879.222-1.318.445z" transform="rotate(3 -6005.96 7148.457)"/>
            <path fill="url(#prefix__B)" d="M56.73 28.06c-.882.442-1.765.442-1.986-.441l-6.18-17.01c-.662-1.989-3.53-.222-4.193 2.65l-3.752 17.01c-.22 1.326-1.103 2.43-2.207 3.094l-.883.441c-.883.442-1.765.442-1.986-.441l-1.324-2.651c-.883-1.768-3.31 0-4.194 2.43-.22 1.104-1.103 2.209-1.986 2.872l-.883.441c-.882.663-1.765.221-2.207-.662l-1.103-3.535c-.662-1.988-3.531-.442-4.194 2.43l-3.751 15.906c-.221 1.325-1.104 2.43-2.207 3.093L56.73 28.06z" opacity=".5" transform="rotate(3 -6005.96 7148.457)"/>
            <path fill="#42E8E0" d="M21.196 89.803c1.092-.655 1.966-1.967 2.403-3.278l3.714-15.734c.436-1.749 1.747-2.841 2.621-2.841.219 0 .437 0 .655.655l1.093 3.497c.218.437.437.874.874 1.092.437.219 1.092 0 1.747-.218l.874-.437c1.092-.656 1.966-1.748 2.185-3.06.437-1.53 1.747-2.622 2.621-2.84.437 0 .656 0 .656.437l1.31 2.622c.219.437.437.656.874.874.437.219 1.093 0 1.748-.218l.874-.438c1.092-.655 1.966-1.966 2.403-3.278l3.714-16.827c.437-1.53 1.747-2.84 2.621-3.06.437 0 .656.22.656.438l6.117 16.827c.218.437.436.874.873 1.093.437.218 1.093 0 1.748-.219l-.437-.874c-.437.219-.655.219-1.092.219-.219 0-.219-.219-.437-.437L55.494 46.97c-.218-.655-.874-1.092-1.53-1.092-1.31 0-3.058 1.53-3.495 3.715L46.756 66.42c-.219 1.093-1.093 2.185-1.967 2.84l-.873.438c-.437.218-.656.218-.874.218-.219 0-.219-.218-.437-.437l-1.31-2.622c-.22-.656-.875-1.093-1.53-.874-1.31.218-2.84 1.53-3.277 3.496-.219 1.093-1.092 2.186-1.748 2.623l-.874.437c-.437.218-.655.218-1.092.218-.218 0-.437-.218-.437-.437l-1.092-3.496c-.219-.874-.874-1.093-1.53-1.093-1.31 0-3.058 1.53-3.495 3.715l-3.714 15.735c-.218 1.092-1.092 2.185-1.966 2.622h.656z" transform="rotate(3 -6005.96 7148.457)"/>
        </g>
    </g>
</svg>
