<svg xmlns="http://www.w3.org/2000/svg" xmlns:xlink="http://www.w3.org/1999/xlink" width="76" height="86" viewBox="0 0 76 86">
    <defs>
        <path id="prefix__a" d="M0 0.16L75.904 0.16 75.904 85.615 0 85.615z"/>
    </defs>
    <g fill="none" fill-rule="evenodd">
        <path fill="#FFF" d="M44.616 71.538V20.496c0-.425-.345-.77-.771-.77h-1.35c-.427 0-.772.345-.772.77v52.85l2.893-1.808z"/>
        <g transform="translate(0 .032)">
            <mask id="prefix__b" fill="#fff">
                <use xlink:href="#prefix__a"/>
            </mask>
            <path fill="#FFF" d="M26.323 76.364l10.316 5.828c.801.46 1.786.46 2.578.005l10.342-5.908 21.945-12.675c.8-.46 1.294-1.312 1.294-2.228h.02V24.254c0-.915-.495-1.768-1.291-2.225L49.695 9.583l-10.44-6.005c-.792-.454-1.776-.455-2.568 0L26.234 9.6 4.378 22.163c-.797.458-1.292 1.31-1.292 2.226v37.074c0 .923.488 1.775 1.272 2.226l21.972 12.66-.007.015zm11.61 9.251c-.976 0-1.953-.25-2.825-.75l-10.445-5.901.007-.016L2.816 66.355C1.08 65.358 0 63.483 0 61.463V24.39c0-2.013 1.087-3.888 2.837-4.893L24.691 6.933 35.145.912C36.89-.09 39.054-.09 40.795.91l10.437 6.003 21.83 12.445c1.754 1.007 2.842 2.882 2.842 4.895V61.58h-.023c-.067 1.94-1.14 3.728-2.834 4.7L51.1 78.956l-10.345 5.91c-.87.5-1.845.75-2.82.75z" mask="url(#prefix__b)"/>
        </g>
        <path fill="#FFF" d="M38.174 80.312s-1.968-.962-2.74-1.424l-8.892-5.041v-.02L7.91 63.093c-1.563-.904-2.527-2.578-2.527-4.367V53.28c0-.423.347-.77.771-.77h1.544c.424 0 .771.347.771.77v5.445c0 .692.367 1.347.984 1.693l18.73 10.793v.02l8.796 4.963c.617.366 1.37.347 1.967 0l8.815-5.04L66.471 60.34c.56-.327.926-.904.984-1.558v-4.83c0-.423.347-.769.771-.769h1.544c.424 0 .771.346.771.77v4.675c0 1.79-.964 3.463-2.527 4.367L49.304 73.81l-8.816 5.04c-.771.481-2.314 1.463-2.314 1.463"/>
        <path fill="#FFF" d="M34.534 73.156v-52.85c0-.426-.346-.77-.772-.77h-1.35c-.426 0-.772.344-.772.77v51.042l2.894 1.808zM38.405 14.241c-1.32 0-2.39-1.067-2.39-2.383s1.07-2.383 2.39-2.383 2.39 1.067 2.39 2.383-1.07 2.383-2.39 2.383m0-5.846c-1.917 0-3.472 1.55-3.472 3.463 0 1.912 1.555 3.463 3.472 3.463 1.918 0 3.472-1.55 3.472-3.463s-1.554-3.463-3.472-3.463"/>
        <path fill="#FFF" d="M48.904 18.947c-.718 0-1.3-.581-1.3-1.297 0-.717.582-1.298 1.3-1.298.719 0 1.301.58 1.301 1.298 0 .716-.582 1.297-1.3 1.297m-20.856 0c-.718 0-1.3-.581-1.3-1.297 0-.717.582-1.298 1.3-1.298.718 0 1.3.58 1.3 1.298 0 .716-.582 1.297-1.3 1.297m22.643-1.471c-.096-.924-.829-1.655-1.736-1.732-.617 0-1.215.308-1.581.808-.116-.038-.213-.038-.328-.038H29.532c-.637-.847-1.852-1.02-2.7-.404-.85.635-1.023 1.847-.406 2.693.637.847 1.852 1.02 2.7.404.155-.115.29-.25.406-.404h6.27v59.739l2.333 1.366 2.276-1.366V18.803h6.636c.115 0 .212-.02.328-.038.366.52.945.808 1.581.808 1.061-.096 1.833-1.039 1.736-2.097M68.998 52.173c-.601 0-1.089-.486-1.089-1.086 0-.6.488-1.086 1.089-1.086s1.089.486 1.089 1.086c0 .6-.488 1.086-1.089 1.086m0-2.625c-.852 0-1.543.689-1.543 1.539s.69 1.539 1.543 1.539c.852 0 1.543-.69 1.543-1.54 0-.85-.69-1.538-1.543-1.538M6.925 51.442c-.601 0-1.089-.486-1.089-1.086 0-.6.488-1.086 1.089-1.086s1.089.486 1.089 1.086c0 .6-.488 1.086-1.089 1.086m0-2.625c-.852 0-1.543.689-1.543 1.539s.69 1.539 1.543 1.539c.852 0 1.543-.69 1.543-1.54 0-.85-.69-1.538-1.543-1.538"/>
    </g>
</svg>
