<svg xmlns="http://www.w3.org/2000/svg" width="602" height="586" viewBox="0 0 602 586">
    <defs>
        <linearGradient id="prefix__a" x1="0%" x2="100%" y1="50.002%" y2="50.002%">
            <stop offset="3%" stop-color="#03B2FF"/>
            <stop offset="70%" stop-color="#071492"/>
        </linearGradient>
        <linearGradient id="prefix__c" x1="50.078%" x2="49.682%" y1="33.9%" y2="74.446%">
            <stop offset="12%" stop-color="#041362" stop-opacity="0"/>
            <stop offset="58%" stop-color="#0A4294"/>
            <stop offset="88%" stop-color="#FFF"/>
        </linearGradient>
        <linearGradient id="prefix__d" x1="24.856%" x2="57.97%" y1="6.473%" y2="62.545%">
            <stop offset="0%" stop-color="#030354"/>
            <stop offset="100%" stop-color="#008DE5"/>
        </linearGradient>
        <linearGradient id="prefix__e" x1="24.872%" x2="57.987%" y1="7.609%" y2="62.211%">
            <stop offset="12%" stop-color="#F67C4C"/>
            <stop offset="58%" stop-color="#F67C4C"/>
            <stop offset="88%" stop-color="#DD3A35"/>
        </linearGradient>
        <linearGradient id="prefix__f" x1="40.982%" x2="57.965%" y1="28.937%" y2="62.542%">
            <stop offset="0%" stop-color="#030354"/>
            <stop offset="100%" stop-color="#008DE5"/>
        </linearGradient>
        <linearGradient id="prefix__g" x1="17.047%" x2="72.313%" y1="50.001%" y2="46.868%">
            <stop offset="0%" stop-color="#1B42AB"/>
            <stop offset="100%" stop-color="#2FABF5"/>
        </linearGradient>
        <linearGradient id="prefix__h" x1="-41.978%" x2="415.245%" y1="50.001%" y2="50.001%">
            <stop offset="1%" stop-color="#1B42AB"/>
            <stop offset="25%" stop-color="#2FABF5"/>
        </linearGradient>
        <linearGradient id="prefix__i" x1="29.423%" x2="50%" y1="16.258%" y2="50%">
            <stop offset="0%" stop-color="#030354"/>
            <stop offset="100%" stop-color="#008DE5"/>
        </linearGradient>
        <linearGradient id="prefix__j" x1="49.722%" x2="49.722%" y1="50%" y2="136.457%">
            <stop offset="0%" stop-color="#F67C4C" stop-opacity="0"/>
            <stop offset="58%" stop-color="#F67C4C"/>
            <stop offset="100%" stop-color="#DD3A35"/>
        </linearGradient>
        <linearGradient id="prefix__k" x1="-37.387%" x2="120.283%" y1="49.998%" y2="49.998%">
            <stop offset="0%" stop-color="#1B42AB"/>
            <stop offset="100%" stop-color="#2FABF5"/>
        </linearGradient>
        <linearGradient id="prefix__l" x1="36.765%" x2="58.041%" y1="16.161%" y2="61.971%">
            <stop offset="0%" stop-color="#030354"/>
            <stop offset="100%" stop-color="#008DE5"/>
        </linearGradient>
        <linearGradient id="prefix__m" x1="31.771%" x2="67.833%" y1="19.641%" y2="74.305%">
            <stop offset="58%" stop-color="#030354"/>
            <stop offset="100%" stop-color="#008DE5"/>
        </linearGradient>
        <linearGradient id="prefix__n" x1="0%" x2="100%" y1="50%" y2="50%">
            <stop offset="0%" stop-color="#FFC091"/>
            <stop offset="100%" stop-color="#DD3A35"/>
        </linearGradient>
        <linearGradient id="prefix__o" x1="100%" x2="0%" y1="50%" y2="50%">
            <stop offset="0%" stop-color="#FFC091"/>
            <stop offset="100%" stop-color="#DD3A35"/>
        </linearGradient>
        <linearGradient id="prefix__p" x1="31.967%" x2="58.296%" y1="33.655%" y2="102.667%">
            <stop offset="33%" stop-color="#DD3A35" stop-opacity="0"/>
            <stop offset="95%" stop-color="#DD3A35"/>
        </linearGradient>
        <linearGradient id="prefix__q" x1="3%" x2="92.356%" y1="50.001%" y2="48.394%">
            <stop offset="0%" stop-color="#03B2FF"/>
            <stop offset="100%" stop-color="#071492"/>
        </linearGradient>
        <linearGradient id="prefix__r" x1="29.423%" x2="50%" y1="22.589%" y2="50%">
            <stop offset="0%" stop-color="#030354"/>
            <stop offset="100%" stop-color="#008DE5"/>
        </linearGradient>
        <linearGradient id="prefix__s" x1="62.173%" x2="43.08%" y1="42.202%" y2="103.821%">
            <stop offset="33%" stop-color="#DD3A35" stop-opacity="0"/>
            <stop offset="95%" stop-color="#DD3A35"/>
        </linearGradient>
        <linearGradient id="prefix__t" x1="68.859%" x2="24.297%" y1="-1.465%" y2="120.147%">
            <stop offset="30%" stop-color="#F67C4C" stop-opacity="0"/>
            <stop offset="58%" stop-color="#F67C4C"/>
            <stop offset="88%" stop-color="#DD3A35"/>
        </linearGradient>
        <linearGradient id="prefix__u" x1="45.809%" x2="45.809%" y1="18.226%" y2="55.886%">
            <stop offset="0%" stop-color="#3576D1" stop-opacity="0"/>
            <stop offset="100%" stop-color="#1841A5"/>
        </linearGradient>
        <linearGradient id="prefix__v" x1="-37.453%" x2="143.511%" y1="49.998%" y2="49.998%">
            <stop offset="0%" stop-color="#1B42AB"/>
            <stop offset="100%" stop-color="#2FABF5"/>
        </linearGradient>
        <linearGradient id="prefix__w" x1="60.118%" x2="40.069%" y1="33.834%" y2="64.929%">
            <stop offset="0%" stop-color="#212186"/>
            <stop offset="100%" stop-color="#008DE5"/>
        </linearGradient>
        <linearGradient id="prefix__x" x1="45.809%" x2="45.809%" y1="18.226%" y2="55.886%">
            <stop offset="0%" stop-color="#3576D1" stop-opacity="0"/>
            <stop offset="100%" stop-color="#1841A5"/>
        </linearGradient>
        <linearGradient id="prefix__y" x1="-37.44%" x2="129.395%" y1="49.998%" y2="37.7%">
            <stop offset="0%" stop-color="#1B42AB"/>
            <stop offset="100%" stop-color="#2FABF5"/>
        </linearGradient>
        <linearGradient id="prefix__z" x1="60.097%" x2="40.044%" y1="33.839%" y2="64.917%">
            <stop offset="0%" stop-color="#22228B"/>
            <stop offset="100%" stop-color="#008DE5"/>
        </linearGradient>
        <linearGradient id="prefix__A" x1="60.097%" x2="40.044%" y1="32.809%" y2="65.868%">
            <stop offset="0%" stop-color="#22228B"/>
            <stop offset="100%" stop-color="#008DE5"/>
        </linearGradient>
        <linearGradient id="prefix__B" x1="-37.44%" x2="135.882%" y1="49.998%" y2="49.998%">
            <stop offset="0%" stop-color="#1B42AB"/>
            <stop offset="100%" stop-color="#2FABF5"/>
        </linearGradient>
        <linearGradient id="prefix__C" x1="50%" x2="56.852%" y1="13.817%" y2="93.733%">
            <stop offset="0%" stop-color="#0056AA" stop-opacity="0"/>
            <stop offset="79.785%" stop-color="#2FABF5"/>
            <stop offset="100%" stop-color="#1B42AB"/>
            <stop offset="100%" stop-color="#1B42AB"/>
        </linearGradient>
        <linearGradient id="prefix__D" x1="56.271%" x2="57.256%" y1="23.778%" y2="123.947%">
            <stop offset="0%" stop-color="#0056AA" stop-opacity="0"/>
            <stop offset="58%" stop-color="#2FABF5"/>
            <stop offset="100%" stop-color="#1B42AB"/>
        </linearGradient>
        <linearGradient id="prefix__E" x1="143.063%" x2="143.063%" y1="32.501%" y2="171.253%">
            <stop offset="0%" stop-color="#0056AA" stop-opacity="0"/>
            <stop offset="58%" stop-color="#2FABF5"/>
            <stop offset="100%" stop-color="#1B42AB"/>
        </linearGradient>
        <linearGradient id="prefix__F" x1="51.841%" x2="51.536%" y1="141.85%" y2="-91.964%">
            <stop offset="25%" stop-color="#0056AA" stop-opacity="0"/>
            <stop offset="58%" stop-color="#2FABF5"/>
            <stop offset="74%" stop-color="#1B42AB"/>
        </linearGradient>
        <linearGradient id="prefix__G" x1="54.06%" x2="53.599%" y1="117.143%" y2="-116.823%">
            <stop offset="25%" stop-color="#0056AA" stop-opacity="0"/>
            <stop offset="58%" stop-color="#2FABF5"/>
            <stop offset="74%" stop-color="#1B42AB"/>
        </linearGradient>
        <linearGradient id="prefix__H" x1="61.661%" x2="60.872%" y1="76.516%" y2="-157.814%">
            <stop offset="25%" stop-color="#0056AA" stop-opacity="0"/>
            <stop offset="58%" stop-color="#2FABF5"/>
            <stop offset="74%" stop-color="#1B42AB"/>
        </linearGradient>
        <linearGradient id="prefix__I" x1=".194%" x2="300.388%" y1="50%" y2="50%">
            <stop offset="4%"/>
            <stop offset="31%" stop-color="#041362" stop-opacity="0"/>
        </linearGradient>
        <linearGradient id="prefix__J" x1="-.209%" x2="99.965%" y1="50.006%" y2="50.006%">
            <stop offset="0%" stop-color="#FFC091"/>
            <stop offset="100%" stop-color="#DD3A35"/>
        </linearGradient>
        <linearGradient id="prefix__K" x1="25.583%" x2="112.106%" y1="46.295%" y2="56.538%">
            <stop offset="0%" stop-color="#D64C21"/>
            <stop offset="45%" stop-color="#F67C4C" stop-opacity="0"/>
        </linearGradient>
        <linearGradient id="prefix__L" x1="11.035%" x2="115.546%" y1="71.825%" y2="21.844%">
            <stop offset="0%" stop-color="#FFC091"/>
            <stop offset="100%" stop-color="#DD3A35"/>
        </linearGradient>
        <linearGradient id="prefix__M" x1="63.526%" x2="-44.081%" y1="35.618%" y2="142.981%">
            <stop offset="18%" stop-color="#DDE3E9"/>
            <stop offset="40%" stop-color="#888C8F"/>
        </linearGradient>
        <linearGradient id="prefix__N" x1="0%" x2="192.459%" y1="50%" y2="50%">
            <stop offset="3%" stop-color="#03B2FF"/>
            <stop offset="70%" stop-color="#071492"/>
        </linearGradient>
        <linearGradient id="prefix__O" x1="0%" x2="192.459%" y1="50%" y2="50%">
            <stop offset="3%" stop-color="#03B2FF"/>
            <stop offset="70%" stop-color="#071492"/>
        </linearGradient>
        <linearGradient id="prefix__P" x1="49.957%" x2="242.481%" y1="-1531.72%" y2="-1531.72%">
            <stop offset="3%" stop-color="#03B2FF"/>
            <stop offset="70%" stop-color="#071492"/>
        </linearGradient>
        <linearGradient id="prefix__Q" x1="51.786%" x2="53.264%" y1="-128.138%" y2="83.879%">
            <stop offset="0%" stop-color="#0056AA" stop-opacity="0"/>
            <stop offset="58%" stop-color="#2FABF5"/>
            <stop offset="100%" stop-color="#1B42AB"/>
        </linearGradient>
        <linearGradient id="prefix__R" x1="53.977%" x2="57.269%" y1="-128.138%" y2="83.879%">
            <stop offset="0%" stop-color="#0056AA" stop-opacity="0"/>
            <stop offset="58%" stop-color="#2FABF5"/>
            <stop offset="100%" stop-color="#1B42AB"/>
        </linearGradient>
        <linearGradient id="prefix__S" x1="61.637%" x2="71.268%" y1="-128.138%" y2="83.879%">
            <stop offset="0%" stop-color="#0056AA" stop-opacity="0"/>
            <stop offset="58%" stop-color="#2FABF5"/>
            <stop offset="100%" stop-color="#1B42AB"/>
        </linearGradient>
        <linearGradient id="prefix__T" x1="0%" x2="192.459%" y1="50%" y2="50%">
            <stop offset="0%" stop-color="#FFC091"/>
            <stop offset="100%" stop-color="#DD3A35"/>
        </linearGradient>
        <linearGradient id="prefix__U" x1="0%" x2="192.479%" y1="49.957%" y2="49.957%">
            <stop offset="0%" stop-color="#FFC091"/>
            <stop offset="100%" stop-color="#DD3A35"/>
        </linearGradient>
        <linearGradient id="prefix__V" x1="0%" x2="192.477%" y1="50%" y2="50%">
            <stop offset="0%" stop-color="#FFC091"/>
            <stop offset="100%" stop-color="#DD3A35"/>
        </linearGradient>
        <radialGradient id="prefix__b" cx="46.688%" cy="62.145%" r="132.684%" fx="46.688%" fy="62.145%" gradientTransform="matrix(.523 -.1878 .02659 .26111 .206 .547)">
            <stop offset="0%" stop-color="#071593"/>
            <stop offset="100%" stop-color="#FFF" stop-opacity="0"/>
        </radialGradient>
    </defs>
    <g fill="none" fill-rule="evenodd">
        <g>
            <path stroke="#FFF" stroke-width="2" d="M278.704 476.231L19.188 333.032c-12.935-5.635-11.634-24.336 1.87-28.256l243.816-69.579c8.86-2.514 18.214-2.71 27.172-.571l287.745 69.987c13.993 3.43 15.62 22.703 2.441 28.42l-261.143 143.28c-13.542 5.809-28.866 5.779-42.385-.082z" transform="translate(0 -71) translate(0 174.578)"/>
            <path fill="url(#prefix__a)" fill-rule="nonzero" d="M275.159 452.45L17.079 312.045c-4.497-1.96-7.404-6.416-7.394-11.338v-30.67c.024-2.41 1.714-4.48 4.063-4.976l247.597-79.064c8.85-2.512 18.193-2.708 27.14-.571L582.4 256.659c4.81.69 8.379 4.83 8.37 9.707v29.12c0 5.84-3.445 11.124-8.776 13.46L317.414 452.53c-13.497 5.807-28.78 5.777-42.255-.081z" transform="translate(0 -71) translate(0 174.578)"/>
            <path fill="#B0E1FF" fill-rule="nonzero" d="M278.216 393.76L18.7 281.047c-12.935-5.619-11.634-24.269 1.87-28.178l243.816-59.614c8.86-2.507 18.214-2.704 27.172-.57l287.745 60.021c13.993 3.42 15.62 22.64 2.44 28.341L320.52 393.842c-13.512 5.797-28.813 5.767-42.303-.082z" transform="translate(0 -71) translate(0 174.578)"/>
            <path fill="#66C5FF" fill-rule="nonzero" d="M275.795 418.528L16.279 278.984c-12.936-5.635-11.634-24.335 1.87-28.255l243.816-134.924c8.86-2.514 18.214-2.71 27.172-.571l287.745 135.332c13.993 3.43 15.62 22.701 2.44 28.418L318.099 418.609c-13.504 5.854-28.822 5.824-42.303-.081z" transform="translate(0 -71) translate(0 174.578)"/>
            <path fill="url(#prefix__b)" fill-rule="nonzero" d="M282.352 373.862L100.15 275.827c-9.081-3.959-8.167-17.097 1.314-19.85l171.178-94.79c6.221-1.767 12.788-1.905 19.077-.402l202.022 95.077c9.824 2.41 10.966 15.949 1.713 19.965L312.053 373.92c-9.481 4.112-20.236 4.092-29.7-.058z" transform="translate(0 -71) translate(0 174.578)"/>
            <path fill="url(#prefix__c)" fill-rule="nonzero" d="M558.322 290.406l-243.04 128.641c-11.46 5.207-24.574 5.384-36.17.489L36.056 287.463C13.835 275.388 0 252.125 0 226.835V0l289.214 122.665 311.683-93.417V219.7c0 29.635-16.383 56.842-42.575 70.706z" opacity=".35" transform="translate(0 -71) translate(0 174.578)"/>
        </g>
        <g transform="translate(0 -71) translate(72.468)">
            <path fill="#5D28DD" fill-rule="nonzero" d="M254.269 384.55L340.236 332.496 340.236 153.337 254.269 209.252z" opacity=".13"/>
            <path fill="#8FD4FF" fill-rule="nonzero" d="M252.93 208.506l-86.574-55.226c-.681-.436-1.09-1.19-1.08-1.995.008-.806.432-1.55 1.122-1.972l87.534-49.355c.787-.483 1.785-.464 2.552.05l82.713 51.32c.658.442 1.049 1.182 1.04 1.971-.01.789-.418 1.52-1.086 1.946l-83.679 53.261c-.774.494-1.767.494-2.542 0z"/>
            <path fill="url(#prefix__d)" fill-rule="nonzero" d="M252.93 205.483l-86.574-55.937c-.681-.441-1.09-1.204-1.08-2.02.008-.816.432-1.57 1.122-1.997l87.534-48.588c.788-.487 1.786-.465 2.552.056l82.713 50.592c.658.447 1.049 1.197 1.04 1.996-.01.799-.418 1.54-1.086 1.97l-83.679 53.928c-.774.5-1.767.5-2.542 0z"/>
            <path fill="url(#prefix__e)" fill-rule="nonzero" d="M251.974 187.515l-53.328-33.999c-.423-.264-.68-.726-.68-1.222s.257-.958.68-1.222l53.917-29.516c.486-.297 1.101-.284 1.574.032l50.95 30.743c.406.271.647.727.641 1.213-.005.486-.256.937-.668 1.199l-51.522 32.781c-.478.301-1.09.298-1.564-.01z"/>
            <path fill="url(#prefix__f)" fill-rule="nonzero" d="M339.785 146.973l-82.709-50.58c-.766-.52-1.763-.542-2.551-.057L167 144.926c-.69.429-1.113 1.183-1.12 2-.008.815.401 1.578 1.083 2.019l86.563 55.935c.775.5 1.768.5 2.543 0l83.668-53.917c.679-.429 1.094-1.176 1.104-1.982.01-.807-.389-1.563-1.057-2.008zm-29.074 3.86l-55.555 35.811c-.515.331-1.174.331-1.689 0l-57.475-37.143c-.456-.288-.733-.792-.733-1.334s.277-1.046.733-1.334l58.115-32.238c.523-.323 1.185-.309 1.694.037l54.919 33.584c.43.295.687.786.685 1.31-.002.525-.262 1.014-.694 1.306z"/>
            <path stroke="#FAF8FF" d="M338.579 136.427L255.874 86.13c-.766-.52-1.764-.541-2.552-.056l-87.53 48.32c-.69.425-1.114 1.176-1.122 1.988-.009.812.4 1.571 1.08 2.012l86.57 55.622c.775.497 1.768.497 2.543 0l83.674-53.63c.674-.427 1.086-1.168 1.094-1.967.008-.8-.388-1.548-1.052-1.99h0z"/>
            <path stroke="#FAF8FF" d="M339.197 125.243L256.494 74.66c-.767-.521-1.766-.541-2.553-.052l-87.543 48.594c-.69.428-1.114 1.182-1.123 1.998-.008.816.4 1.58 1.082 2.02l86.564 55.926c.774.502 1.768.502 2.542 0l83.688-53.935c.668-.43 1.076-1.171 1.085-1.97.01-.8-.381-1.55-1.039-1.997h0z"/>
            <path fill="url(#prefix__g)" fill-rule="nonzero" d="M255.853 207.414c-1.238.746-2.79.737-4.018-.023l-86.56-56.469V383.64l83.743 52.225h10.092l81.126-53.87V153.193l-84.383 54.221z"/>
            <path fill="url(#prefix__h)" fill-rule="nonzero" d="M405.005 354.579l-43.007 28.45c-.613.395-1.397.419-2.033.06l-44.55-27.682v-118.76l44.33 28.84c.63.386 1.426.386 2.057 0l43.213-27.673-.01 116.765z"/>
            <path fill="#5D28DD" fill-rule="nonzero" d="M361.426 383.343l.42-.097c.275-.069.536-.183.773-.339l42.396-28.2v-116.25l-43.59 28.405v116.48z" opacity=".13"/>
            <path fill="#8FD4FF" fill-rule="nonzero" d="M360.298 266.628l-44.319-28.214c-.35-.219-.564-.601-.564-1.013 0-.411.213-.794.564-1.013l42.983-21.297c.404-.247.916-.236 1.308.028l44.202 22.308c.339.222.543.598.543 1.001 0 .403-.204.78-.543 1.001l-42.828 27.199c-.407.27-.939.27-1.346 0z"/>
            <path fill="url(#prefix__i)" fill-rule="nonzero" d="M360.298 264.21l-44.319-28.208c-.35-.219-.564-.601-.564-1.013 0-.411.213-.794.564-1.013l42.049-21.3c.728-.246 1.52-.236 2.242.028l44.202 22.31c.339.222.543.597.543 1 0 .402-.204.778-.543.999l-42.828 27.196c-.406.276-.94.276-1.346 0z"/>
            <path fill="url(#prefix__j)" fill-rule="nonzero" d="M312.183 148.475c-.104 2.098-1.478 3.92-3.462 4.589l-52.919 34.5c-.637.245-1.343.245-1.98 0l-56.284-35.968c-1.595-.518-2.654-2.034-2.596-3.716V0l43.01 13.994 75.647-5.16-.926 126.724-.49 12.917z" opacity=".66"/>
            <path fill="url(#prefix__k)" fill-rule="nonzero" d="M167.073 310.918l-37.775 25.062c-.541.347-1.23.367-1.79.051l-39.12-24.382V207.065l38.949 25.383c.556.335 1.252.335 1.808 0l37.946-24.374-.018 102.844z"/>
            <path fill="#5D28DD" fill-rule="nonzero" d="M127.74 279.508L167.091 256.016 167.091 207.669 127.74 232.904z" opacity=".13"/>
            <path fill="#8FD4FF" fill-rule="nonzero" d="M128.142 232.87l-38.657-25.18c-.306-.196-.49-.537-.49-.904s.184-.708.49-.904l39.071-21.587c.346-.226.79-.226 1.137 0l36.922 22.488c.297.197.476.533.476.893s-.179.696-.476.893l-37.346 24.278c-.34.227-.778.236-1.127.023z"/>
            <path fill="url(#prefix__l)" fill-rule="nonzero" d="M128.142 231.665L89.485 206.87c-.306-.193-.49-.53-.49-.89 0-.362.184-.698.49-.891l39.071-20.796c.346-.223.79-.223 1.137 0l36.922 21.684c.297.194.476.524.476.88 0 .354-.179.684-.476.878l-37.346 23.907c-.34.224-.778.233-1.127.023z"/>
            <path fill="url(#prefix__m)" fill-opacity=".6" fill-rule="nonzero" d="M335.999 236.054L373.732 219.139 394.723 229.766 360.757 252.342z" opacity=".35"/>
            <path fill="url(#prefix__n)" fill-rule="nonzero" d="M383.22 235.76L360.344 250.531 360.215 211.291z"/>
            <path fill="url(#prefix__o)" fill-rule="nonzero" d="M360.82 250.531L360.655 211.291 337.815 236.003z"/>
            <path fill="url(#prefix__p)" fill-rule="nonzero" d="M360.345 250.531L360.215 211.291 383.22 235.76z"/>
            <path fill="url(#prefix__q)" fill-rule="nonzero" d="M26.522 319.654L222.015 422.64l202.32-108.722V419.21c0 10.635-5.821 20.417-15.169 25.49L229.61 542.126c-3.508 1.904-7.732 1.938-11.271.093L42.114 450.333c-9.583-4.997-15.592-14.908-15.592-25.715V319.654z"/>
            <path fill="url(#prefix__r)" fill-rule="nonzero" d="M228.237 211.291l187.895 97.902c3.918 2.042 5.44 6.873 3.398 10.791-.764 1.467-1.964 2.661-3.435 3.418l-192.632 99.087c-2.32 1.194-5.077 1.18-7.386-.035L35.23 327.25c-3.91-2.058-5.41-6.896-3.353-10.806.752-1.428 1.92-2.596 3.347-3.35l193.014-101.803z"/>
            <path fill="url(#prefix__s)" fill-rule="nonzero" d="M337.815 236.003L360.82 250.531 360.655 211.291z"/>
            <path fill="url(#prefix__t)" fill-rule="nonzero" d="M234.291 225.517L234.291 70.028 389.274 142.058 389.274 318.144z" opacity=".66"/>
            <path fill="#331089" fill-rule="nonzero" stroke="#FFF" d="M274.494 265.288l-110.42 64.275c-2.867 1.668-6.408 1.68-9.284.028-2.877-1.652-4.65-4.713-4.65-8.028v-71.755c-.002-3.296 1.75-6.345 4.601-8.005l110.42-64.27c2.864-1.664 6.4-1.675 9.273-.029 2.874 1.647 4.65 4.701 4.657 8.01v71.756c.007 3.3-1.744 6.355-4.597 8.018z"/>
            <path stroke="#E26B0A" stroke-width="6" d="M251.848 211.374L243.977 216.121 243.977 205.172 251.848 200.425z" opacity=".29"/>
            <path stroke="#E26B0A" stroke-width="6" d="M248.821 201.391L252.453 199.218 252.453 210.325 248.821 212.499" opacity=".6"/>
            <path stroke="#E26B0A" stroke-width="6" d="M263.956 203.526L256.085 208.273 256.085 197.324 263.956 192.577z" opacity=".29"/>
            <path fill="url(#prefix__u)" d="M70.542 343.786L100.497 361.484 100.497 421.125 70.542 403.427z"/>
            <path stroke="#E26B0A" stroke-width="6" d="M260.323 194.148L263.956 191.973 263.956 203.085 260.323 205.254" opacity=".6"/>
            <g>
                <path fill="url(#prefix__v)" fill-rule="nonzero" d="M41.167 36.82L21.501 49.835c-.546.344-1.242.363-1.807.05L0 38.401V12.677l19.488 12.449c.558.337 1.263.337 1.821 0l19.858-12.324V36.82z" transform="translate(57.513 383.343)"/>
                <path fill="#8FD4FF" fill-rule="nonzero" d="M19.967 25.226L.42 13.336C.16 13.18 0 12.902 0 12.602s.16-.58.42-.734L19.601.718c.266-.153.595-.153.861 0l20.273 11.178c.267.153.431.435.431.74 0 .306-.164.588-.43.741L20.85 25.245c-.276.153-.614.146-.884-.019z" transform="translate(57.513 383.343)"/>
                <path fill="url(#prefix__w)" fill-rule="nonzero" d="M19.967 24.626L.42 12.735C.16 12.58 0 12.302 0 12.001c0-.3.16-.579.42-.734L19.601.113c.267-.15.594-.15.861 0L40.736 11.29c.267.154.431.436.431.741s-.164.588-.43.741L20.85 24.635c-.273.158-.613.155-.884-.01z" transform="translate(57.513 383.343)"/>
                <path fill="url(#prefix__x)" d="M0 13.281H20.584V51.312999999999995H0z" transform="translate(57.513 383.343)"/>
            </g>
            <g>
                <path fill="url(#prefix__y)" fill-rule="nonzero" d="M41.153 36.82L21.494 49.835c-.546.344-1.241.363-1.807.05L0 38.401V12.677L19.495 25.14c.56.339 1.266.339 1.826 0l19.846-12.324-.014 24.006z" transform="translate(36.93 411.112)"/>
                <path fill="url(#prefix__x)" d="M0 13.281H20.584V51.312999999999995H0z" transform="translate(36.93 411.112)"/>
                <path fill="#8FD4FF" fill-rule="nonzero" d="M19.958 25.222L.419 13.334C.16 13.179 0 12.9 0 12.6s.16-.579.42-.734L19.582.72c.266-.154.595-.154.861 0l20.278 11.175c.27.148.44.427.445.733.006.305-.153.59-.417.748L20.86 25.241c-.28.158-.628.151-.902-.019z" transform="translate(36.93 411.112)"/>
                <path fill="url(#prefix__z)" fill-rule="nonzero" d="M19.958 24.612L.419 12.734C.16 12.579 0 12.3 0 12s.16-.578.42-.733L19.582.115c.266-.153.595-.153.861 0L40.722 11.28c.27.148.44.427.445.732.006.305-.153.59-.417.748L20.86 24.64c-.282.158-.63.147-.902-.028z" transform="translate(36.93 411.112)"/>
            </g>
            <g fill-rule="nonzero">
                <path fill="url(#prefix__A)" d="M34.926 60.118L.734 38.678C.278 38.4 0 37.897 0 37.355c0-.542.278-1.045.734-1.324L34.27 15.903c.465-.276 1.04-.276 1.506 0l35.486 20.153c.473.267.77.771.78 1.322.01.55-.268 1.065-.73 1.35l-34.807 21.44c-.494.285-1.104.266-1.58-.05z" opacity=".11" transform="translate(0 436.467)"/>
                <path fill="url(#prefix__B)" d="M57.5 36.82L37.84 49.835c-.546.344-1.242.363-1.807.05L16.346 38.401V12.677L35.84 25.14c.56.339 1.266.339 1.826 0l19.846-12.324-.014 24.006z" transform="translate(0 436.467)"/>
                <path fill="#8FD4FF" d="M36.303 25.222L16.765 13.334c-.26-.155-.42-.434-.42-.734s.16-.579.42-.734L35.93.72c.266-.154.595-.154.861 0l20.278 11.175c.27.148.44.427.445.733.006.305-.153.59-.417.748l-19.89 11.866c-.28.158-.628.151-.903-.019z" transform="translate(0 436.467)"/>
                <path fill="url(#prefix__z)" d="M36.303 24.612L16.765 12.734c-.26-.155-.42-.434-.42-.734s.16-.578.42-.733L35.93.115c.266-.153.595-.153.861 0L57.068 11.28c.27.148.44.427.445.732.006.305-.153.59-.417.748L37.206 24.64c-.282.158-.63.147-.903-.028z" transform="translate(0 436.467)"/>
            </g>
            <path stroke="#E26B0A" stroke-width="6" d="M239.74 218.618L231.869 223.365 231.869 212.416 239.74 207.669z" opacity=".29"/>
            <path stroke="#E26B0A" stroke-width="6" d="M236.107 208.632L239.74 206.462 239.74 217.573 236.107 219.743" opacity=".6"/>
            <path fill="url(#prefix__C)" fill-rule="nonzero" d="M241.556 281.077L230.659 287.356 230.659 235.257 241.556 228.798z"/>
            <path fill="url(#prefix__D)" fill-rule="nonzero" d="M253.664 273.776L242.767 280.112 242.767 247.39 253.664 240.872z"/>
            <path fill="url(#prefix__E)" fill-rule="nonzero" d="M265.772 265.91L254.875 272.264 254.875 255.859 265.772 249.324z"/>
            <path fill="#ECE8F7" fill-rule="nonzero" d="M223.999 224.429L158.616 261.398 158.616 250.679 223.999 213.706z" opacity=".4"/>
            <g opacity=".5">
                <path fill="#331089" fill-rule="nonzero" stroke="#FFF" d="M124.797 89.236l-110.657 64.3c-2.873 1.67-6.421 1.68-9.304.029-2.882-1.653-4.66-4.715-4.66-8.031V73.749c0-3.296 1.756-6.344 4.612-8.003L115.444 1.45c2.873-1.67 6.421-1.68 9.304-.029 2.882 1.653 4.66 4.716 4.66 8.031v71.785c-.002 3.295-1.758 6.34-4.611 7.999h0z" transform="translate(81.124 173.863)"/>
                <path stroke="#E26B0A" stroke-width="6" d="M101.764 34.948L93.726 39.709 93.726 28.728 101.764 23.967z" opacity=".29" transform="translate(81.124 173.863)"/>
                <path stroke="#E26B0A" stroke-width="6" d="M98.244 25.625L101.871 23.476 101.871 34.457 98.244 36.606" opacity=".6" transform="translate(81.124 173.863)"/>
                <path stroke="#E26B0A" stroke-width="6" d="M113.972 27.325L105.934 32.081 105.934 21.1 113.972 16.344z" opacity=".29" transform="translate(81.124 173.863)"/>
                <path stroke="#E26B0A" stroke-width="6" d="M110.453 18.002L114.079 15.853 114.079 26.834 110.453 28.983" opacity=".6" transform="translate(81.124 173.863)"/>
                <path stroke="#E26B0A" stroke-width="6" d="M89.561 42.469L81.518 47.23 81.518 36.249 89.561 31.488z" opacity=".29" transform="translate(81.124 173.863)"/>
                <path stroke="#E26B0A" stroke-width="6" d="M86.036 33.146L89.663 31.002 89.663 41.983 86.036 44.132" opacity=".6" transform="translate(81.124 173.863)"/>
                <path fill="url(#prefix__F)" fill-rule="nonzero" d="M91.149 104.964L80.274 111.267 80.274 58.966 91.149 52.482z" transform="translate(81.124 173.863)"/>
                <path fill="url(#prefix__G)" fill-rule="nonzero" d="M103.682 97.507L92.807 103.81 92.807 71.257 103.682 64.773z" transform="translate(81.124 173.863)"/>
                <path fill="url(#prefix__H)" fill-rule="nonzero" d="M115.89 90.004L105.015 96.303 105.015 80.029 115.89 73.545z" transform="translate(81.124 173.863)"/>
                <path fill="#ECE8F7" fill-rule="nonzero" d="M74 48.314L8.716 85.378 8.716 74.629 74 37.564zM64.792 69.539L8.716 101.388 8.716 90.639 64.792 58.79zM55.087 89.666L8.948 115.972 8.948 105.223 55.087 78.917z" opacity=".4" transform="translate(81.124 173.863)"/>
                <path stroke="#E26B0A" stroke-width="6" d="M32.203 120.483L24.161 125.239 24.161 114.263 32.203 109.502z" opacity=".29" transform="translate(81.124 173.863)"/>
                <path stroke="#E26B0A" stroke-width="6" d="M28.679 111.16L32.31 109.011 32.31 119.992 28.679 122.141" opacity=".6" transform="translate(81.124 173.863)"/>
                <path stroke="#E26B0A" stroke-width="6" d="M44.411 112.855L36.373 117.616 36.373 106.635 44.411 101.874z" opacity=".29" transform="translate(81.124 173.863)"/>
                <path stroke="#E26B0A" stroke-width="6" d="M40.891 103.532L44.518 101.388 44.518 112.369 40.891 114.513" opacity=".6" transform="translate(81.124 173.863)"/>
                <path stroke="#E26B0A" stroke-width="6" d="M20 128.004L11.957 132.765 11.957 121.784 20 117.023z" opacity=".29" transform="translate(81.124 173.863)"/>
                <path stroke="#E26B0A" stroke-width="6" d="M16.475 118.681L20.102 116.537 20.102 127.518 16.475 129.662" opacity=".6" transform="translate(81.124 173.863)"/>
                <path stroke="#E26B0A" stroke-width="6" d="M69.923 97.873L61.885 102.629 61.885 91.649 69.923 86.892z" opacity=".29" transform="translate(81.124 173.863)"/>
                <path stroke="#E26B0A" stroke-width="6" d="M66.403 88.55L70.03 86.401 70.03 97.382 66.403 99.531" opacity=".6" transform="translate(81.124 173.863)"/>
                <path stroke="#E26B0A" stroke-width="6" d="M57.72 105.394L49.677 110.155 49.677 99.174 57.72 94.413z" opacity=".29" transform="translate(81.124 173.863)"/>
                <path stroke="#E26B0A" stroke-width="6" d="M54.195 96.071L57.827 93.923 57.827 104.903 54.195 107.052" opacity=".6" transform="translate(81.124 173.863)"/>
            </g>
            <path fill="#ECE8F7" fill-rule="nonzero" d="M214.918 245.499L158.616 277.093 158.616 266.43 214.918 234.835zM205.232 265.439L159.221 291.582 159.221 280.899 205.232 254.757z" opacity=".4"/>
            <path stroke="#E26B0A" stroke-width="6" d="M182.226 297.101L174.356 301.845 174.356 290.893 182.226 286.149z" opacity=".29"/>
            <path stroke="#E26B0A" stroke-width="6" d="M179.199 287.719L182.832 285.545 182.832 296.653 179.199 298.826" opacity=".6"/>
            <path stroke="#E26B0A" stroke-width="6" d="M194.334 288.646L186.464 293.393 186.464 282.444 194.334 277.697z" opacity=".29"/>
            <path stroke="#E26B0A" stroke-width="6" d="M191.307 279.263L194.94 277.093 194.94 288.205 191.307 290.375" opacity=".6"/>
            <path stroke="#E26B0A" stroke-width="6" d="M170.118 304.342L162.248 309.089 162.248 298.14 170.118 293.393z" opacity=".29"/>
            <path stroke="#E26B0A" stroke-width="6" d="M166.486 294.959L170.118 292.789 170.118 303.896 166.486 306.071" opacity=".6"/>
            <path stroke="#E26B0A" stroke-width="6" d="M219.761 273.557L211.891 278.301 211.891 267.349 219.761 262.605z" opacity=".29"/>
            <path stroke="#E26B0A" stroke-width="6" d="M216.129 264.779L219.761 262.605 219.761 273.712 216.129 275.886" opacity=".6"/>
            <path stroke="#E26B0A" stroke-width="6" d="M207.653 280.798L199.783 285.545 199.783 274.596 207.653 269.849z" opacity=".29"/>
            <path stroke="#E26B0A" stroke-width="6" d="M204.021 272.023L207.653 269.849 207.653 280.957 204.021 283.13" opacity=".6"/>
            <path fill="#1F28CF" d="M276.586 266.227L268.799 302.448 272.028 302.448 277.678 287.078 285.75 266.227z"/>
            <path fill="#2B44FF" d="M277.275 266.227c1.928 6.837 5.602 18.325 6.336 19.58.505.838 5.51 4.372 15.062 10.604l1.607-2.744c-8.036-6.51-12.169-9.86-12.26-10.185-.184-.465-.138-10.093-.23-17.255h-10.515z"/>
            <path fill="#191847" d="M301.674 296.705l-.224-.23-1.073 1.84-3.843 4.737-.492-.414c1.001-2.076 1.637-4.319 1.877-6.623l2.146-2.622 2.637 2.07-1.028 1.242zM270.716 306.07v-.342l-2.192.343h-6.384v-.686c2.34-.58 4.566-1.573 6.575-2.937h3.526l.19 3.623h-1.715z"/>
            <path fill="#B28B67" d="M284.778 253.93h-4.474l.754-5.145c-1.225.683-2.402 1.047-2.92.91-1.412-.364-1.506-5.282-.423-7.194 1.083-1.913 6.592-2.778 6.874 1.047.044 1.29-.428 2.545-1.318 3.506l1.507 6.876z"/>
            <path fill="#191847" d="M279.984 242.603c-1.896.047-2.076-.33-2.076-1.512.8-.422 1.677-.663 2.573-.709.673-.19 1.388-.14 2.031.142.858.236 1.85.756 2.167 1.748.934 1.762.424 3.98-1.174 5.104-.316-.378-.587-.756-.858-1.134.406-.452.406-1.156 0-1.607-.192-.23-.476-.353-.767-.33h-.135c.01 1.444-.127 2.885-.407 4.3-.36 1.086-2.302 1.322-2.979 1.322s-.541-.756-.541-1.18c0-.237.722.094.722-.332 0-.425-.903-.661-1.083-.945-.181-.283-.316-.756.045-.756.451 0 1.354.709 2.392.709.677 0 1.128-1.181 1.309-3.591-.325-.49-.74-.907-1.219-1.229z"/>
            <path fill="#B28B67" d="M272.276 267.298l-5.469 2.277c-1.542 1.812-2.43 2.555-2.617 2.276-.28-.464.327-.836.187-1.161-.14-.325-1.169-.279-2.15-.233-.982.047-.702-.371-.468-.557 1.175-.658 2.432-1.158 3.74-1.487l5.515-4.042 1.262 2.927zm28.608 6.133c.327.465 2.43 1.627 3.833 2.277.18.05.324.188.38.366.057.178.02.372-.1.517-1.402 1.208-2.617.279-4.067-.093-1.589-.418-1.121 1.487-2.383 1.162.233-.883.794-2.51.233-3.392-.233-.419-2.15-4.09-5.703-11.106l3.039-.557c2.711 6.598 4.3 10.222 4.768 10.826z"/>
            <path fill="#F2F2F2" d="M280.887 249.927l1.836.73c-.092 1.959.184 7.335-.643 8.884-2.479 4.693-7.896 6.88-13.68 9.704l-1.378-2.779.46-.319c-.205-.091-.368-.253-.46-.455-.13-.39.072-.812.46-.957.733-.265 1.515-.373 2.295-.319 5.142-4.283 8.539-9.295 11.11-14.489z"/>
            <path fill="#191847" d="M283.613 250.018c-1.324.182-2.223.136-2.743-.09 0 4.81-1.892 9.846-4.682 16.742-.19.454-.19 2.042.19 2.133 3.168.59 7.519.59 13.005 0-.71-8.176-2.318-13.848-5.77-18.785z"/>
            <path fill="#F2F2F2" d="M298.028 289.167c-7.123-2.856-14.433.703-19.555-.421-2.793-14.329 5.215-31.14 4.656-38.819h1.956c6.797 4.215 11.686 10.817 14.666 19.901.363.054.711.182 1.024.375.326.187-.14 1.17-.512 1.358.14.468.28.936.372 1.358l-3.259.983c-2.188-5.853-4.702-9.974-7.45-12.362.047 2.107-.558 4.214-.232 6.368.047.235.093.516.14.796.334.056.596.32.652.656l.093.515c.046.259-.042.523-.233.702 2.095 6.032 7.394 12.774 7.682 18.59z"/>
            <path fill="url(#prefix__I)" fill-opacity=".1" d="M286.356 252.338L284.757 254.175 286.356 255.823 281.512 262.605 285.462 255.823 283.863 254.175 285.65 252.102 284.757 249.324z"/>
            <path fill="#EAC6AC" d="M193.124 336.859L206.431 359.08 216.416 377.91 218.55 377.91 201.851 336.859z"/>
            <path fill="#E4E4E4" d="M214.646 378.377c-.172.374-.285.77-.333 1.174.009.462.053.922.132 1.377h10.639c.26-.867.127-1.299-.49-1.377-.618-.078-1.054-.123-1.471-.183l-4.913-2.038c-.063-.06-.196 0-.264.065l-.329.738c-.415.19-.86.316-1.319.372-.411-.044-.813-.148-1.191-.307-.2-.067-.423.01-.53.183l.07-.004z"/>
            <path fill="url(#prefix__J)" d="M213.22 375.495l4.12-1.235c-1.81-5.382-3.996-11.26-6.611-17.633-2.616-6.374-5.43-12.624-8.421-18.56h-11.606c3.095 7.08 6.636 13.962 10.601 20.603 3.522 5.91 7.506 11.535 11.916 16.825z"/>
            <path fill="url(#prefix__K)" d="M213.829 376.099l4.116-1.26c-1.81-5.468-3.991-11.44-6.612-17.915-2.62-6.476-5.427-12.82-8.422-18.858h-11.604c3.098 7.194 6.64 14.186 10.604 20.934 3.521 6.005 7.506 11.723 11.918 17.099z"/>
            <path fill="#EAC6AC" d="M192.269 336.877c-1.254 7.806-3.704 17.74-3.89 17.985-.187.246-5.65 2.063-16.445 5.498l.438 1.854c12.867-1.854 19.71-3.31 20.4-4.307 1.066-1.562 6.214-13.618 8.222-21.048l-8.725.018z"/>
            <path fill="url(#prefix__L)" d="M175.567 358.787l.819 3.07c9.708.813 15.631.25 17.779-1.819 2.147-2.07 4.678-9.765 7.434-23.18h-11.154c-1.768 10.965-2.774 16.666-2.966 17.103-.192.437-4.16 2.069-11.912 4.826z"/>
            <path fill="#E4E4E4" d="M173.353 360.512c-.404-.12-.83-.142-1.243-.063l-1.386.395 1.747 10.392c.868.132 1.307-.132 1.307-.728 0-.595-.064-1.117-.064-1.508l1.247-5.198c0-.063 0-.195-.124-.195l-.814-.2c-.247-.383-.435-.805-.559-1.25-.051-.398-.008-.804.125-1.181.025-.096.013-.2-.033-.287-.047-.087-.125-.15-.217-.177h.014z"/>
            <path fill="#EAC6AC" d="M195.134 310.822c-1.078-1.31-1.605-2.99-1.47-4.685.64-5.076 7.581-3.536 8.813-.9 1.232 2.635.702 9.117-1.085 9.503-.706.129-2.17-.386-3.638-1.43l.573 6.868-5.686-.32 2.493-9.036z"/>
            <path fill="#191847" d="M200.175 301.79c-.757-.256-1.551-.385-2.35-.382.313-.63.445-1.335.38-2.036-.066-.66-.26-1.302-.568-1.89-.096-.282-.248-.542-.447-.764-.213-.207-.473-.36-.757-.444-.288-.083-.59-.106-.888-.066-.134.014-.264.058-.38.127-.127.066-.189-.061-.315-.127-.242-.189-.523-.318-.823-.378-.34-.044-.684-.023-1.015.061-.338.082-.646.26-.889.51-.105.113-.19.242-.253.383 0 .061 0 .061-.061.127-.062.067-.127 0-.188 0-.533.17-.985.532-1.27 1.016-.18.466-.266.964-.253 1.464.062 1.02.386 2.006.94 2.862.461.51 1.053.885 1.71 1.082-.44.482-.782 1.045-1.01 1.657-.265.677-.457 1.38-.573 2.097-.127.695-.127 1.407 0 2.102.084.62.426 1.173.94 1.526.224.179.484.309.761.382.242.133.497.24.761.321.517.171 1.085.076 1.519-.255.18-.138.33-.312.441-.51.032-.02.05-.056.05-.094s-.018-.074-.05-.095l-.188-.193c-.4-.362-.63-.876-.634-1.417-.067-.582.203-1.151.696-1.464.7-.255 1.41.127 1.964.444.252-.86.848-1.575 1.645-1.975.888-.377 1.88-.377 2.853-.699.263-.06.504-.192.696-.382.097-.08.164-.192.188-.317.016-.14-.03-.28-.127-.382-.642-.953-1.501-1.738-2.505-2.29z"/>
            <path fill="#EAC6AC" d="M208.815 333.1l5.961 5.282c1.471.48 2.866 1.183 4.14 2.085.252.261.564.846-.563.648-1.127-.198-2.329-.324-2.51.068-.182.392.498.914.125 1.45-.251.33-1.131-.647-2.761-2.93l-6.069-3.135 1.677-3.468zm-27.109-2.278l3.516.517c-3.767 8.475-5.775 12.973-6.087 13.49-.628 1.109.126 3 .378 4.045-1.444.454-.932-1.892-2.762-1.306-1.635.522-3.013 1.697-4.657.329-.112-.128-.17-.298-.158-.471.011-.173.09-.333.218-.444.062-.079.154-.126.252-.13 1.57-.847 3.889-2.346 4.266-2.869.517-.778 2.147-5.146 5.034-13.161z"/>
            <path fill="#C5CFD6" d="M195.308 317.605l2.23-.668c2.99 7.18 7.446 14.053 14.958 19.896l-1.847 3.044c-6.553-3.712-12.795-6.575-15.275-12.111-.903-1.825-.128-7.907-.066-10.16z"/>
            <path fill="url(#prefix__M)" d="M195.306 317.621l2.226-.684c2.995 7.35 7.451 14.386 14.964 20.428l-1.847 3.116c-6.559-3.8-12.796-6.726-15.282-12.394-.888-1.997-.127-8.224-.061-10.466z"/>
            <path fill="#323337" d="M188.28 338.202c6.199.624 11.16.624 14.723 0 .437-.06.502-.807.311-1.306-3.194-7.771-5.39-14.546-5.39-19.96-.562.315-1.627.315-3.068.126-4.009 5.533-5.827 11.934-6.576 21.14z"/>
            <path fill="#DDE3E9" d="M193.376 316.333h1.645c.375 2.23 1.575 32.344 5.367 42.259h-20.34c.47-9.05 3.92-19.89 7.454-29-3.094 2.786-5.808 7.56-8.147 14.187l-3.788-.92c2.84-11.957 8.65-20.754 17.429-26.392l.065-.125.315-.009z"/>
            <ellipse cx="337.815" cy="82.705" fill="url(#prefix__N)" fill-rule="nonzero" rx="11.503" ry="11.47"/>
            <ellipse cx="8.476" cy="208.575" fill="url(#prefix__O)" fill-rule="nonzero" rx="6.054" ry="6.339"/>
            <ellipse cx="26.638" cy="290.978" fill="url(#prefix__P)" fill-rule="nonzero" rx="5.449" ry="5.433"/>
            <path fill="url(#prefix__Q)" fill-rule="nonzero" d="M320.864 331.787L309.966 338.066 309.966 285.967 320.864 279.508z"/>
            <path fill="url(#prefix__R)" fill-rule="nonzero" d="M332.972 324.486L322.074 330.822 322.074 298.099 332.972 291.582z"/>
            <path fill="url(#prefix__S)" fill-rule="nonzero" d="M345.685 317.229L334.788 323.578 334.788 307.173 345.685 300.637z"/>
            <path stroke="#FFF" stroke-width="6" d="M286.961 347.808L279.091 352.555 279.091 341.606 286.961 336.859z"/>
            <path stroke="#E26B0A" stroke-width="6" d="M283.934 337.821L287.566 335.651 287.566 346.758 283.934 348.932"/>
            <path stroke="#FFF" stroke-width="6" d="M301.491 339.356L293.62 344.103 293.62 333.154 301.491 328.407z"/>
            <path stroke="#E26B0A" stroke-width="6" d="M299.069 329.977L302.702 327.803 302.702 338.911 299.069 341.085"/>
            <path stroke="#FFF" stroke-width="6" d="M286.961 328.493L279.091 333.237 279.091 322.285 286.961 317.541z"/>
            <path stroke="#E26B0A" stroke-width="6" d="M283.934 319.111L287.566 316.937 287.566 328.044 283.934 330.218"/>
            <path stroke="#FFF" stroke-width="6" d="M301.491 320.042L293.62 324.785 293.62 313.836 301.491 309.089z"/>
            <path stroke="#E26B0A" stroke-width="6" d="M299.069 310.659L302.702 308.485 302.702 319.593 299.069 321.766"/>
            <path stroke="#FFF" stroke-width="6" d="M257.902 364.709L250.031 369.458 250.031 358.506 257.902 353.762z"/>
            <path stroke="#E26B0A" stroke-width="6" d="M254.269 354.728L257.902 352.555 257.902 363.662 254.269 365.836"/>
            <path stroke="#FFF" stroke-width="6" d="M273.037 356.863L265.167 361.61 265.167 350.661 273.037 345.914z"/>
            <path stroke="#E26B0A" stroke-width="6" d="M269.404 347.479L273.037 345.31 273.037 356.418 269.404 358.592"/>
            <path fill="#ECE8F7" fill-rule="nonzero" d="M281.512 316.735L225.21 348.329 225.21 337.669 281.512 306.071zM271.221 336.071L225.21 362.214 225.21 351.531 271.221 325.389z" opacity=".4"/>
            <ellipse cx="345.685" cy="401.453" fill="url(#prefix__T)" fill-rule="nonzero" rx="11.503" ry="11.47"/>
            <ellipse cx="325.707" cy="422.583" fill="url(#prefix__U)" fill-rule="nonzero" rx="5.449" ry="5.433"/>
            <ellipse cx="375.35" cy="365.232" fill="url(#prefix__V)" fill-rule="nonzero" rx="21.795" ry="21.733"/>
        </g>
        <g stroke="#FCFAFC" opacity=".5">
            <path d="M134.075 130.4L81.68 98.105c-7.875-4.863-17.794-5.049-25.849-.485l-52.95 29.937c-1.654.926-2.699 2.644-2.756 4.53-.057 1.886.883 3.664 2.477 4.687l50.094 31.254c9.316 6.08 21.25 6.533 31.005 1.178l49.955-26.126c2.31-1.242 3.783-3.61 3.87-6.222.085-2.61-1.229-5.07-3.452-6.46zM369.543 75.377l-52.394-32.294c-7.876-4.862-17.794-5.048-25.849-.485l-52.95 29.937c-1.654.926-2.699 2.645-2.756 4.53-.057 1.887.883 3.665 2.477 4.687l50.094 31.254c9.316 6.08 21.25 6.533 31.004 1.178l49.956-26.125c2.31-1.242 3.783-3.611 3.87-6.222.085-2.61-1.229-5.07-3.452-6.46z" transform="translate(0 -71) translate(227.99 461.54)"/>
            <path d="M369.543 36.075L317.149 3.782c-7.876-4.863-17.794-5.049-25.849-.486l-52.95 29.938c-1.654.925-2.699 2.644-2.756 4.53-.057 1.886.883 3.664 2.477 4.687l50.094 31.254c9.316 6.08 21.25 6.533 31.004 1.178l49.956-26.126c2.31-1.242 3.783-3.611 3.87-6.222.085-2.61-1.229-5.07-3.452-6.46z" transform="translate(0 -71) translate(227.99 461.54)"/>
        </g>
    </g>
</svg>
